<?xml version="1.0" standalone="no"?>
<!DOCTYPE svg PUBLIC "-//W3C//DTD SVG 1.1//EN" "http://www.w3.org/Graphics/SVG/1.1/DTD/svg11.dtd" >
<svg>
<metadata>
Created by FontForge 20090914 at Thu Nov  1 14:45:09 2012
 By www-data
&#194;&#169; 1992, 1994, 1997, 2000, 2004 Adobe Systems Incorporated. All rights reserved.
</metadata>
<defs>
<font id="MyriadPro-Cond" horiz-adv-x="300" >
  <font-face 
    font-family="Myriad Pro Cond"
    font-weight="400"
    font-stretch="condensed"
    units-per-em="1000"
    panose-1="2 11 5 6 3 4 3 2 2 4"
    ascent="750"
    descent="-250"
    x-height="484"
    cap-height="674"
    bbox="-140 -250 970 935"
    underline-thickness="50"
    underline-position="-50"
    unicode-range="U+0020-U+FB04"
  />
<missing-glyph horiz-adv-x="500" 
d="M0 0v700h500v-700h-500zM250 395l170 255h-340zM280 350l170 -255v510zM80 50h340l-170 255zM50 605v-510l170 255z" />
    <glyph glyph-name="f_f_j" unicode="ffj" horiz-adv-x="642" 
d="M568 677l-16.998 -60c-26.667 12.667 -53.334 19 -80.001 19c-36.667 0 -62 -11 -76 -33s-21 -53.667 -21 -95v-24h217v-453c0 -50 -3.66699 -88.833 -11 -116.5s-20 -50.5 -38 -68.5c-13.333 -14 -30.166 -25 -50.499 -33s-38.833 -12.333 -55.5 -13l-10 61
c32 8.66699 53.667 21.334 65 38.001c15.333 22 23 73.333 23 154v372h-140v-425h-77v425h-150v-425h-77v425h-61v59h61v22c0 65.333 17.333 114.333 52 147c26 26 59.667 39 101 39c23.333 0 45.666 -5 66.999 -15l-22 -59c-14.667 7.33301 -29.334 11 -44.001 11
c-24 0 -42.333 -9 -55 -27c-14.667 -18.667 -22 -50.334 -22 -95.001v-23h150v32c0 50 14 93.167 42 129.5s72.667 54.5 134 54.5c38 0 69.667 -7.66699 95 -23z" />
    <glyph glyph-name="f_j" unicode="fj" horiz-adv-x="415" 
d="M147 0l-77 -0.000976562v425h-61v59h61v32c0 50 14 93.167 42 129.5s72.667 54.5 134 54.5c38 0 69.667 -7.66699 95 -23l-17 -60c-26.667 12.667 -53.334 19 -80.001 19c-36.667 0 -62 -11 -76 -33s-21 -53.667 -21 -95v-24h217v-453c0 -50 -3.66699 -88.833 -11 -116.5
s-20 -50.5 -38 -68.5c-13.333 -14 -30.166 -25 -50.499 -33s-38.833 -12.333 -55.5 -13l-10 61c32 8.66699 53.667 21.334 65 38.001c15.333 22 23 73.333 23 154v372h-140v-425z" />
    <glyph glyph-name="f_f" unicode="ff" horiz-adv-x="451" 
d="M370 0h-77.001v425h-146v-425h-77v425h-61v59h61v28c0 63.333 14.667 110.666 44 141.999c24 25.333 57.333 38 100 38c18.667 0 35.334 -3 50.001 -9l-15 -61c-10.667 4.66699 -22.667 7 -36 7c-24 0 -41 -9.5 -51 -28.5s-15 -48.5 -15 -88.5v-28h146v29
c0 64.667 14.333 113.334 43 146.001c24.667 27.333 56.667 41 96 41c24.667 0 45 -4 61 -12l-13 -60c-12 5.33301 -26 8 -42 8c-45.333 0 -68 -40.667 -68 -122v-30h88v-59h-88v-425z" />
    <glyph glyph-name="f_f_i" unicode="ffi" horiz-adv-x="645" 
d="M568 677l-16.9971 -59.999c-26.667 12.667 -53.334 19 -80.001 19c-36.667 0 -62 -11 -76 -33s-21 -53.667 -21 -95v-24h217v-484h-77v425h-140v-425h-77v425h-150v-425h-77v425h-61v59h61v22c0 65.333 17.333 114.333 52 147c26 26 59.667 39 101 39
c23.333 0 45.666 -5 66.999 -15l-22 -59c-14.667 7.33301 -29.334 11 -44.001 11c-24 0 -42.333 -9 -55 -27c-14.667 -18.667 -22 -50.334 -22 -95.001v-23h150v32c0 50 14 93.167 42 129.5s72.667 54.5 134 54.5c38 0 69.667 -7.66699 95 -23z" />
    <glyph glyph-name="f_f_l" unicode="ffl" horiz-adv-x="645" 
d="M290 677l-21.998 -58.999c-14.667 7.33301 -29.334 11 -44.001 11c-24 0 -42.333 -9 -55 -27c-14.667 -18.667 -22 -50.334 -22 -95.001v-23h150v26c0 64 18.333 113.333 55 148c30 28 71 42 123 42c44.667 0 83.667 -8.33301 117 -25v-675h-77v627
c-15.333 6.66699 -33 10 -53 10c-58.667 0 -88 -40.667 -88 -122v-31h83v-59h-83v-425h-77v425h-150v-425h-77v425h-61v59h61v22c0 65.333 17.333 114.333 52 147c26 26 59.667 39 101 39c23.333 0 45.666 -5 66.999 -15z" />
    <glyph glyph-name="f_i" unicode="fi" horiz-adv-x="418" 
d="M147 0h-76.999v425h-61v59h61v32c0 50 14 93.167 42 129.5s72.667 54.5 134 54.5c38 0 69.667 -7.66699 95 -23l-17 -60c-26.667 12.667 -53.334 19 -80.001 19c-36.667 0 -62 -11 -76 -33s-21 -53.667 -21 -95v-24h217v-484h-77v425h-140v-425z" />
    <glyph glyph-name="f_l" unicode="fl" horiz-adv-x="418" 
d="M147 0h-77v425h-61v59h61v26c0 64 18.333 113.333 55 148c30 28 71 42 123 42c44.667 0 83.667 -8.33301 117 -25v-675h-77v627c-15.333 6.66699 -33 10 -53 10c-58.667 0 -88 -40.667 -88 -122v-31h83v-59h-83v-425z" />
    <glyph glyph-name=".notdef" horiz-adv-x="500" 
d="M0 0v700h500v-700h-500zM250 395l170 255h-340zM280 350l170 -255v510zM80 50h340l-170 255zM50 605v-510l170 255z" />
    <glyph glyph-name="space" unicode=" " horiz-adv-x="157" 
 />
    <glyph glyph-name="exclam" unicode="!" horiz-adv-x="204" 
d="M134 188h-64l-10 486h85zM102 -8c-14 0 -25.667 5 -35 15s-14 23 -14 39s4.66699 29.167 14 39.5s21 15.5 35 15.5c14.667 0 26.5 -5 35.5 -15s13.5 -23.333 13.5 -40c0 -16 -4.33301 -29 -13 -39s-20.667 -15 -36 -15z" />
    <glyph glyph-name="quotedbl" unicode="&#x22;" horiz-adv-x="309" 
d="M50 682h71l-14 -233h-43zM189 682h71l-13 -233h-44z" />
    <glyph glyph-name="numbersign" unicode="#" horiz-adv-x="385" 
d="M145 251h77l19 153h-77zM113 0h-52l26 199h-65v52h72l19 153h-69v51h76l25 195h51l-25 -195h78l25 195h50l-25 -195h64v-51h-71l-19 -153h70v-50h-76l-26 -201h-52l26 201h-77z" />
    <glyph glyph-name="dollar" unicode="$" horiz-adv-x="385" 
d="M217 -84l-55 -0.00292969v100c-41.333 0.666992 -78.333 12 -111 34l18 60c34 -21.333 68 -32 102 -32c28.667 0 51.167 9.5 67.5 28.5s24.5 43.167 24.5 72.5c0 52 -28.667 95.333 -86 130c-38 22.667 -68 46.334 -90 71.001s-33 56 -33 94c0 38.667 10.833 72 32.5 100
s48.5 46 80.5 54v97h56v-91c38 0 70 -9 96 -27l-20 -59c-27.333 16.667 -56 25 -86 25c-26 0 -46.667 -8.66699 -62 -26s-23 -37.666 -23 -60.999c0 -28 6.66699 -49.667 20 -65s38 -33.666 74 -54.999c76 -44 114 -103.333 114 -178c0 -45.333 -11 -82.333 -33 -111
s-50.667 -47 -86 -55v-106z" />
    <glyph glyph-name="percent" unicode="%" horiz-adv-x="645" 
d="M153 658c36.667 0 66.168 -18 88.501 -54s33.5 -84 33.5 -144c0 -64.667 -11.833 -114 -35.5 -148s-52.5 -51 -86.5 -51c-36 0 -65.5 18 -88.5 54s-34.5 83.667 -34.5 143c0 61.333 11.667 110 35 146s52.666 54 87.999 54zM153.001 610c-22.667 0 -39 -15 -49 -45
s-15 -65 -15 -105c0 -26 1.66699 -49.5 5 -70.5s10 -39.667 20 -56s23 -24.5 39 -24.5c42 0 63 50 63 150c0 100.667 -21 151 -63 151zM176.001 -8h-49l341 666h49zM493.001 387c36.667 0 66.1689 -18.001 88.502 -54.001s33.5 -83.667 33.5 -143
c0 -64 -11.833 -112.833 -35.5 -146.5s-52.5 -50.5 -86.5 -50.5c-36.667 0 -66.334 17.667 -89.001 53s-34 83 -34 143c0 60.667 11.667 108.834 35 144.501s52.666 53.5 87.999 53.5zM493.003 338.999c-16 0 -28.999 -8.16797 -38.999 -24.501s-16.667 -34.833 -20 -55.5
s-5 -43.667 -5 -69c0 -40 5.16699 -75 15.5 -105s26.5 -45 48.5 -45c42 0 63 49.667 63 149c0 40.667 -4.83301 75.834 -14.5 105.501s-25.834 44.5 -48.501 44.5z" />
    <glyph glyph-name="ampersand" unicode="&#x26;" horiz-adv-x="491" 
d="M474 0l-86.0029 0.00195312l-46 63c-37.333 -47.333 -85.666 -71 -144.999 -71c-53.333 0 -94.666 18.5 -123.999 55.5s-44 80.833 -44 131.5c0 76.667 34.333 140.667 103 192v3c-32.667 52 -49 102.333 -49 151c0 43.333 12.5 80.333 37.5 111s58.5 46 100.5 46
c32.667 0 60.5 -12.167 83.5 -36.5s34.5 -58.5 34.5 -102.5c0 -34 -8.83301 -65.167 -26.5 -93.5s-47.167 -57.5 -88.5 -87.5v-3c37.333 -62.667 80 -126.334 128 -191.001c24 49.333 37.667 113.666 41 192.999h68c-9.33301 -102.667 -33.666 -184 -72.999 -244
c6 -10 34.667 -49 86 -117zM208.997 53.002c40 0 73.334 19.668 100.001 59.001c-42.667 58 -91.334 128.667 -146.001 212c-40 -38.667 -60 -84.334 -60 -137.001c0 -36.667 9.33301 -68.167 28 -94.5s44.667 -39.5 78 -39.5zM213.998 625.003
c-19.333 0 -34.167 -8.83301 -44.5 -26.5s-15.5 -40.5 -15.5 -68.5c0 -42 12.667 -83 38 -123c53.333 40 80 84.333 80 133c0 23.333 -4.66699 43.333 -14 60s-24 25 -44 25z" />
    <glyph glyph-name="quotesingle" unicode="'" horiz-adv-x="170" 
d="M50 682h71l-14 -233h-43z" />
    <glyph glyph-name="parenleft" unicode="(" horiz-adv-x="253" 
d="M168 692l60 0.00195312c-69.333 -109.333 -104 -245 -104 -407c0 -159.333 34.667 -294.333 104 -405h-60c-73.333 107.333 -110 242.666 -110 405.999c2 167.333 38.667 302.666 110 405.999z" />
    <glyph glyph-name="parenright" unicode=")" horiz-adv-x="253" 
d="M85 -120h-60c69.333 109.333 104 245 104 407c0 160.667 -34.667 295.667 -104 405h60c73.333 -104.667 110 -239.667 110 -405c-2 -165.333 -38.667 -301 -110 -407z" />
    <glyph glyph-name="asterisk" unicode="*" horiz-adv-x="373" 
d="M244 682l54 -30l-85 -120v-2l135 17v-60l-135 15v-2l87 -115l-56 -32l-59 132l-2 -1l-60 -134l-51 33l85 120v1l-133 -17v60l131 -16l1 2l-83 116l52 30l60 -128h2z" />
    <glyph glyph-name="plus" unicode="+" horiz-adv-x="596" 
d="M270 532h56v-238h230v-54h-230v-240h-56v240h-230v54h230v238z" />
    <glyph glyph-name="comma" unicode="," horiz-adv-x="194" 
d="M70 -119l-52.999 -7.00098c26.667 74.667 46 152.334 58 233.001l87 10c-10.667 -40.667 -25.334 -84.5 -44.001 -131.5s-34.667 -81.833 -48 -104.5z" />
    <glyph glyph-name="hyphen" unicode="-" horiz-adv-x="279" 
d="M30 291h219v-60h-219v60z" />
    <glyph glyph-name="period" unicode="." horiz-adv-x="194" 
d="M100 -8c-14.667 0 -26.832 5.33301 -36.499 16s-14.5 24.667 -14.5 42c0 16.667 5 30.5 15 41.5s22 16.5 36 16.5c15.333 0 27.666 -5.33301 36.999 -16s14 -24.667 14 -42c0 -18 -4.5 -32.167 -13.5 -42.5s-21.5 -15.5 -37.5 -15.5z" />
    <glyph glyph-name="slash" unicode="/" horiz-adv-x="281" 
d="M65 -40h-57l215 722h58z" />
    <glyph glyph-name="zero" unicode="0" horiz-adv-x="385" 
d="M198 658c52 0 91.668 -29.167 119.001 -87.5s41 -139.833 41 -244.5c0 -112.667 -15.5 -196.5 -46.5 -251.5s-71.833 -82.5 -122.5 -82.5s-90.334 29 -119.001 87s-43 139.667 -43 245c0 108 15 190.667 45 248s72 86 126 86zM194.001 592
c-30 0 -52.501 -24.168 -67.501 -72.501s-22.5 -113.166 -22.5 -194.499c0 -82.667 7.5 -147.834 22.5 -195.501s37.833 -71.5 68.5 -71.5c57.333 0 86 89 86 267c0 80.667 -7.16699 145.334 -21.5 194.001s-36.166 73 -65.499 73z" />
    <glyph glyph-name="one" unicode="1" horiz-adv-x="385" 
d="M188 0v572h-2l-108 -62l-15 60l137 80h64v-650h-76z" />
    <glyph glyph-name="two" unicode="2" horiz-adv-x="385" 
d="M345 0l-313.003 0.00195312v50l55 75c30 41.333 50.5 70.333 61.5 87s27.333 43 49 79s36.834 68.667 45.501 98s13 58.333 13 87c0 36.667 -8 65.167 -24 85.5s-39 30.5 -69 30.5c-7.33301 0 -14.666 -0.666992 -21.999 -2s-13.666 -2.83301 -18.999 -4.5
s-11.166 -4.16699 -17.499 -7.5l-14 -7.5c-3 -1.66699 -7.16699 -4.33398 -12.5 -8.00098s-8.33301 -5.83398 -9 -6.50098l-19 58c35.333 29.333 77.666 44 126.999 44c51.333 0 90 -16.667 116 -50s39 -76 39 -128c0 -54.667 -13.833 -109.167 -41.5 -163.5
s-67.167 -116.5 -118.5 -186.5l-44 -60v-2h217v-68z" />
    <glyph glyph-name="three" unicode="3" horiz-adv-x="385" 
d="M28 22l16.9971 61.001c30 -18 61.333 -27 94 -27c34 0 61.167 11.667 81.5 35s30.5 55 30.5 95c0 42 -12 74.833 -36 98.5s-55.667 35.5 -95 35.5h-18v58h15c28 0.666992 54.5 11.167 79.5 31.5s37.5 48.5 37.5 84.5c0 32 -7.83301 56.667 -23.5 74s-36.5 26 -62.5 26
c-25.333 0 -52.333 -10.333 -81 -31l-17 58c31.333 24.667 70.333 37 117 37c44.667 0 79.834 -14.167 105.501 -42.5s38.5 -64.166 38.5 -107.499c0 -32.667 -8.33301 -62.5 -25 -89.5s-40.667 -47.833 -72 -62.5v-2c32.667 -8.66699 59.834 -27.334 81.501 -56.001
s32.5 -66.667 32.5 -114c0 -54.667 -16.667 -100.334 -50 -137.001s-78.666 -55 -135.999 -55c-47.333 0 -85.333 10 -114 30z" />
    <glyph glyph-name="four" unicode="4" horiz-adv-x="385" 
d="M304 0h-70v179h-216v52l211 419h75v-408h71v-63h-71v-179zM91 242h143v184c0 28 2 70.667 6 128h-4c-18.667 -44 -37 -85 -55 -123l-90 -187v-2z" />
    <glyph glyph-name="five" unicode="5" horiz-adv-x="385" 
d="M333 650l0.000976562 -67.998h-175l-27 -173c5.33301 1.33301 13.333 2 24 2c19.333 0 40.833 -4.16699 64.5 -12.5s43.5 -20.5 59.5 -36.5c36 -36 54 -85.333 54 -148c0 -64.667 -18.333 -117.834 -55 -159.501s-84 -62.5 -142 -62.5
c-44.667 0 -81.334 9.33301 -110.001 28l17 62c28.667 -17.333 59 -26 91 -26c34.667 0 63.834 13.167 87.501 39.5s35.5 63.166 35.5 110.499c0 49.333 -13.333 86 -40 110s-62.334 36 -107.001 36c-22 0 -39 -1 -51 -3l41 301h233z" />
    <glyph glyph-name="six" unicode="6" horiz-adv-x="385" 
d="M319 658v-65.001c-13.333 -1.33301 -28.666 -3.66602 -45.999 -6.99902c-90 -21.333 -145.667 -99.333 -167 -234h3c28 41.333 64.667 62 110 62c42 0 75.833 -18 101.5 -54s38.5 -84.667 38.5 -146c0 -64 -14.167 -117 -42.5 -159s-67.5 -63 -117.5 -63
c-54.667 0 -96.667 24.5 -126 73.5s-44 112.5 -44 190.5c0 119.333 28 217 84 293c18.667 26.667 42.167 49 70.5 67s57.166 30 86.499 36c10.667 2 27 4 49 6zM199 51.999c24 0 43.833 12.668 59.5 38.001s23.5 64.666 23.5 117.999c0 48 -7.66699 84.5 -23 109.5
s-36.666 37.5 -63.999 37.5c-37.333 0 -65.333 -23.333 -84 -70c-4 -9.33301 -6 -22.333 -6 -39c0.666992 -64 9.66699 -112.333 27 -145s39.666 -49 66.999 -49z" />
    <glyph glyph-name="seven" unicode="7" horiz-adv-x="385" 
d="M37 650h313v-46l-210 -604h-75l206 580v2h-234v68z" />
    <glyph glyph-name="eight" unicode="8" horiz-adv-x="385" 
d="M190 -8c-50.667 0 -90.333 16.832 -119 50.499s-43 72.5 -43 116.5c0 74 35.667 136 107 186l-1 2c-26.667 18 -47.5 40.333 -62.5 67s-22.5 54 -22.5 82c0 48.667 14.833 87.834 44.5 117.501s65.5 44.5 107.5 44.5c44 0 78.167 -15.333 102.5 -46
s36.5 -66.334 36.5 -107.001c0 -62.667 -29 -113.667 -87 -153v-3c69.333 -46 104 -105 104 -177c0 -51.333 -15.5 -94.166 -46.5 -128.499s-71.167 -51.5 -120.5 -51.5zM193.001 48.999c25.333 0 46.333 9.99902 63 29.999s25 49.333 25 88c0 59.333 -31 109.333 -93 150
c-26 -16 -46.5 -37 -61.5 -63s-22.5 -53.333 -22.5 -82c0 -37.333 8 -67.166 24 -89.499s37.667 -33.5 65 -33.5zM195.001 600.998c-21.333 0 -38.667 -9.33301 -52 -28s-20 -42.667 -20 -72c0 -30 7.16699 -54.333 21.5 -73s33.833 -36 58.5 -52
c43.333 31.333 65 71.333 65 120c0 32 -6.33301 57.5 -19 76.5s-30.667 28.5 -54 28.5z" />
    <glyph glyph-name="nine" unicode="9" horiz-adv-x="385" 
d="M67 -8l-0.000976562 66c15.333 0 31.333 2 48 6c34.667 8.66699 64.334 25.667 89.001 51c40.667 45.333 66 107 76 185h-3c-28.667 -36.667 -63.667 -55 -105 -55s-75.333 17.667 -102 53s-40 82 -40 140c0 61.333 15.167 113.333 45.5 156s69.833 64 118.5 64
c53.333 0 93.833 -24.5 121.5 -73.5s41.5 -111.5 41.5 -187.5c0 -124 -28.667 -224.333 -86 -301c-38 -52 -88 -85 -150 -99c-17.333 -3.33301 -35.333 -5 -54 -5zM189.999 598c-22.667 0 -42.334 -12.667 -59.001 -38s-25 -63.666 -25 -114.999c0 -46.667 8 -82 24 -106
s37.333 -36 64 -36c16 0 31.333 5.16699 46 15.5s26 24.5 34 42.5c4 11.333 6 25.333 6 42c0 65.333 -8.16699 114.166 -24.5 146.499s-38.166 48.5 -65.499 48.5z" />
    <glyph glyph-name="colon" unicode=":" horiz-adv-x="194" 
d="M100 359c-14.667 0 -26.667 5.16504 -36 15.498s-14 23.833 -14 40.5s4.83301 30.334 14.5 41.001s21.5 16 35.5 16c15.333 0 27.5 -5.16699 36.5 -15.5s13.5 -24.166 13.5 -41.499c0 -16.667 -4.33301 -30.167 -13 -40.5s-21 -15.5 -37 -15.5zM100 -8.00195
c-14.667 0 -26.667 5.16504 -36 15.498s-14 23.833 -14 40.5s4.83301 30.334 14.5 41.001s21.5 16 35.5 16c15.333 0 27.5 -5.16699 36.5 -15.5s13.5 -24.166 13.5 -41.499c0 -16.667 -4.33301 -30.167 -13 -40.5s-21 -15.5 -37 -15.5z" />
    <glyph glyph-name="semicolon" unicode=";" horiz-adv-x="194" 
d="M69 -119l-50.999 -7.00098c26.667 74.667 46 152.334 58 233.001l85 10c-10.667 -40.667 -25.334 -84.5 -44.001 -131.5s-34.667 -81.833 -48 -104.5zM111.001 358.999c-14.667 0 -26.667 5.16504 -36 15.498s-14 23.833 -14 40.5s4.83301 30.334 14.5 41.001
s21.5 16 35.5 16c15.333 0 27.5 -5.16699 36.5 -15.5s13.5 -24.166 13.5 -41.499c0 -16.667 -4.33301 -30.167 -13 -40.5s-21 -15.5 -37 -15.5z" />
    <glyph glyph-name="less" unicode="&#x3c;" horiz-adv-x="596" 
d="M66 242v48l464 242v-67l-388 -198v-2l388 -199v-66z" />
    <glyph glyph-name="equal" unicode="=" horiz-adv-x="596" 
d="M556 336h-516v55h516v-55zM556 147h-516v55h516v-55z" />
    <glyph glyph-name="greater" unicode="&#x3e;" horiz-adv-x="596" 
d="M530 295v-58l-464 -237v66l400 199v2l-400 199v66z" />
    <glyph glyph-name="question" unicode="?" horiz-adv-x="309" 
d="M173 181h-68.002l-2 15c-10.667 63.333 3.33301 126.666 42 189.999c2 4 5.83301 10.833 11.5 20.5l11.5 19.5c2 3.33301 5.16699 9 9.5 17s7.33301 14 9 18s3.83398 9.5 6.50098 16.5s4.5 13.167 5.5 18.5s2 11.333 3 18s1.5 13.334 1.5 20.001
c0 27.333 -7 47.666 -21 60.999s-32.667 20 -56 20c-27.333 0 -49.333 -6.33301 -66 -19l-16 60c25.333 17.333 58.333 26 99 26c46.667 0 81.5 -13.167 104.5 -39.5s34.5 -59.166 34.5 -98.499c0 -14 -1.16699 -27.333 -3.5 -40s-7 -26.5 -14 -41.5l-15.5 -32.5
c-3.33301 -6.66699 -10.666 -19.167 -21.999 -37.5s-18 -28.833 -20 -31.5c-16 -28 -26.667 -54 -32 -78s-6.33301 -52.333 -3 -85zM134.998 -8c-14.667 0 -26.667 5.16504 -36 15.498s-14 23.5 -14 39.5c0 16.667 4.83301 30.334 14.5 41.001s21.5 16 35.5 16
c15.333 0 27.5 -5.16699 36.5 -15.5s13.5 -24.166 13.5 -41.499c0 -16.667 -4.5 -30 -13.5 -40s-21.167 -15 -36.5 -15z" />
    <glyph glyph-name="at" unicode="@" horiz-adv-x="590" 
d="M348 233l29 145.999c-6 3.33301 -15.333 5 -28 5c-36.667 0 -68.5 -21.833 -95.5 -65.5s-40.5 -91.167 -40.5 -142.5c0 -42 13.333 -63 40 -63c20 0 39.333 12.333 58 37s31 52.334 37 83.001zM409 -25.001l11.9971 -35.001c-41.333 -25.333 -90.666 -38 -147.999 -38
c-69.333 0 -126.333 24.333 -171 73s-67 119.334 -67 212.001c0 72.667 13.667 140 41 202s65.333 111.333 114 148s102.334 55 161.001 55c66 0 117.333 -22 154 -66s55 -101.333 55 -172c0 -92 -14.167 -163.167 -42.5 -213.5s-65.5 -75.5 -111.5 -75.5
c-19.333 0 -34.333 6.83301 -45 20.5s-15 33.5 -13 59.5h-3c-28.667 -53.333 -65 -80 -109 -80c-24 0 -43.5 9.5 -58.5 28.5s-22.5 45.833 -22.5 80.5c0 62.667 19.333 120.667 58 174s90.667 80 156 80c26.667 0 50 -4.66699 70 -14l-40 -202
c-13.333 -70 -6.33301 -105 21 -105c25.333 0 47.5 21.5 66.5 64.5s28.5 97.5 28.5 163.5c0 145.333 -57 218 -171 218c-71.333 0 -133.166 -34.667 -185.499 -104s-78.5 -157 -78.5 -263c0 -80 18 -140.5 54 -181.5s86.667 -61.5 152 -61.5c42.667 0 83.667 10.667 123 32z
" />
    <glyph glyph-name="A" unicode="A" horiz-adv-x="435" 
d="M290 202h-149l-45 -202h-74l154 674h85l150 -674h-76zM152 264h128l-35 171c-6.66699 32.667 -15.667 84 -27 154h-4c-9.33301 -58.667 -18.333 -110 -27 -154z" />
    <glyph glyph-name="B" unicode="B" horiz-adv-x="416" 
d="M60 3v660.999c34.667 8.66699 72.334 13 113.001 13c66 0 115.667 -15.667 149 -47c29.333 -27.333 44 -65.666 44 -114.999c0 -34.667 -9.16699 -65.167 -27.5 -91.5s-43.833 -45.833 -76.5 -58.5v-2c39.333 -10.667 70 -31 92 -61s33 -67 33 -111
c0 -54 -16 -98.667 -48 -134c-36 -40.667 -95.333 -61 -178 -61c-42.667 0 -76.334 2.33301 -101.001 7zM137 611.999v-224h35c32 0 59.5 11.167 82.5 33.5s34.5 50.833 34.5 85.5c0 73.333 -37 110 -111 110c-17.333 0 -31 -1.66699 -41 -5zM137 328.999
l-0.000976562 -268.001c12 -2.66699 25 -4 39 -4c40.667 0 72.834 11.667 96.501 35s35.5 56.333 35.5 99c0 44 -13.167 77.833 -39.5 101.5s-58.833 35.834 -97.5 36.501h-34z" />
    <glyph glyph-name="C" unicode="C" horiz-adv-x="373" 
d="M342 77l12 -65c-22.667 -12 -54.667 -18 -96 -18c-68.667 0 -123.5 28.167 -164.5 84.5s-61.5 139.833 -61.5 250.5c0 63.333 7.33301 118.833 22 166.5s34 84.334 58 110.001s49.167 44.5 75.5 56.5s53.833 18 82.5 18c38.667 0 66.667 -5.66699 84 -17l-17 -65
c-21.333 9.33301 -44 14 -68 14c-42 0 -78.5 -22.333 -109.5 -67s-46.5 -114.334 -46.5 -209.001c0 -96 14.833 -165.667 44.5 -209s67.5 -65 113.5 -65c27.333 0 51 5 71 15z" />
    <glyph glyph-name="D" unicode="D" horiz-adv-x="445" 
d="M60 3l-0.000976562 661c28.667 8.66699 63.334 13 104.001 13c67.333 0 120 -17 158 -51c60.667 -52.667 91 -143.667 91 -273c0 -131.333 -27 -226 -81 -284c-42.667 -48.667 -104.667 -73 -186 -73c-36 0 -64.667 2.33301 -86 7zM136.999 610l-0.00195312 -547
c7.33301 -1.33301 17 -2 29 -2c22.667 0 43.334 4.5 62.001 13.5s36.334 24 53.001 45s29.5 51.167 38.5 90.5s13.5 86.333 13.5 141c0 175.333 -53.333 263 -160 263c-15.333 0 -27.333 -1.33301 -36 -4z" />
    <glyph glyph-name="E" unicode="E" horiz-adv-x="354" 
d="M306 385v-65h-169v-253h192v-67h-269v674h257v-67h-180v-222h169z" />
    <glyph glyph-name="F" unicode="F" horiz-adv-x="345" 
d="M60 0v674h257v-67h-180v-236h168v-65h-168v-306h-77z" />
    <glyph glyph-name="G" unicode="G" horiz-adv-x="436" 
d="M392 352l-0.000976562 -335c-37.333 -15.333 -77.333 -23 -120 -23c-66.667 0 -119.667 22 -159 66c-54.667 58.667 -81.667 148 -81 268c0 62.667 7.66699 117.667 23 165s35.5 84 60.5 110s51.833 45.333 80.5 58s58.667 19 90 19c40 0 72 -6.33301 96 -19l-17 -66
c-21.333 10.667 -47.333 16 -78 16c-48.667 0 -90 -22 -124 -66s-51 -114 -51 -210s15.167 -165.833 45.5 -209.5s68.5 -65.5 114.5 -65.5c20.667 0 36.334 2.66699 47.001 8v220h-87v64h160z" />
    <glyph glyph-name="H" unicode="H" horiz-adv-x="463" 
d="M60 674h77v-289h189v289h77v-674h-77v315h-189v-315h-77v674z" />
    <glyph glyph-name="I" unicode="I" horiz-adv-x="199" 
d="M60 674h77v-674h-77v674z" />
    <glyph glyph-name="J" unicode="J" horiz-adv-x="265" 
d="M134 189v484.999h77v-484c0 -72 -13.5 -123 -40.5 -153s-66.167 -45 -117.5 -45c-21.333 0 -38 2.33301 -50 7l7 65c8.66699 -2.66699 21 -4 37 -4c30 0 52 8.83301 66 26.5s21 51.834 21 102.501z" />
    <glyph glyph-name="K" unicode="K" horiz-adv-x="404" 
d="M60 0v674h77v-320h2l42 81l126 239h85l-165 -288l169 -386h-83l-138 325l-38 -65v-260h-77z" />
    <glyph glyph-name="L" unicode="L" horiz-adv-x="344" 
d="M60 0v674h77v-609h190v-65h-267z" />
    <glyph glyph-name="M" unicode="M" horiz-adv-x="599" 
d="M482 0l-14 290.002c-6.66699 121.333 -9 209.333 -7 264h-4c-16.667 -83.333 -34.667 -161.333 -54 -234l-83 -316h-49l-79 303c-26.667 103.333 -45 185.666 -55 246.999h-3c0 -51.333 -2.66699 -141 -8 -269l-13 -285h-69l40 674h83l79 -308
c26.667 -102.667 44.667 -180 54 -232h3c9.33301 55.333 26 132.666 50 231.999l76 308h86l39 -674h-72z" />
    <glyph glyph-name="N" unicode="N" horiz-adv-x="465" 
d="M130 0l-69.999 0.000976562v674h73l124 -316c42 -108 70.667 -186.333 86 -235h2c-6 106 -9 209.333 -9 310v241h69v-674h-73l-128 324c-34.667 87.333 -61.334 163.666 -80.001 228.999h-2c5.33301 -80 8 -186.667 8 -320v-233z" />
    <glyph glyph-name="O" unicode="O" horiz-adv-x="446" 
d="M230 682c57.333 0 102.333 -29.833 135 -89.5s49 -143.167 49 -250.5c0 -120 -18 -208.333 -54 -265s-83 -85 -141 -85c-57.333 0 -102.833 29.833 -136.5 89.5s-50.5 145.167 -50.5 256.5c0 109.333 18 194 54 254s84 90 144 90zM223 614
c-38.667 0 -66.833 -26.666 -84.5 -79.999s-26.5 -119 -26.5 -197c0 -50 3.16699 -94.833 9.5 -134.5s18.333 -73.334 36 -101.001s39.834 -41.5 66.501 -41.5c27.333 0 49.666 14.667 66.999 44s28.833 63.5 34.5 102.5s8.5 83.167 8.5 132.5c0 34.667 -1.66699 67 -5 97
s-9 59 -17 87s-19.667 50.167 -35 66.5s-33.333 24.5 -54 24.5z" />
    <glyph glyph-name="P" unicode="P" horiz-adv-x="399" 
d="M60 0v664c33.333 8.66699 70.666 13 111.999 13c66 0 115.667 -16.667 149 -50c33.333 -32 50 -78.333 50 -139c0 -56 -13.667 -102 -41 -138c-37.333 -50 -90.333 -75 -159 -75c-15.333 0 -26.666 0.333008 -33.999 1v-276h-77zM137 609l-0.000976562 -268
c9.33301 -2 19.333 -3 30 -3c38.667 0 69.5 12.5 92.5 37.5s34.5 60.833 34.5 107.5c0 38 -9 69.333 -27 94s-47 37 -87 37c-17.333 0 -31.666 -1.66699 -42.999 -5z" />
    <glyph glyph-name="Q" unicode="Q" horiz-adv-x="446" 
d="M429 -29l-27.999 -61.999c-60.667 25.333 -112.334 49.666 -155.001 72.999c-13.333 6.66699 -21.666 10 -24.999 10c-58 0 -104 29.167 -138 87.5s-51 144.5 -51 258.5c0 110 18 194.833 54 254.5s84.333 89.5 145 89.5c57.333 0 102.166 -30 134.499 -90
s48.5 -143.333 48.5 -250c0 -176 -38.333 -282.333 -115 -319v-4c14 -6 57.333 -22 130 -48zM225.001 60.001c20.667 0 38.3359 7.99707 53.0029 23.9971s26 38 34 66s13.667 57.5 17 88.5s5 64.5 5 100.5c0 34.667 -1.66699 67.334 -5 98.001s-9 59.834 -17 87.501
s-19.333 49.5 -34 65.5s-32.334 24 -53.001 24s-38.667 -8.16699 -54 -24.5s-27.166 -38.166 -35.499 -65.499s-14.333 -56.5 -18 -87.5s-5.5 -63.833 -5.5 -98.5c0 -36 1.66699 -69.5 5 -100.5s9.16602 -60.333 17.499 -88s20.166 -49.5 35.499 -65.5
s33.666 -24 54.999 -24z" />
    <glyph glyph-name="R" unicode="R" horiz-adv-x="409" 
d="M60 0l0.000976562 664c32 8.66699 69 13 111 13c68.667 0 119.334 -16 152.001 -48c31.333 -32 47 -76 47 -132c0 -82.667 -36 -140.334 -108 -173.001v-2c24.667 -7.33301 44.167 -23.166 58.5 -47.499s25.166 -58.833 32.499 -103.5c14 -88 26.667 -145 38 -171h-78
c-9.33301 19.333 -21.333 75 -36 167c-7.33301 46 -19.333 78.667 -36 98s-41.334 29 -74.001 29h-30v-294h-77zM137.001 611l-0.000976562 -258.001h32c36.667 0 66.334 12.333 89.001 37s34 57.334 34 98.001c0 84 -38.333 126.333 -115 127
c-18 0 -31.333 -1.33301 -40 -4z" />
    <glyph glyph-name="S" unicode="S" horiz-adv-x="361" 
d="M28 23l17.0029 66.0039c27.333 -18 59.666 -27 96.999 -27c34.667 0 62 10.333 82 31s30 48.334 30 83.001c0 28.667 -7.33301 53.5 -22 74.5s-37 42.833 -67 65.5c-84.667 59.333 -127 121.666 -127 186.999c0 51.333 16.5 93.666 49.5 126.999s75.833 50 128.5 50
c41.333 0 73 -8.33301 95 -25l-19 -66c-22 15.333 -48.667 23 -80 23c-30.667 0 -54.5 -9.66699 -71.5 -29s-25.5 -41.666 -25.5 -66.999c0 -30.667 7.16699 -54.834 21.5 -72.501s40.166 -39.834 77.499 -66.501c78 -54.667 117 -119.334 117 -194.001
c0 -56.667 -17.833 -102.334 -53.5 -137.001s-80.834 -52 -135.501 -52c-22 0 -44 3 -66 9s-38 12.667 -48 20z" />
    <glyph glyph-name="T" unicode="T" horiz-adv-x="354" 
d="M139 0v605h-123v69h323v-69h-123v-605h-77z" />
    <glyph glyph-name="U" unicode="U" horiz-adv-x="457" 
d="M59 674h77v-452c0 -108 30.667 -162 92 -162c62 0 93 54 93 162v452h77v-440c0 -83.333 -15.333 -144.5 -46 -183.5s-72.667 -58.5 -126 -58.5c-111.333 0 -167 77.667 -167 233v449z" />
    <glyph glyph-name="V" unicode="V" horiz-adv-x="421" 
d="M249 0l-79 -0.000976562l-154 674h82l66 -316c23.333 -111.333 39.333 -197.666 48 -258.999h3c6.66699 56.667 21.667 143.667 45 261l64 314h82z" />
    <glyph glyph-name="W" unicode="W" horiz-adv-x="654" 
d="M222 0l-72.001 0.00195312l-130 674h80l57 -325c15.333 -93.333 26.333 -174.333 33 -243h4c4 39.333 17.333 120.666 40 243.999l62 324h66l62 -317c20.667 -108.667 33.667 -192.334 39 -251.001h3c8 68.667 20 151 36 247l56 321h75l-131 -674h-75l-65 328
c-16.667 90 -28 163.667 -34 221h-2c-11.333 -88 -23.666 -162.667 -36.999 -224z" />
    <glyph glyph-name="X" unicode="X" horiz-adv-x="392" 
d="M378 0h-80.998l-61 162c-12 32 -25.667 71.333 -41 118h-3c-18.667 -56 -32.334 -96 -41.001 -120l-58 -160h-79l139 344l-134 330h80l60 -156c5.33301 -13.333 18.666 -49 39.999 -107h2l36 110l55 153h79l-132 -328z" />
    <glyph glyph-name="Y" unicode="Y" horiz-adv-x="394" 
d="M235 0l-77 -0.000976562v285l-148 389h81l60 -169c20 -56 36.667 -106.667 50 -152h2c10.667 40.667 27 92.334 49 155.001l57 166h81l-155 -386v-288z" />
    <glyph glyph-name="Z" unicode="Z" horiz-adv-x="358" 
d="M20 0v46l231 559v3h-212v66h298v-52l-227 -553v-3h226v-66h-316z" />
    <glyph glyph-name="bracketleft" unicode="[" horiz-adv-x="253" 
d="M223 -112h-149v794h149v-53h-87v-688h87v-53z" />
    <glyph glyph-name="backslash" unicode="\" horiz-adv-x="263" 
d="M255 -40h-58l-196 722h58z" />
    <glyph glyph-name="bracketright" unicode="]" horiz-adv-x="253" 
d="M31 686h148v-798h-148v53h86v692h-86v53z" />
    <glyph glyph-name="asciicircum" unicode="^" horiz-adv-x="596" 
d="M532 189h-65l-168 388h-3l-168 -388h-64l206 461h56z" />
    <glyph glyph-name="underscore" unicode="_" horiz-adv-x="500" 
d="M0 -75h500v-50h-500v50z" />
    <glyph glyph-name="grave" unicode="`" 
d="M39 682h79l77 -135h-51z" />
    <glyph glyph-name="a" unicode="a" horiz-adv-x="364" 
d="M315 0l-70.001 -0.000976562l-5 51h-3c-22 -39.333 -54 -59 -96 -59c-32.667 0 -60 12.833 -82 38.5s-33 58.834 -33 99.501c0 57.333 19.667 100.833 59 130.5s88.333 44.834 147 45.501v15c0 35.333 -5.66699 62.5 -17 81.5s-31.333 28.5 -60 28.5
c-28 0 -54.667 -8.33301 -80 -25l-17 54c28.667 21.333 66.334 32 113.001 32c92.667 0 139 -57.667 139 -173v-209c0 -52.667 1.66699 -89.334 5 -110.001zM233.999 151.999v98c-88.667 0 -133 -37.333 -133 -112c0 -28.667 6 -50.167 18 -64.5s25.667 -21.5 41 -21.5
c17.333 0 32.5 6.33301 45.5 19s21.833 30.667 26.5 54c1.33301 6 2 15 2 27z" />
    <glyph glyph-name="b" unicode="b" horiz-adv-x="399" 
d="M115 0h-66c2.66699 74.667 4 113.334 4 116.001v576h77v-265h2c22.667 43.333 56.667 65 102 65c38.667 0 70.334 -21.667 95.001 -65s37 -103.333 37 -180c0 -82.667 -14.333 -145.834 -43 -189.501s-63.334 -65.5 -104.001 -65.5c-42 0 -74 23.667 -96 71h-3zM130 306
v-135c0 -14.667 1 -24.667 3 -30c14 -56.667 38 -85 72 -85c56 0 84 62.333 84 187c0 53.333 -6.83301 97.166 -20.5 131.499s-35.167 51.5 -64.5 51.5c-17.333 0 -32.833 -8.83301 -46.5 -26.5s-22.167 -37.5 -25.5 -59.5c-1.33301 -7.33301 -2 -18.666 -2 -33.999z" />
    <glyph glyph-name="c" unicode="c" horiz-adv-x="302" 
d="M280 71l10.001 -59c-20.667 -12 -47.334 -18 -80.001 -18c-54 0 -97 21.167 -129 63.5s-48 102.833 -48 181.5c0 72 17.167 132 51.5 180s80.833 72 139.5 72c28 0 50.667 -5 68 -15l-15 -63c-17.333 8.66699 -35.666 13 -54.999 13c-36 0 -63.667 -18.167 -83 -54.5
s-29 -80.5 -29 -132.5c0 -56.667 10.167 -101 30.5 -133s48.166 -48 83.499 -48c18 0 36.667 4.33301 56 13z" />
    <glyph glyph-name="d" unicode="d" horiz-adv-x="399" 
d="M269 692l76 0.00195312v-576c0 -2.66699 1.33301 -41.334 4 -116.001h-66l-5 61h-3c-21.333 -46 -55 -69 -101 -69c-42 0 -76 21.833 -102 65.5s-39 104.5 -39 182.5c0 81.333 14.167 143.666 42.5 186.999s62.833 65 103.5 65s70 -19.333 88 -58h2v258zM269 171.002
l0.000976562 128.999c0 14 -0.333008 24.667 -1 32c-2.66699 25.333 -10.834 47.333 -24.501 66s-29.5 28 -47.5 28c-30 0 -51.833 -17.5 -65.5 -52.5s-20.5 -79.5 -20.5 -133.5s7 -98.167 21 -132.5s34.333 -51.5 61 -51.5c36 0 60.667 27.667 74 83
c2 8.66699 3 19.334 3 32.001z" />
    <glyph glyph-name="e" unicode="e" horiz-adv-x="363" 
d="M333 235l-225.002 0.000976562c0.666992 -120 39 -180 115 -180c31.333 0 58 6.33301 80 19l12 -57c-27.333 -15.333 -62.666 -23 -105.999 -23c-56.667 0 -100.167 21.667 -130.5 65s-45.5 102.666 -45.5 177.999c0 78 15 140 45 186s69.333 69 118 69
c46.667 0 81.334 -20.5 104.001 -61.5s34 -91.833 34 -152.5c0 -20.667 -0.333008 -35 -1 -43zM108.998 292.001h151c0.666992 45.333 -6 80 -20 104s-31.333 36 -52 36c-23.333 0 -41.833 -14.167 -55.5 -42.5s-21.5 -60.833 -23.5 -97.5z" />
    <glyph glyph-name="f" unicode="f" horiz-adv-x="228" 
d="M147 0l-77 -0.000976562v425h-61v59h61v29c0 64.667 14.333 113.334 43 146.001c24.667 27.333 57 41 97 41c24 0 44 -4 60 -12l-13 -60c-12 5.33301 -26 8 -42 8c-45.333 0 -68 -40.667 -68 -122v-30h88v-59h-88v-425z" />
    <glyph glyph-name="g" unicode="g" horiz-adv-x="399" 
d="M281 484l69.001 -0.000976562c-2.66699 -90.667 -4 -141 -4 -151v-271c0 -60.667 -3.83301 -106.167 -11.5 -136.5s-19.834 -54.833 -36.501 -73.5c-30.667 -34.667 -73.667 -52 -129 -52c-42 0 -77.333 8 -106 24l18 60c26.667 -14 56.667 -21 90 -21
c66 0 99 49.333 99 148v49h-2c-17.333 -39.333 -48.333 -59 -93 -59c-42.667 0 -77 22 -103 66s-39 101.667 -39 173c0 82.667 15.333 145.334 46 188.001s66 64 106 64s70 -21 90 -63h2zM270.001 176.999l-0.000976562 139.997c0 14.667 -1.33301 26.334 -4 35.001
c-13.333 49.333 -36.666 74 -69.999 74c-27.333 0 -48.5 -16.667 -63.5 -50s-22.5 -77.333 -22.5 -132c0 -59.333 8 -104.166 24 -134.499s36.667 -45.5 62 -45.5c33.333 0 56.333 23 69 69c3.33301 12.667 5 27.334 5 44.001z" />
    <glyph glyph-name="h" unicode="h" horiz-adv-x="405" 
d="M54 0v691.999h77v-260h2c10 16.667 23.333 30.667 40 42c19.333 12 41 18 65 18c33.333 0 60.5 -14.167 81.5 -42.5s31.5 -71.166 31.5 -128.499v-321h-77v312c0 76.667 -21.667 115 -65 115c-38 0 -63 -25.667 -75 -77c-2 -10.667 -3 -23 -3 -37v-313h-77z" />
    <glyph glyph-name="i" unicode="i" horiz-adv-x="184" 
d="M131 0h-77v484h77v-484zM91 659c14 0 25.167 -4.5 33.5 -13.5s12.5 -21.167 12.5 -36.5c0.666992 -14.667 -3.33301 -26.667 -12 -36s-20.334 -14 -35.001 -14c-12.667 0 -23.167 4.66699 -31.5 14s-12.5 21.333 -12.5 36s4.33301 26.667 13 36s19.334 14 32.001 14z" />
    <glyph glyph-name="j" unicode="j" horiz-adv-x="188" 
d="M-18 -200l-10.001 61c32 8.66699 53.667 21.334 65 38.001c15.333 23.333 23 74.666 23 153.999v431h77v-453c0 -50 -3.83301 -88.667 -11.5 -116s-20.167 -50.333 -37.5 -69c-13.333 -14 -30.166 -25 -50.499 -33s-38.833 -12.333 -55.5 -13zM98.999 659
c13.333 0 24.168 -4.5 32.501 -13.5s12.5 -21.167 12.5 -36.5s-4.16699 -27.5 -12.5 -36.5s-19.833 -13.5 -34.5 -13.5c-12.667 0 -23.334 4.66699 -32.001 14s-12.667 21.333 -12 36c-0.666992 14.667 3.33301 26.667 12 36s20 14 34 14z" />
    <glyph glyph-name="k" unicode="k" horiz-adv-x="354" 
d="M130 692v-433h2c15.333 32.667 24 50.667 26 54l96 171h83l-128 -204l139 -280h-86l-105 228l-27 -45v-183h-77v692h77z" />
    <glyph glyph-name="l" unicode="l" horiz-adv-x="191" 
d="M54 0v692h77v-692h-77z" />
    <glyph glyph-name="m" unicode="m" horiz-adv-x="620" 
d="M54 0l0.000976562 359.003c0 22 -0.666992 47 -2 75s-2 44.667 -2 50h67l4 -60h2c24.667 45.333 61 68 109 68c50 0 83.667 -24.667 101 -74h2c12.667 24 28.667 42.333 48 55c18.667 12.667 41 19 67 19c34.667 0 62.667 -13.833 84 -41.5s32 -70.834 32 -129.501v-321
h-76v303c0 38 -4.66699 68.167 -14 90.5s-27.333 33.5 -54 33.5c-16 0 -30.5 -6.5 -43.5 -19.5s-22.167 -30.5 -27.5 -52.5c-2 -12.667 -3 -27.334 -3 -44.001v-311h-76v317c0 73.333 -22.333 110 -67 110c-16.667 0 -31.834 -6.83301 -45.501 -20.5
s-22.5 -32.834 -26.5 -57.501c-2 -12.667 -3 -26.667 -3 -42v-307h-76z" />
    <glyph glyph-name="n" unicode="n" horiz-adv-x="405" 
d="M54 0l0.00292969 359c0 22 -0.666992 47 -2 75s-2 44.667 -2 50h67l4 -58h2c24 44 61 66 111 66c35.333 0 63.666 -13.833 84.999 -41.5s32 -69.5 32 -125.5v-325h-77v312c0 76.667 -22.333 115 -67 115c-16.667 0 -31.834 -6.83301 -45.501 -20.5
s-22.834 -33.167 -27.501 -58.5c-2 -12 -3 -26.333 -3 -43v-305h-77z" />
    <glyph glyph-name="o" unicode="o" horiz-adv-x="383" 
d="M195 492c45.333 0 82.668 -21.499 112.001 -64.499s44 -104.833 44 -185.5c0 -86 -16 -149.167 -48 -189.5s-69.667 -60.5 -113 -60.5c-46 0 -83.667 21.167 -113 63.5s-44 104.166 -44 185.499c0 83.333 15.667 146 47 188s69.666 63 114.999 63zM192.002 430.001
c-16 0 -29.8369 -6.16602 -41.5039 -18.499s-20.167 -28.5 -25.5 -48.5s-9.16602 -39.833 -11.499 -59.5s-3.5 -40.167 -3.5 -61.5c0 -22.667 1.16699 -44 3.5 -64s6.33301 -40 12 -60s14.334 -35.833 26.001 -47.5s25.834 -17.5 42.501 -17.5
c15.333 0 28.666 6.16699 39.999 18.5s19.5 28.666 24.5 48.999s8.66699 40.333 11 60s3.5 40.167 3.5 61.5s-1.16699 41.833 -3.5 61.5s-6.16602 39.5 -11.499 59.5s-13.666 36.167 -24.999 48.5s-25 18.5 -41 18.5z" />
    <glyph glyph-name="p" unicode="p" horiz-adv-x="399" 
d="M53 -192v525.001c0 10 -1.33301 60.333 -4 151h69l4 -62h2c23.333 46.667 57.333 70 102 70c42.667 0 76.667 -21.833 102 -65.5s38 -104.834 38 -183.501c0 -84 -14.5 -146.833 -43.5 -188.5s-64.5 -62.5 -106.5 -62.5c-38 0 -66 18.667 -84 56h-2v-240h-77z
M130 301.001v-123.001c0 -19.333 1 -32.666 3 -39.999c6.66699 -30.667 16.667 -52 30 -64s27 -18 41 -18c56 0 84 62 84 186c0 54 -7 98.167 -21 132.5s-35.333 51.5 -64 51.5c-16.667 0 -32 -9 -46 -27s-22.333 -38.333 -25 -61c-1.33301 -8 -2 -20.333 -2 -37z" />
    <glyph glyph-name="q" unicode="q" horiz-adv-x="399" 
d="M269 -192v241.999h-3c-18.667 -38.667 -49.667 -58 -93 -58c-40.667 0 -74.167 21.5 -100.5 64.5s-39.5 102.833 -39.5 179.5c0 81.333 14.667 144.333 44 189s65.333 67 108 67c40.667 0 70.667 -21.333 90 -64l2 -1l4 57h69c-2.66699 -45.333 -4 -95.666 -4 -150.999
v-525h-77zM269 177.999l-0.000976562 124.999c0 15.333 -0.666992 26 -2 32c-3.33301 25.333 -11.666 46.833 -24.999 64.5s-28.333 26.5 -45 26.5c-30 0 -52 -17.167 -66 -51.5s-21 -79.166 -21 -134.499c0 -54 7.16699 -98.167 21.5 -132.5s35.5 -51.5 63.5 -51.5
c34 0 57.333 27 70 81c2.66699 8 4 21.667 4 41z" />
    <glyph glyph-name="r" unicode="r" horiz-adv-x="248" 
d="M53 0l-0.000976562 359c0 16 -0.666992 39.833 -2 71.5s-2 49.5 -2 53.5h69l4 -76h2c8 24 21.5 44 40.5 60s39.5 24 61.5 24c2 0 4.83301 -0.166992 8.5 -0.5s6.16699 -0.5 7.5 -0.5v-79c-3.33301 0.666992 -8.66602 1 -15.999 1c-24 0 -44.5 -9.66699 -61.5 -29
s-27.5 -43.333 -31.5 -72c-2 -13.333 -3 -28 -3 -44v-268h-77z" />
    <glyph glyph-name="s" unicode="s" horiz-adv-x="289" 
d="M22 22l19 58.001c26 -16.667 52 -25 78 -25c22 0 39.333 6.33301 52 19s19 29.667 19 51c0 19.333 -4.33301 36 -13 50s-25 29 -49 45c-64.667 42 -97 88 -97 138c0 38.667 12.667 70.667 38 96s57 38 95 38c30 0 59 -8.33301 87 -25l-21 -58c-20.667 14 -42 21 -64 21
c-20 0 -35.5 -6 -46.5 -18s-16.5 -26.333 -16.5 -43s4 -30.667 12 -42s24 -25.333 48 -42c66.667 -42.667 100 -91.667 100 -147c0 -46.667 -13.667 -82.334 -41 -107.001s-62 -37 -104 -37c-40.667 0 -72.667 9.33301 -96 28z" />
    <glyph glyph-name="t" unicode="t" horiz-adv-x="255" 
d="M71 590l77 21.999v-128h93v-59h-93v-287c0 -53.333 17 -80 51 -80c11.333 0 21.666 1 30.999 3l3 -59c-14.667 -5.33301 -33.667 -8 -57 -8c-33.333 0 -58.666 9.66699 -75.999 29c-19.333 22.667 -29 63.334 -29 122.001v280h-59v59h59v106z" />
    <glyph glyph-name="u" unicode="u" horiz-adv-x="398" 
d="M344 484l-0.00292969 -351.999c0 -21.333 0.666992 -48.5 2 -81.5s2 -49.833 2 -50.5h-67l-5 51h-2c-9.33301 -14.667 -23.166 -28.167 -41.499 -40.5s-39.166 -18.5 -62.499 -18.5c-41.333 0 -71.333 15.5 -90 46.5s-28 77.5 -28 139.5v306h77v-295
c0 -42.667 4.66699 -75.334 14 -98.001s26.333 -34 51 -34c20 0 35.833 7 47.5 21s18.834 28.333 21.501 43c2.66699 11.333 4 26 4 44v319h77z" />
    <glyph glyph-name="v" unicode="v" horiz-adv-x="347" 
d="M13 484h80l61 -272c8.66699 -40 15.667 -79.333 21 -118h3c3.33301 24 10 63.333 20 118l60 272h76l-126 -484h-69z" />
    <glyph glyph-name="w" unicode="w" horiz-adv-x="566" 
d="M13 484l79.9971 -0.000976562l47 -237c16.667 -94.667 25.334 -146 26.001 -154h4c6 42.667 16 93.334 30 152.001l56 239h59l53 -232c14.667 -66.667 25 -119.667 31 -159h4c4.66699 42 13.334 94 26.001 156l46 235h77l-122 -484h-63l-56 235
c-9.33301 36 -18.333 84.333 -27 145h-2c-7.33301 -50 -16.666 -99.333 -27.999 -148l-58 -232h-65z" />
    <glyph glyph-name="x" unicode="x" horiz-adv-x="340" 
d="M14 484l83.001 0.00195312l45 -104l10.5 -26.5l11.5 -31.5c4 -11.333 7.33301 -20.333 10 -27h2c5.33301 15.333 16 43.666 32 84.999l44 104h79l-115 -239l114 -245h-84l-46 109c-5.33301 12 -16 39.667 -32 83h-2c-2.66699 -8.66699 -13.334 -36.334 -32.001 -83.001
l-45 -109h-78l115 243z" />
    <glyph glyph-name="y" unicode="y" horiz-adv-x="346" 
d="M13 484h81l64 -278c2.66699 -11.333 5.16699 -22.833 7.5 -34.5l7 -36.5c2.33301 -12.667 4.16602 -22.334 5.49902 -29.001h2c4.66699 25.333 11.667 58.333 21 99l57 279h76l-79 -311c-18 -74 -36 -136.167 -54 -186.5s-40 -92.166 -66 -125.499
c-28 -35.333 -57 -60 -87 -74l-28 66c23.333 12.667 46 33 68 61c18.667 23.333 33.334 50.333 44.001 81c3.33301 10 5 18 5 24c0 8 -0.666992 14 -2 18z" />
    <glyph glyph-name="z" unicode="z" horiz-adv-x="313" 
d="M16 0v47l153 299l19.5 35.5c9 16.333 15.5 28.5 19.5 36.5v2h-173v64h258v-51l-151 -295l-19.5 -35.5c-9 -16.333 -15.5 -28.5 -19.5 -36.5v-2h190v-64h-277z" />
    <glyph glyph-name="braceleft" unicode="{" horiz-adv-x="253" 
d="M29 262v49.9971c45.333 0 68 23.333 68 70c0 19.333 -2 47.666 -6 84.999c-4 40 -6 69.333 -6 88c0 42.667 11.5 74.667 34.5 96s53.5 32 91.5 32h12v-52h-15c-39.333 0 -59 -25 -59 -75c0 -18.667 2 -44 6 -76c3.33301 -43.333 5 -68 5 -74
c0.666992 -36.667 -4.83301 -63.667 -16.5 -81s-29.167 -29.333 -52.5 -36v-2c23.333 -7.33301 40.833 -19.666 52.5 -36.999s17.167 -44.666 16.5 -81.999c0 -8 -1.66699 -33 -5 -75c-4 -33.333 -6 -59 -6 -77c0 -50.667 20 -76 60 -76h14v-52h-13
c-36.667 0 -66.667 10.167 -90 30.5s-35 52.833 -35 97.5c0 20.667 2 50.334 6 89.001s6 67.334 6 86.001c0 47.333 -22.667 71 -68 71z" />
    <glyph glyph-name="bar" unicode="|" horiz-adv-x="201" 
d="M69 750h63v-1000h-63v1000z" />
    <glyph glyph-name="braceright" unicode="}" horiz-adv-x="253" 
d="M224 312v-49.9971c-45.333 0 -68 -23.667 -68 -71c0 -18.667 2 -47.334 6 -86.001s6 -68.334 6 -89.001c0 -44.667 -11.667 -77.167 -35 -97.5s-53.333 -30.5 -90 -30.5h-13v52h14c22 2.66699 37.5 10.167 46.5 22.5s13.5 30.166 13.5 53.499c0 10 -1.66699 35.667 -5 77
c-4 33.333 -6 58.333 -6 75c-0.666992 37.333 4.83301 64.666 16.5 81.999s29.167 29.666 52.5 36.999v2c-23.333 6.66699 -40.833 18.667 -52.5 36s-17.167 44.333 -16.5 81c0 14.667 2 39.334 6 74.001c3.33301 40 5 65.333 5 76c0 45.333 -19.667 70.333 -59 75h-15v52
h12c38 0 68.5 -10.667 91.5 -32s34.5 -53.333 34.5 -96c0 -18.667 -2 -48 -6 -88c-4 -37.333 -6 -65.666 -6 -84.999c0 -46.667 22.667 -70 68 -70z" />
    <glyph glyph-name="asciitilde" unicode="~" horiz-adv-x="596" 
d="M127 221h-54.001c-1.33301 42.667 8.16699 75.667 28.5 99s47.5 35 81.5 35c32 0 75 -14 129 -42c50.667 -26.667 87.667 -40 111 -40c32.667 0 48.334 26 47.001 78h54c2.66699 -44 -5.33301 -77.5 -24 -100.5s-45 -34.5 -79 -34.5c-35.333 0 -78.333 13.333 -129 40
c-54 28.667 -92.333 43 -115 43c-34 0 -50.667 -26 -50 -78z" />
    <glyph glyph-name="uni00A0" unicode="&#xa0;" horiz-adv-x="157" 
 />
    <glyph glyph-name="exclamdown" unicode="&#xa1;" horiz-adv-x="204" 
d="M145 -192h-85l10 482h64zM102 490c14.667 0 26.5 -5 35.5 -15s13.5 -23.333 13.5 -40c0 -16 -4.33301 -29 -13 -39s-20.667 -15 -36 -15c-14 0 -25.667 5 -35 15s-14 23 -14 39s4.66699 29.167 14 39.5s21 15.5 35 15.5z" />
    <glyph glyph-name="cent" unicode="&#xa2;" horiz-adv-x="385" 
d="M253 -6h-55v97c-33.333 6.66699 -62 23.667 -86 51c-33.333 40 -50 102 -50 186c0 59.333 12.333 110 37 152s58 67.667 100 77v94h55v-89c28 -1.33301 50.333 -7.33301 67 -18l-14 -61c-22 12 -45 18 -69 18c-34 0 -59 -18 -75 -54s-24 -77.667 -24 -125
c0 -53.333 9.16699 -95.333 27.5 -126s43.833 -46 76.5 -46c25.333 0 49.333 5.66699 72 17l10 -58c-18.667 -11.333 -42.667 -18 -72 -20v-95z" />
    <glyph glyph-name="sterling" unicode="&#xa3;" horiz-adv-x="385" 
d="M353 0h-322v49c23.333 9.33301 45 31.666 65 66.999s30 71 30 107c0 30 -2 57.333 -6 82h-82v55h74c-9.33301 42 -14 80.667 -14 116c0 55.333 14.833 99.5 44.5 132.5s66.5 49.5 110.5 49.5c32 0 58 -6.66699 78 -20l-17 -62c-16.667 11.333 -37 17 -61 17
c-26.667 0 -46.667 -10.333 -60 -31s-20 -45.667 -20 -75c0 -35.333 4.33301 -77.666 13 -126.999h105v-55h-97c6 -48.667 4.66699 -90.667 -4 -126c-11.333 -44 -32.333 -81 -63 -111v-2h226v-66z" />
    <glyph glyph-name="currency" unicode="&#xa4;" horiz-adv-x="385" 
d="M193 529c38 0 69.667 -13.666 95 -40.999l61 72l40 -40l-73 -73c16 -32.667 24 -72 24 -118c0 -46.667 -8 -85.667 -24 -117l72 -75l-39 -40l-63 73c-26 -28 -57.667 -42 -95 -42c-38 0 -69 13.667 -93 41l-61 -72l-40 40l71 72c-16.667 33.333 -25 72.666 -25 117.999
c0 44.667 9 84.667 27 120l-74 72l41 42l62 -74c24.667 28 56 42 94 42zM193 470.001c-26 0 -46.167 -12.666 -60.5 -37.999s-21.5 -60.333 -21.5 -105c0 -41.333 7.5 -75 22.5 -101s34.5 -39 58.5 -39c25.333 0 45 12.667 59 38s21 59.666 21 102.999
c0 42 -7 76.167 -21 102.5s-33.333 39.5 -58 39.5z" />
    <glyph glyph-name="yen" unicode="&#xa5;" horiz-adv-x="385" 
d="M224 0h-71v187h-125v46h125v74h-125v46h106l-119 297h77l67 -191c18.667 -54.667 30 -88.667 34 -102h2c10.667 38 21.667 72.333 33 103l70 190h73l-128 -297h109v-46h-128v-74h128v-46h-128v-187z" />
    <glyph glyph-name="brokenbar" unicode="&#xa6;" horiz-adv-x="201" 
d="M69 174h63v-350h-63v350zM69 674h63v-350h-63v350z" />
    <glyph glyph-name="section" unicode="&#xa7;" horiz-adv-x="401" 
d="M92 354c0 -34 26.667 -63.333 80 -88c48 -23.333 80.667 -42 98 -56c26.667 16.667 40 43 40 79c0 36.667 -23 66.667 -69 90c-52 23.333 -86.667 41.333 -104 54c-30 -20 -45 -46.333 -45 -79zM327 656l-18.002 -51.999c-23.333 16 -52.333 24 -87 24
c-24 0 -45 -6 -63 -18s-27 -30.333 -27 -55c0 -12.667 2.33301 -23.834 7 -33.501s12.667 -18.5 24 -26.5s21 -14 29 -18s21 -10 39 -18c44.667 -18.667 78.834 -39.5 102.501 -62.5s35.5 -54.833 35.5 -95.5c0 -46.667 -19.667 -87 -59 -121c22 -22 33 -50.333 33 -85
c0 -46.667 -15.5 -82.5 -46.5 -107.5s-69.5 -37.5 -115.5 -37.5c-54.667 0 -96.667 11.333 -126 34l19 54c32.667 -22.667 69 -34 109 -34c26.667 0 49 6.66699 67 20s27 33 27 59c0 22.667 -7.66699 41.5 -23 56.5s-42.666 31.833 -81.999 50.5
c-47.333 22 -82.666 44.167 -105.999 66.5s-35 51.833 -35 88.5c0 43.333 23 82.666 69 117.999c-22.667 20 -34.334 47 -35.001 81c0 42.667 15.667 76.334 47 101.001s69.333 37 114 37c41.333 0 75 -8.66699 101 -26z" />
    <glyph glyph-name="dieresis" unicode="&#xa8;" 
d="M73 566c-12.667 0 -23.334 4.16504 -32.001 12.498s-13 18.833 -13 31.5s4.33301 23.334 13 32.001s19.334 13 32.001 13c12 0 22 -4.16699 30 -12.5s12 -19.166 12 -32.499c0 -12.667 -4 -23.167 -12 -31.5s-18 -12.5 -30 -12.5zM228 565.998
c-12.667 0 -23.167 4.16504 -31.5 12.498s-12.5 18.833 -12.5 31.5s4.33301 23.334 13 32.001s19 13 31 13s22.167 -4.16699 30.5 -12.5s12.5 -19.166 12.5 -32.499c0 -12.667 -4 -23.167 -12 -31.5s-18.333 -12.5 -31 -12.5z" />
    <glyph glyph-name="copyright" unicode="&#xa9;" horiz-adv-x="677" 
d="M340 648c85.333 0 157.333 -30 216 -90s88 -132.667 88 -218c0 -86 -29.333 -159.167 -88 -219.5s-130.667 -90.5 -216 -90.5c-86 0 -158.667 30.167 -218 90.5s-89 133.5 -89 219.5c0 85.333 29.667 158 89 218s132 90 218 90zM340 607
c-72.667 0 -133.667 -26.001 -183 -78.001s-74 -116 -74 -192c0 -74.667 24.667 -137.667 74 -189s110.333 -77 183 -77c71.333 0 131.5 25.833 180.5 77.5s73.5 115.5 73.5 191.5c0 74.667 -24.5 137.834 -73.5 189.501s-109.167 77.5 -180.5 77.5zM474 494.999
l-12.001 -40c-29.333 14.667 -61.666 22 -96.999 22c-44.667 0 -79.167 -13 -103.5 -39s-36.5 -59.667 -36.5 -101s12.333 -75.166 37 -101.499s59 -39.5 103 -39.5c37.333 0 70.666 7.66699 99.999 23l12 -37c-32 -19.333 -72.667 -29 -122 -29
c-55.333 0 -99.5 17.333 -132.5 52s-49.5 77.667 -49.5 129c0 55.333 18.5 100.166 55.5 134.499s82.833 51.5 137.5 51.5c22.667 0 44.334 -2.66699 65.001 -8s35 -11 43 -17z" />
    <glyph glyph-name="ordfeminine" unicode="&#xaa;" horiz-adv-x="273" 
d="M243 263l-48.001 -0.000976562l-5 35h-2c-16.667 -26.667 -42 -40 -76 -40c-23.333 0 -43.333 8.5 -60 25.5s-25 39.167 -25 66.5c0 38.667 15 67.834 45 87.501s67.667 29.5 113 29.5v11c0 42 -20 63 -60 63c-23.333 0 -44.666 -7 -63.999 -21l-13 41
c24.667 18 53.667 27 87 27c34.667 0 60.667 -10.5 78 -31.5s26 -50.5 26 -88.5v-131c0 -30 1.33301 -54.667 4 -74zM185.999 355.999v69c-14 0 -27.5 -1 -40.5 -3s-26.833 -8.5 -41.5 -19.5s-22 -26.167 -22 -45.5c0 -16.667 4.83301 -29.667 14.5 -39s20.5 -14 32.5 -14
c20.667 0 37 10 49 30c5.33301 8 8 15.333 8 22z" />
    <glyph glyph-name="guillemotleft" unicode="&#xab;" horiz-adv-x="354" 
d="M190 426l-104 -174l104 -174h-63l-102 174l103 174h62zM333 426l-104 -174l104 -174h-63l-103 174l104 174h62z" />
    <glyph glyph-name="logicalnot" unicode="&#xac;" horiz-adv-x="596" 
d="M40 398h516v-278h-56v223h-460v55z" />
    <glyph glyph-name="uni00AD" unicode="&#xad;" horiz-adv-x="291" 
d="M30 291h219v-60h-219v60z" />
    <glyph glyph-name="registered" unicode="&#xae;" horiz-adv-x="372" 
d="M161 507v-62h-33v155c17.333 4 36 6 56 6c22.667 0 40 -4.33301 52 -13c10.667 -7.33301 16 -18.333 16 -33c0 -17.333 -11 -29.666 -33 -36.999v-2c13.333 -4 22.666 -16.667 27.999 -38c4.66699 -20.667 8.33398 -33.334 11.001 -38.001h-35
c-3.33301 4 -7.33301 16.667 -12 38c-3.33301 16 -14.333 24 -33 24h-17zM162 577v-44h17c24 0 36 7.33301 36 22c0 16 -11 24 -33 24c-8 0 -14.667 -0.666992 -20 -2zM186 682c44 0 81.167 -15.167 111.5 -45.5s45.5 -67.166 45.5 -110.499
c0 -44 -15.167 -81.167 -45.5 -111.5s-67.5 -45.5 -111.5 -45.5c-43.333 0 -80.333 15.167 -111 45.5s-46 67.5 -46 111.5c0 43.333 15.333 80.166 46 110.499s67.667 45.5 111 45.5zM186 650c-34 0 -62.333 -12 -85 -36s-34 -53.333 -34 -88c0 -35.333 11.333 -65 34 -89
s51 -36 85 -36s62.167 12 84.5 36s33.5 53.667 33.5 89c0 34.667 -11.333 64 -34 88s-50.667 36 -84 36z" />
    <glyph glyph-name="macron" unicode="&#xaf;" 
d="M52 631h197v-50h-197v50z" />
    <glyph glyph-name="degree" unicode="&#xb0;" horiz-adv-x="280" 
d="M151 682c34.667 0 63.6689 -12.332 87.002 -36.999s35 -55 35 -91c0 -36.667 -12.333 -67.334 -37 -92.001s-53.334 -37 -86.001 -37c-34.667 0 -63.667 12.167 -87 36.5s-35 54.5 -35 90.5s12.167 66.667 36.5 92s53.166 38 86.499 38zM151.002 641.001
c-21.333 0 -39.332 -8.66797 -53.999 -26.001s-22 -38.333 -22 -63c0 -24 7.33301 -44.333 22 -61s32.667 -25 54 -25s39.166 8.33301 53.499 25s21.5 37.334 21.5 62.001c0 24 -7 44.667 -21 62s-32 26 -54 26z" />
    <glyph glyph-name="plusminus" unicode="&#xb1;" horiz-adv-x="596" 
d="M270 567h56v-194h230v-55h-230v-201h-56v201h-230v55h230v194zM40 55h516v-55h-516v55z" />
    <glyph glyph-name="twosuperior" unicode="&#xb2;" horiz-adv-x="245" 
d="M2 417l0.000976562 29.001l41 50l53.5 68c11 14.667 23.333 35.167 37 61.5s20.5 49.5 20.5 69.5c0 22 -5.33301 38.333 -16 49s-25.334 16 -44.001 16c-21.333 0 -43.333 -9 -66 -27l-16 44c23.333 23.333 56 35 98 35c36 0 63 -10.167 81 -30.5s27 -45.833 27 -76.5
c0 -50.667 -34.333 -116.334 -103 -197.001l-30 -37v-2h140v-52h-223z" />
    <glyph glyph-name="threesuperior" unicode="&#xb3;" horiz-adv-x="235" 
d="M30 743l-12.999 43.001c25.333 17.333 54.666 26 87.999 26c32 0 56.833 -8.66699 74.5 -26s26.5 -39 26.5 -65c0 -41.333 -21.333 -71 -64 -89v-2c20 -4.66699 37.667 -15.667 53 -33s23 -39 23 -65c0 -34.667 -12.333 -63.334 -37 -86.001s-57.667 -34 -99 -34
c-30.667 0 -57.667 7 -81 21l13 47c22 -13.333 45.333 -20 70 -20c20.667 0 37.667 6.16699 51 18.5s20 29.5 20 51.5c0 24.667 -7.66699 43.5 -23 56.5s-37 19.5 -65 19.5h-8v42h7c18 0 35.667 5.66699 53 17s26 27 26 47c0 16.667 -4.66699 29.5 -14 38.5
s-22 13.5 -38 13.5c-21.333 0 -42.333 -7 -63 -21z" />
    <glyph glyph-name="acute" unicode="&#xb4;" 
d="M188 682h79l-105 -135h-51z" />
    <glyph glyph-name="mu" unicode="&#xb5;" horiz-adv-x="399" 
d="M281 50l-2 -0.00195312c-6.66699 -12.667 -17.834 -24.667 -33.501 -36s-32.5 -17 -50.5 -17c-32 0 -54.667 12 -68 36v-71c0 -69.333 3 -120.666 9 -153.999h-70c-8.66699 26 -13 74.667 -13 146v530h77v-319c0 -72.667 21.333 -109 64 -109
c20.667 0 36.834 6.83301 48.501 20.5s19.167 28.5 22.5 44.5c2.66699 10.667 4 25.334 4 44.001v319h76v-380c0 -18.667 2.33301 -32.5 7 -41.5s12.667 -13.167 24 -12.5l-8 -55c-6.66699 -2 -15 -3 -25 -3c-33.333 0 -54 19.333 -62 58z" />
    <glyph glyph-name="paragraph" unicode="&#xb6;" horiz-adv-x="401" 
d="M233 -50h-50v324h-6c-32 0 -64.5 17 -97.5 51s-49.5 79.667 -49.5 137c0 60 18.5 110.333 55.5 151s92.833 61 167.5 61c29.333 0 59 -2 89 -6v-718h-50v674h-59v-674z" />
    <glyph glyph-name="periodcentered" unicode="&#xb7;" horiz-adv-x="194" 
d="M97 202c-14.667 0 -26.833 5.16602 -36.5 15.499s-14.5 24.166 -14.5 41.499c0 16 5 29.5 15 40.5s22 16.5 36 16.5c15.333 0 27.666 -5.16699 36.999 -15.5s14 -24.166 14 -41.499s-4.66699 -31.166 -14 -41.499s-21.666 -15.5 -36.999 -15.5z" />
    <glyph glyph-name="cedilla" unicode="&#xb8;" 
d="M144 5l47.999 -0.000976562l-28 -55c17.333 -2.66699 32.5 -10.667 45.5 -24s19.5 -29 19.5 -47c0 -26.667 -9 -46.5 -27 -59.5s-39.333 -19.5 -64 -19.5c-23.333 0 -45.666 6 -66.999 18l16 42c16 -10 32.667 -15 50 -15c24 0 36 10 36 30
c0 24.667 -23 39.334 -69 44.001z" />
    <glyph glyph-name="onesuperior" unicode="&#xb9;" horiz-adv-x="212" 
d="M157 417h-60v333h-2l-73 -39l-11 48l95 48h51v-390z" />
    <glyph glyph-name="ordmasculine" unicode="&#xba;" horiz-adv-x="302" 
d="M153 588c36.667 0 64.833 -13.833 84.5 -41.5s29.5 -68.5 29.5 -122.5c0 -56.667 -11.5 -98.5 -34.5 -125.5s-50.5 -40.5 -82.5 -40.5c-34 0 -61.833 14.167 -83.5 42.5s-32.5 69.166 -32.5 122.499c0 52.667 11.5 93.334 34.5 122.001s51.167 43 84.5 43zM149.999 543
c-20 0 -34.667 -12.501 -44 -37.501s-14 -52.5 -14 -82.5c0 -31.333 4.66699 -59.166 14 -83.499s24 -36.5 44 -36.5c39.333 0 59 40 59 120s-19.667 120 -59 120z" />
    <glyph glyph-name="guillemotright" unicode="&#xbb;" horiz-adv-x="354" 
d="M125 252l-104 174h62l103 -174l-101 -174h-64zM268 252l-104 174h62l103 -174l-102 -174h-63z" />
    <glyph glyph-name="onequarter" unicode="&#xbc;" horiz-adv-x="613" 
d="M177 263h-60v333h-2l-74 -39l-10 48l94 48h52v-390zM156 -8h-49l340 666h49zM537 0h-57v106h-147v36l144 251h60v-240h46v-47h-46v-106zM480 153l-0.000976562 100.001c0 3.33301 1.33301 27.666 4 72.999h-2l-15 -31c-7.33301 -15.333 -13.666 -28 -18.999 -38l-55 -102
v-2h87z" />
    <glyph glyph-name="onehalf" unicode="&#xbd;" horiz-adv-x="613" 
d="M161 263h-60v333h-2l-73 -39l-11 48l95 48h51v-390zM132 -8h-49l340 666h49zM355 0v29l41 50l53.5 68c11 14.667 23.333 35.167 37 61.5s20.5 49.5 20.5 69.5c0 21.333 -5.5 37.5 -16.5 48.5s-25.5 16.5 -43.5 16.5c-21.333 0 -43.333 -9 -66 -27l-16 44
c23.333 23.333 56 35 98 35c36 0 63 -10.167 81 -30.5s27 -45.833 27 -76.5c0 -52 -34.333 -117.667 -103 -197l-30 -37v-2h140v-52h-223z" />
    <glyph glyph-name="threequarters" unicode="&#xbe;" horiz-adv-x="613" 
d="M57 589l-13.001 43.001c25.333 17.333 54.666 26 87.999 26c32 0 56.833 -8.66699 74.5 -26s26.5 -39 26.5 -65c0 -41.333 -21.333 -71 -64 -89v-2c20 -4.66699 37.667 -15.667 53 -33s23 -39 23 -65c0 -34.667 -12.167 -63.334 -36.5 -86.001s-57.166 -34 -98.499 -34
c-31.333 0 -58.666 7 -81.999 21l13 47c22 -13.333 45.333 -20 70 -20c20.667 0 37.667 6.16699 51 18.5s20 29.5 20 51.5c0 24.667 -7.66699 43.5 -23 56.5s-37 19.5 -65 19.5h-8v42h7c18 0.666992 35.667 6.5 53 17.5s26 26.5 26 46.5c0 16.667 -4.66699 29.5 -14 38.5
s-22 13.5 -38 13.5c-21.333 0 -42.333 -7 -63 -21zM172.999 -7.99902h-49l340 666h49zM538.999 0.000976562h-56v106h-147v36l144 251h59v-240h47v-47h-47v-106zM482.999 153.001l0.000976562 100c0 26 1.33301 50.333 4 73h-2c-18.667 -37.333 -30.334 -60.333 -35.001 -69
l-55 -102v-2h88z" />
    <glyph glyph-name="questiondown" unicode="&#xbf;" horiz-adv-x="309" 
d="M175 490c15.333 0 27.499 -5.16699 36.499 -15.5s13.5 -23.833 13.5 -40.5c0 -16 -4.5 -29.333 -13.5 -40s-20.833 -16 -35.5 -16c-15.333 0 -27.666 5.33301 -36.999 16s-14 24 -14 40c0 16.667 4.5 30.167 13.5 40.5s21.167 15.5 36.5 15.5zM135.999 294
l68.998 0.00195312l2 -15c9.33301 -61.333 -4.66699 -123.333 -42 -186l-15.5 -25.5c-8.33301 -13.667 -13.5 -22.334 -15.5 -26.001l-11 -21c-5.33301 -10.333 -8.66602 -18.333 -9.99902 -24s-2.83301 -13 -4.5 -22s-2.5 -17.833 -2.5 -26.5c0 -52.667 25.667 -79 77 -79
c24.667 0 46.667 6 66 18l17 -59c-23.333 -17.333 -56.666 -26 -99.999 -26c-46.667 0 -81.5 13 -104.5 39s-34.5 58.333 -34.5 97c0 17.333 2.83301 35.333 8.5 54s10.5 32.167 14.5 40.5s13.333 24.166 28 47.499s22.667 36.333 24 39c16 28 26.833 53.333 32.5 76
s6.5 50 2.5 82z" />
    <glyph glyph-name="Agrave" unicode="&#xc0;" horiz-adv-x="435" 
d="M290 202h-149l-45 -202h-74l154 674h85l150 -674h-76zM152 264h128l-35 171c-6.66699 32.667 -15.667 84 -27 154h-4c-9.33301 -58.667 -18.333 -110 -27 -154zM87 818h90l95 -108h-61z" />
    <glyph glyph-name="Aacute" unicode="&#xc1;" horiz-adv-x="435" 
d="M290 202h-149l-45 -202h-74l154 674h85l150 -674h-76zM152 264h128l-35 171c-6.66699 32.667 -15.667 84 -27 154h-4c-9.33301 -58.667 -18.333 -110 -27 -154zM263 818h91l-124 -108h-61z" />
    <glyph glyph-name="Acircumflex" unicode="&#xc2;" horiz-adv-x="435" 
d="M290 202h-149l-45 -202h-74l154 674h85l150 -674h-76zM152 264h128l-35 171c-6.66699 32.667 -15.667 84 -27 154h-4c-9.33301 -58.667 -18.333 -110 -27 -154zM186 808h66l87 -98h-67l-52 55h-2l-52 -55h-66z" />
    <glyph glyph-name="Atilde" unicode="&#xc3;" horiz-adv-x="435" 
d="M290 202h-149l-45 -202h-74l154 674h85l150 -674h-76zM152 264h128l-35 171c-6.66699 32.667 -15.667 84 -27 154h-4c-9.33301 -58.667 -18.333 -110 -27 -154zM156 718l-42.001 0.000976562c0 28.667 5.33301 51.5 16 68.5s25.334 25.5 44.001 25.5
c12.667 0 28.334 -5.66699 47.001 -17c20 -12 33 -18 39 -18c8.66699 0 15 2.66699 19 8s6.66699 14.666 8 27.999h40c1.33301 -60 -19.334 -90 -62.001 -90c-14 0 -30.333 5.66699 -49 17c-16.667 11.333 -28.667 17 -36 17c-14 0 -22 -13 -24 -39z" />
    <glyph glyph-name="Adieresis" unicode="&#xc4;" horiz-adv-x="435" 
d="M290 202h-149l-45 -202h-74l154 674h85l150 -674h-76zM152 264h128l-35 171c-6.66699 32.667 -15.667 84 -27 154h-4c-9.33301 -58.667 -18.333 -110 -27 -154zM140 718c-12.667 0 -23 4.16699 -31 12.5s-12 19.5 -12 33.5c0 13.333 4 24.5 12 33.5s18.333 13.5 31 13.5
s23 -4.33301 31 -13s12 -20 12 -34s-3.83301 -25.167 -11.5 -33.5s-18.167 -12.5 -31.5 -12.5zM302 718c-12.667 0 -23.167 4.16699 -31.5 12.5s-12.5 19.5 -12.5 33.5c0 13.333 4.16699 24.5 12.5 33.5s18.833 13.5 31.5 13.5s22.834 -4.5 30.501 -13.5
s11.5 -20.167 11.5 -33.5c0 -14 -3.83301 -25.167 -11.5 -33.5s-17.834 -12.5 -30.501 -12.5z" />
    <glyph glyph-name="Aring" unicode="&#xc5;" horiz-adv-x="435" 
d="M290 202h-149l-45 -202h-74l154 674h85l150 -674h-76zM152 264h128l-35 171c-6.66699 32.667 -15.667 84 -27 154h-4c-9.33301 -58.667 -18.333 -110 -27 -154zM221 871c28.667 0 51.332 -8.5 67.999 -25.5s25 -37.833 25 -62.5c0 -24 -8.66699 -44.5 -26 -61.5
s-39.666 -25.5 -66.999 -25.5c-28.667 0 -51.5 8.33301 -68.5 25s-25.5 37 -25.5 61c0 24.667 8.66699 45.667 26 63s40 26 68 26zM219.998 835c-14 0 -24.999 -5.16699 -32.999 -15.5s-12 -22.833 -12 -37.5c0 -12.667 4.16699 -24 12.5 -34s19.166 -15 32.499 -15
c14 0 25.167 5 33.5 15s12.5 22 12.5 36s-4.16699 26 -12.5 36s-19.5 15 -33.5 15z" />
    <glyph glyph-name="AE" unicode="&#xc6;" horiz-adv-x="556" 
d="M83 0h-75l203 674h304v-67h-186l13 -226h171v-65h-165l14 -249h179v-67h-248l-13 222h-134zM162 284l112 0.000976562l-9 205c-0.666992 9.33301 -1.66699 29.666 -3 60.999l-3 70h-5l-39 -143z" />
    <glyph glyph-name="Ccedilla" unicode="&#xc7;" horiz-adv-x="396" 
d="M342 77l11.998 -65.001c-20.667 -11.333 -48 -17 -82 -17l-22 -44c17.333 -2.66699 32.5 -10.667 45.5 -24s19.5 -29.333 19.5 -48c0 -26 -9 -45.5 -27 -58.5s-39.333 -19.5 -64 -19.5c-25.333 0 -47.666 6 -66.999 18l16 41c16.667 -9.33301 33.334 -14 50.001 -14
c24 0 36 10 36 30c0 24.667 -23 39.334 -69 44.001l36 77c-60 8.66699 -107.333 40.5 -142 95.5s-52 133.833 -52 236.5c0 63.333 7.33301 118.833 22 166.5s34 84.334 58 110.001s49.167 44.5 75.5 56.5s53.833 18 82.5 18c38.667 0 66.667 -5.66699 84 -17l-17 -65
c-21.333 9.33301 -44 14 -68 14c-42 0 -78.5 -22.333 -109.5 -67s-46.5 -114.334 -46.5 -209.001c0 -96 14.833 -165.667 44.5 -209s67.5 -65 113.5 -65c27.333 0 51 5 71 15z" />
    <glyph glyph-name="Egrave" unicode="&#xc8;" horiz-adv-x="354" 
d="M306 385v-65h-169v-253h192v-67h-269v674h257v-67h-180v-222h169zM56 818h91l94 -108h-61z" />
    <glyph glyph-name="Eacute" unicode="&#xc9;" horiz-adv-x="354" 
d="M306 385v-65h-169v-253h192v-67h-269v674h257v-67h-180v-222h169zM246 818h91l-124 -108h-61z" />
    <glyph glyph-name="Ecircumflex" unicode="&#xca;" horiz-adv-x="354" 
d="M306 385v-65h-169v-253h192v-67h-269v674h257v-67h-180v-222h169zM156 808h66l87 -98h-67l-52 55h-2l-52 -55h-66z" />
    <glyph glyph-name="Edieresis" unicode="&#xcb;" horiz-adv-x="354" 
d="M306 385v-65h-169v-253h192v-67h-269v674h257v-67h-180v-222h169zM109 725c-12.667 0 -23 4.16699 -31 12.5s-12 19.5 -12 33.5c0 13.333 4.16699 24.5 12.5 33.5s18.5 13.5 30.5 13.5c12.667 0 23 -4.33301 31 -13s12 -20 12 -34s-3.83301 -25.167 -11.5 -33.5
s-18.167 -12.5 -31.5 -12.5zM271 725c-12.667 0 -23 4.16699 -31 12.5s-12 19.5 -12 33.5c0 13.333 4 24.5 12 33.5s18.333 13.5 31 13.5s23 -4.33301 31 -13s12 -20 12 -34s-3.83301 -25.167 -11.5 -33.5s-18.167 -12.5 -31.5 -12.5z" />
    <glyph glyph-name="Igrave" unicode="&#xcc;" horiz-adv-x="199" 
d="M60 674h77v-674h-77v674zM-41 818h91l95 -108h-61z" />
    <glyph glyph-name="Iacute" unicode="&#xcd;" horiz-adv-x="199" 
d="M60 674h77v-674h-77v674zM142 818h90l-124 -108h-61z" />
    <glyph glyph-name="Icircumflex" unicode="&#xce;" horiz-adv-x="199" 
d="M60 674h77v-674h-77v674zM66 808h67l87 -98h-68l-52 55h-2l-51 -55h-67z" />
    <glyph glyph-name="Idieresis" unicode="&#xcf;" horiz-adv-x="199" 
d="M60 674h77v-674h-77v674zM19 725c-12.667 0 -23 4.16699 -31 12.5s-12 19.5 -12 33.5c0 13.333 4.16699 24.5 12.5 33.5s18.5 13.5 30.5 13.5c12.667 0 23 -4.33301 31 -13s12 -20 12 -34s-3.83301 -25.167 -11.5 -33.5s-18.167 -12.5 -31.5 -12.5zM181 725
c-12.667 0 -23.167 4.16699 -31.5 12.5s-12.5 19.5 -12.5 33.5c0 13.333 4.16699 24.5 12.5 33.5s18.833 13.5 31.5 13.5s23 -4.33301 31 -13s12 -20 12 -34s-3.83301 -25.167 -11.5 -33.5s-18.167 -12.5 -31.5 -12.5z" />
    <glyph glyph-name="Eth" unicode="&#xd0;" horiz-adv-x="453" 
d="M0 323l0.000976562 57h69v284c28 8.66699 62.333 13 103 13c67.333 0 120 -17 158 -51c60.667 -51.333 91 -143 91 -275s-27 -227 -81 -285c-42 -48 -103.667 -72 -185 -72c-36.667 0 -65.334 2.33301 -86.001 7v322h-69zM247.001 380v-57h-102v-263
c8 -1.33301 18 -2 30 -2c48.667 0 88.667 22.333 120 67s47 120 47 226c0 175.333 -53.667 263 -161 263c-9.33301 0 -21.333 -1.33301 -36 -4v-230h102z" />
    <glyph glyph-name="Ntilde" unicode="&#xd1;" horiz-adv-x="465" 
d="M130 0l-69.999 0.000976562v674h73l124 -316c42 -108 70.667 -186.333 86 -235h2c-6 106 -9 209.333 -9 310v241h69v-674h-73l-128 324c-34.667 87.333 -61.334 163.666 -80.001 228.999h-2c5.33301 -80 8 -186.667 8 -320v-233zM170.001 718.001h-41.001
c-0.666992 28 4.33301 50.667 15 68s25.334 26 44.001 26c12 0 28 -5.66699 48 -17c18.667 -12 31.667 -18 39 -18c15.333 0 24.333 12 27 36h40c1.33301 -60 -19.334 -90 -62.001 -90c-14 0 -30.333 5.66699 -49 17c-17.333 11.333 -29.666 17 -36.999 17
c-13.333 0 -21.333 -13 -24 -39z" />
    <glyph glyph-name="Ograve" unicode="&#xd2;" horiz-adv-x="446" 
d="M230 682c57.333 0 102.333 -29.833 135 -89.5s49 -143.167 49 -250.5c0 -120 -18 -208.333 -54 -265s-83 -85 -141 -85c-57.333 0 -102.833 29.833 -136.5 89.5s-50.5 145.167 -50.5 256.5c0 109.333 18 194 54 254s84 90 144 90zM223 614
c-38.667 0 -66.833 -26.666 -84.5 -79.999s-26.5 -119 -26.5 -197c0 -50 3.16699 -94.833 9.5 -134.5s18.333 -73.334 36 -101.001s39.834 -41.5 66.501 -41.5c27.333 0 49.666 14.667 66.999 44s28.833 63.5 34.5 102.5s8.5 83.167 8.5 132.5c0 34.667 -1.66699 67 -5 97
s-9 59 -17 87s-19.667 50.167 -35 66.5s-33.333 24.5 -54 24.5zM86.001 818.001h91l94 -108h-60z" />
    <glyph glyph-name="Oacute" unicode="&#xd3;" horiz-adv-x="446" 
d="M230 682c57.333 0 102.333 -29.833 135 -89.5s49 -143.167 49 -250.5c0 -120 -18 -208.333 -54 -265s-83 -85 -141 -85c-57.333 0 -102.833 29.833 -136.5 89.5s-50.5 145.167 -50.5 256.5c0 109.333 18 194 54 254s84 90 144 90zM223 614
c-38.667 0 -66.833 -26.666 -84.5 -79.999s-26.5 -119 -26.5 -197c0 -50 3.16699 -94.833 9.5 -134.5s18.333 -73.334 36 -101.001s39.834 -41.5 66.501 -41.5c27.333 0 49.666 14.667 66.999 44s28.833 63.5 34.5 102.5s8.5 83.167 8.5 132.5c0 34.667 -1.66699 67 -5 97
s-9 59 -17 87s-19.667 50.167 -35 66.5s-33.333 24.5 -54 24.5zM269.001 818.001h91l-124 -108h-61z" />
    <glyph glyph-name="Ocircumflex" unicode="&#xd4;" horiz-adv-x="446" 
d="M230 682c57.333 0 102.333 -29.833 135 -89.5s49 -143.167 49 -250.5c0 -120 -18 -208.333 -54 -265s-83 -85 -141 -85c-57.333 0 -102.833 29.833 -136.5 89.5s-50.5 145.167 -50.5 256.5c0 109.333 18 194 54 254s84 90 144 90zM223 614
c-38.667 0 -66.833 -26.666 -84.5 -79.999s-26.5 -119 -26.5 -197c0 -50 3.16699 -94.833 9.5 -134.5s18.333 -73.334 36 -101.001s39.834 -41.5 66.501 -41.5c27.333 0 49.666 14.667 66.999 44s28.833 63.5 34.5 102.5s8.5 83.167 8.5 132.5c0 34.667 -1.66699 67 -5 97
s-9 59 -17 87s-19.667 50.167 -35 66.5s-33.333 24.5 -54 24.5zM190.001 808.001h67l87 -98h-67l-52 55h-2l-52 -55h-66z" />
    <glyph glyph-name="Otilde" unicode="&#xd5;" horiz-adv-x="446" 
d="M230 682c57.333 0 102.333 -29.833 135 -89.5s49 -143.167 49 -250.5c0 -120 -18 -208.333 -54 -265s-83 -85 -141 -85c-57.333 0 -102.833 29.833 -136.5 89.5s-50.5 145.167 -50.5 256.5c0 109.333 18 194 54 254s84 90 144 90zM223 614
c-38.667 0 -66.833 -26.666 -84.5 -79.999s-26.5 -119 -26.5 -197c0 -50 3.16699 -94.833 9.5 -134.5s18.333 -73.334 36 -101.001s39.834 -41.5 66.501 -41.5c27.333 0 49.666 14.667 66.999 44s28.833 63.5 34.5 102.5s8.5 83.167 8.5 132.5c0 34.667 -1.66699 67 -5 97
s-9 59 -17 87s-19.667 50.167 -35 66.5s-33.333 24.5 -54 24.5zM157.001 716.001h-41.001c-0.666992 28 4.5 50.667 15.5 68s25.833 26 44.5 26c12.667 0 28.334 -5.66699 47.001 -17c20 -12 33 -18 39 -18c15.333 0 24.333 12.333 27 37h40
c1.33301 -60 -19.334 -90 -62.001 -90c-16 0 -32.333 5.66699 -49 17c-18.667 10.667 -30.667 16 -36 16c-13.333 0 -21.666 -13 -24.999 -39z" />
    <glyph glyph-name="Odieresis" unicode="&#xd6;" horiz-adv-x="446" 
d="M230 682c57.333 0 102.333 -29.833 135 -89.5s49 -143.167 49 -250.5c0 -120 -18 -208.333 -54 -265s-83 -85 -141 -85c-57.333 0 -102.833 29.833 -136.5 89.5s-50.5 145.167 -50.5 256.5c0 109.333 18 194 54 254s84 90 144 90zM223 614
c-38.667 0 -66.833 -26.666 -84.5 -79.999s-26.5 -119 -26.5 -197c0 -50 3.16699 -94.833 9.5 -134.5s18.333 -73.334 36 -101.001s39.834 -41.5 66.501 -41.5c27.333 0 49.666 14.667 66.999 44s28.833 63.5 34.5 102.5s8.5 83.167 8.5 132.5c0 34.667 -1.66699 67 -5 97
s-9 59 -17 87s-19.667 50.167 -35 66.5s-33.333 24.5 -54 24.5zM142.001 725.001c-12.667 0 -23 4.16699 -31 12.5s-12 19.5 -12 33.5c0 13.333 4 24.5 12 33.5s18.333 13.5 31 13.5s23 -4.33301 31 -13s12 -20 12 -34s-3.83301 -25.167 -11.5 -33.5
s-18.167 -12.5 -31.5 -12.5zM303.001 725.001c-12 0 -22.167 4.16699 -30.5 12.5s-12.5 19.5 -12.5 33.5c0 13.333 4.16699 24.5 12.5 33.5s18.5 13.5 30.5 13.5c12.667 0 23 -4.33301 31 -13s12 -20 12 -34s-3.83301 -25.167 -11.5 -33.5s-18.167 -12.5 -31.5 -12.5z" />
    <glyph glyph-name="multiply" unicode="&#xd7;" horiz-adv-x="596" 
d="M40 486l37 40l220 -225l222 225l37 -40l-220 -224l219 -221l-38 -41l-219 224l-220 -224l-38 41l219 222z" />
    <glyph glyph-name="Oslash" unicode="&#xd8;" horiz-adv-x="446" 
d="M86 -37l-43 22.999l42 95c-35.333 59.333 -53 145 -53 257c0 109.333 17.667 194 53 254s81.666 90 138.999 90c39.333 0 73 -13.667 101 -41l30 70l46 -20l-40 -91c35.333 -60 53 -145.667 53 -257c0 -119.333 -17.833 -207.666 -53.5 -264.999s-81.5 -86 -137.5 -86
c-41.333 0 -75.666 15 -102.999 45zM129 171.999l163.999 398c-19.333 29.333 -42.666 44 -69.999 44c-20.667 0 -38.667 -7.83301 -54 -23.5s-27.333 -37 -36 -64s-15 -56.167 -19 -87.5s-6 -65 -6 -101c0 -68.667 6.33301 -124 19 -166h2zM316.999 506.999
l-167.999 -396.999c18 -33.333 42.667 -50 74 -50c20.667 0 38.667 8 54 24s27.166 37.667 35.499 65s14.5 56.666 18.5 87.999s6 65.333 6 102c0 68.667 -6 124.667 -18 168h-2z" />
    <glyph glyph-name="Ugrave" unicode="&#xd9;" horiz-adv-x="457" 
d="M59 674h77v-452c0 -108 30.667 -162 92 -162c62 0 93 54 93 162v452h77v-440c0 -83.333 -15.333 -144.5 -46 -183.5s-72.667 -58.5 -126 -58.5c-111.333 0 -167 77.667 -167 233v449zM86 818h91l95 -108h-61z" />
    <glyph glyph-name="Uacute" unicode="&#xda;" horiz-adv-x="457" 
d="M59 674h77v-452c0 -108 30.667 -162 92 -162c62 0 93 54 93 162v452h77v-440c0 -83.333 -15.333 -144.5 -46 -183.5s-72.667 -58.5 -126 -58.5c-111.333 0 -167 77.667 -167 233v449zM277 818h91l-124 -108h-61z" />
    <glyph glyph-name="Ucircumflex" unicode="&#xdb;" horiz-adv-x="457" 
d="M59 674h77v-452c0 -108 30.667 -162 92 -162c62 0 93 54 93 162v452h77v-440c0 -83.333 -15.333 -144.5 -46 -183.5s-72.667 -58.5 -126 -58.5c-111.333 0 -167 77.667 -167 233v449zM196 808h66l87 -98h-67l-52 55h-2l-52 -55h-66z" />
    <glyph glyph-name="Udieresis" unicode="&#xdc;" horiz-adv-x="457" 
d="M59 674h77v-452c0 -108 30.667 -162 92 -162c62 0 93 54 93 162v452h77v-440c0 -83.333 -15.333 -144.5 -46 -183.5s-72.667 -58.5 -126 -58.5c-111.333 0 -167 77.667 -167 233v449zM147 725c-12 0 -22.167 4.16699 -30.5 12.5s-12.5 19.5 -12.5 33.5
c0 13.333 4.16699 24.5 12.5 33.5s18.5 13.5 30.5 13.5c12.667 0 23 -4.33301 31 -13s12 -20 12 -34s-3.83301 -25.167 -11.5 -33.5s-18.167 -12.5 -31.5 -12.5zM309 725c-12.667 0 -23 4.16699 -31 12.5s-12 19.5 -12 33.5c0 13.333 4 24.5 12 33.5s18.333 13.5 31 13.5
s23 -4.33301 31 -13s12 -20 12 -34s-3.83301 -25.167 -11.5 -33.5s-18.167 -12.5 -31.5 -12.5z" />
    <glyph glyph-name="Yacute" unicode="&#xdd;" horiz-adv-x="394" 
d="M235 0l-77 -0.000976562v285l-148 389h81l60 -169c20 -56 36.667 -106.667 50 -152h2c10.667 40.667 27 92.334 49 155.001l57 166h81l-155 -386v-288zM252 817.999h91l-124 -108h-61z" />
    <glyph glyph-name="Thorn" unicode="&#xde;" horiz-adv-x="396" 
d="M60 0v674.002h76v-133c13.333 2 30.333 3 51 3c56.667 0 101.334 -16 134.001 -48c32.667 -32.667 49 -77.334 49 -134.001c0 -64.667 -18.833 -114.334 -56.5 -149.001s-84.167 -52 -139.5 -52c-14.667 0 -27.334 1 -38.001 3v-164h-76zM136 477.002v-247.999
c8 -2.66699 19.667 -4 35 -4c38 0 67.833 11.667 89.5 35s32.5 55.666 32.5 96.999c0 82.667 -38.667 124 -116 124c-17.333 0 -31 -1.33301 -41 -4z" />
    <glyph glyph-name="germandbls" unicode="&#xdf;" horiz-adv-x="430" 
d="M131 0l-77.001 0.00585938v450c0 97.333 21 166 63 206c31.333 29.333 70.333 44 117 44c40.667 0 75.334 -13.333 104.001 -40s43 -65.334 43 -116.001c0 -30.667 -8 -58 -24 -82c-44 -17.333 -66 -44.333 -66 -81c0 -11.333 2.16699 -22.333 6.5 -33
s9.16602 -19.334 14.499 -26.001l24 -30c22.667 -26 39.5 -50.5 50.5 -73.5s16.5 -48.5 16.5 -76.5c0 -46.667 -15.167 -83.334 -45.5 -110.001s-67.166 -40 -110.499 -40c-32.667 0 -59 5 -79 15l13 60c16.667 -8.66699 38.334 -13 65.001 -13
c25.333 0 45.5 7.66699 60.5 23s22.5 34.333 22.5 57c0 32 -17.333 68.333 -52 109c-13.333 15.333 -23.333 27.666 -30 36.999s-13.167 22.166 -19.5 38.499s-9.5 33.166 -9.5 50.499c0 26.667 7.33301 50.5 22 71.5s34 37.167 58 48.5c6 12.667 9 28.667 9 48
c0 36 -8.33301 61.5 -25 76.5s-35.334 22.5 -56.001 22.5c-63.333 0 -95 -63.667 -95 -191v-445z" />
    <glyph glyph-name="agrave" unicode="&#xe0;" horiz-adv-x="364" 
d="M315 0l-70.001 -0.000976562l-5 51h-3c-22 -39.333 -54 -59 -96 -59c-32.667 0 -60 12.833 -82 38.5s-33 58.834 -33 99.501c0 57.333 19.667 100.833 59 130.5s88.333 44.834 147 45.501v15c0 35.333 -5.66699 62.5 -17 81.5s-31.333 28.5 -60 28.5
c-28 0 -54.667 -8.33301 -80 -25l-17 54c28.667 21.333 66.334 32 113.001 32c92.667 0 139 -57.667 139 -173v-209c0 -52.667 1.66699 -89.334 5 -110.001zM233.999 151.999v98c-88.667 0 -133 -37.333 -133 -112c0 -28.667 6 -50.167 18 -64.5s25.667 -21.5 41 -21.5
c17.333 0 32.5 6.33301 45.5 19s21.833 30.667 26.5 54c1.33301 6 2 15 2 27zM57.999 681.999h79l76 -135h-51z" />
    <glyph glyph-name="aacute" unicode="&#xe1;" horiz-adv-x="364" 
d="M315 0l-70.001 -0.000976562l-5 51h-3c-22 -39.333 -54 -59 -96 -59c-32.667 0 -60 12.833 -82 38.5s-33 58.834 -33 99.501c0 57.333 19.667 100.833 59 130.5s88.333 44.834 147 45.501v15c0 35.333 -5.66699 62.5 -17 81.5s-31.333 28.5 -60 28.5
c-28 0 -54.667 -8.33301 -80 -25l-17 54c28.667 21.333 66.334 32 113.001 32c92.667 0 139 -57.667 139 -173v-209c0 -52.667 1.66699 -89.334 5 -110.001zM233.999 151.999v98c-88.667 0 -133 -37.333 -133 -112c0 -28.667 6 -50.167 18 -64.5s25.667 -21.5 41 -21.5
c17.333 0 32.5 6.33301 45.5 19s21.833 30.667 26.5 54c1.33301 6 2 15 2 27zM217.999 681.999h79l-105 -135h-51z" />
    <glyph glyph-name="acircumflex" unicode="&#xe2;" horiz-adv-x="364" 
d="M315 0l-70.001 -0.000976562l-5 51h-3c-22 -39.333 -54 -59 -96 -59c-32.667 0 -60 12.833 -82 38.5s-33 58.834 -33 99.501c0 57.333 19.667 100.833 59 130.5s88.333 44.834 147 45.501v15c0 35.333 -5.66699 62.5 -17 81.5s-31.333 28.5 -60 28.5
c-28 0 -54.667 -8.33301 -80 -25l-17 54c28.667 21.333 66.334 32 113.001 32c92.667 0 139 -57.667 139 -173v-209c0 -52.667 1.66699 -89.334 5 -110.001zM233.999 151.999v98c-88.667 0 -133 -37.333 -133 -112c0 -28.667 6 -50.167 18 -64.5s25.667 -21.5 41 -21.5
c17.333 0 32.5 6.33301 45.5 19s21.833 30.667 26.5 54c1.33301 6 2 15 2 27zM152.999 681.999h52l79 -135h-57l-47 86h-2l-46 -86h-58z" />
    <glyph glyph-name="atilde" unicode="&#xe3;" horiz-adv-x="364" 
d="M315 0l-70.001 -0.000976562l-5 51h-3c-22 -39.333 -54 -59 -96 -59c-32.667 0 -60 12.833 -82 38.5s-33 58.834 -33 99.501c0 57.333 19.667 100.833 59 130.5s88.333 44.834 147 45.501v15c0 35.333 -5.66699 62.5 -17 81.5s-31.333 28.5 -60 28.5
c-28 0 -54.667 -8.33301 -80 -25l-17 54c28.667 21.333 66.334 32 113.001 32c92.667 0 139 -57.667 139 -173v-209c0 -52.667 1.66699 -89.334 5 -110.001zM233.999 151.999v98c-88.667 0 -133 -37.333 -133 -112c0 -28.667 6 -50.167 18 -64.5s25.667 -21.5 41 -21.5
c17.333 0 32.5 6.33301 45.5 19s21.833 30.667 26.5 54c1.33301 6 2 15 2 27zM115.999 560.999h-42.998c0 27.333 5.33301 49.833 16 67.5s26 26.5 46 26.5c12.667 0 29 -5.66699 49 -17c17.333 -11.333 30.666 -17 39.999 -17c15.333 0 23.666 12 24.999 36h41
c0 -60 -21 -90 -63 -90c-14 0 -30.333 5.66699 -49 17c-20 11.333 -32.667 17 -38 17c-14 0 -22 -13.333 -24 -40z" />
    <glyph glyph-name="adieresis" unicode="&#xe4;" horiz-adv-x="364" 
d="M315 0l-70.001 -0.000976562l-5 51h-3c-22 -39.333 -54 -59 -96 -59c-32.667 0 -60 12.833 -82 38.5s-33 58.834 -33 99.501c0 57.333 19.667 100.833 59 130.5s88.333 44.834 147 45.501v15c0 35.333 -5.66699 62.5 -17 81.5s-31.333 28.5 -60 28.5
c-28 0 -54.667 -8.33301 -80 -25l-17 54c28.667 21.333 66.334 32 113.001 32c92.667 0 139 -57.667 139 -173v-209c0 -52.667 1.66699 -89.334 5 -110.001zM233.999 151.999v98c-88.667 0 -133 -37.333 -133 -112c0 -28.667 6 -50.167 18 -64.5s25.667 -21.5 41 -21.5
c17.333 0 32.5 6.33301 45.5 19s21.833 30.667 26.5 54c1.33301 6 2 15 2 27zM104.999 565.999c-12.667 0 -23.334 4.16504 -32.001 12.498s-13 18.833 -13 31.5s4.33301 23.334 13 32.001s19.334 13 32.001 13c12 0 22 -4.16699 30 -12.5s12 -19.166 12 -32.499
c0 -12.667 -4 -23.167 -12 -31.5s-18 -12.5 -30 -12.5zM259.999 565.997c-12.667 0 -23.167 4.16504 -31.5 12.498s-12.5 18.833 -12.5 31.5s4.33301 23.334 13 32.001s19 13 31 13s22.167 -4.16699 30.5 -12.5s12.5 -19.166 12.5 -32.499c0 -12.667 -4 -23.167 -12 -31.5
s-18.333 -12.5 -31 -12.5z" />
    <glyph glyph-name="aring" unicode="&#xe5;" horiz-adv-x="364" 
d="M315 0l-70.001 -0.000976562l-5 51h-3c-22 -39.333 -54 -59 -96 -59c-32.667 0 -60 12.833 -82 38.5s-33 58.834 -33 99.501c0 57.333 19.667 100.833 59 130.5s88.333 44.834 147 45.501v15c0 35.333 -5.66699 62.5 -17 81.5s-31.333 28.5 -60 28.5
c-28 0 -54.667 -8.33301 -80 -25l-17 54c28.667 21.333 66.334 32 113.001 32c92.667 0 139 -57.667 139 -173v-209c0 -52.667 1.66699 -89.334 5 -110.001zM233.999 151.999v98c-88.667 0 -133 -37.333 -133 -112c0 -28.667 6 -50.167 18 -64.5s25.667 -21.5 41 -21.5
c17.333 0 32.5 6.33301 45.5 19s21.833 30.667 26.5 54c1.33301 6 2 15 2 27zM180.999 532.999c-28 0 -50.5 8.16699 -67.5 24.5s-25.5 36.5 -25.5 60.5c0 25.333 8.33301 46.5 25 63.5s39.667 25.5 69 25.5c26.667 0 48.5 -8.5 65.5 -25.5s25.5 -37.833 25.5 -62.5
s-8.66699 -45.167 -26 -61.5s-39.333 -24.5 -66 -24.5zM179.999 567.999c14.667 0 26.333 5.00098 35 15.001s13 22.333 13 37s-4.33301 27 -13 37s-20.667 15 -36 15c-14 0 -25 -5.33301 -33 -16s-12 -23.334 -12 -38.001c0 -12.667 4.16699 -24.167 12.5 -34.5
s19.5 -15.5 33.5 -15.5z" />
    <glyph glyph-name="ae" unicode="&#xe6;" horiz-adv-x="561" 
d="M531 241l-224.001 0.000976562c0 -69.333 10 -118 30 -146s47.667 -42 83 -42c30 0 57.333 7 82 21l13 -55c-28 -18 -65 -27 -111 -27c-30 0 -57.333 8.16699 -82 24.5s-41.667 39.166 -51 68.499h-2c-10.667 -29.333 -26.667 -52.166 -48 -68.499
s-46.666 -24.5 -75.999 -24.5c-34.667 0 -63.167 12.833 -85.5 38.5s-33.5 59.5 -33.5 101.5c0 55.333 19.667 97.5 59 126.5s88.666 43.5 147.999 43.5v27c0 30.667 -6.66699 55.334 -20 74.001s-33.666 28 -60.999 28c-28 0 -54 -8.33301 -78 -25l-17 53
c32.667 22 69.667 33 111 33c26.667 0 50.167 -7.33301 70.5 -22s33.833 -36.334 40.5 -65.001h2c10.667 27.333 26.5 48.666 47.5 63.999s44.5 23 70.5 23c44 0 77.167 -20.833 99.5 -62.5s33.5 -92.167 33.5 -151.5c0 -4 -0.166992 -10 -0.5 -18s-0.5 -14.333 -0.5 -19z
M233.999 154.001v95c-14 0 -27.167 -1.16699 -39.5 -3.5s-26.666 -6.83301 -42.999 -13.5s-29.333 -18.167 -39 -34.5s-14.5 -36.5 -14.5 -60.5c0 -28 6.16699 -49 18.5 -63s27.166 -21 44.499 -21c16.667 0 31.5 6.5 44.5 19.5s21.5 30.833 25.5 53.5c2 6 3 15.333 3 28z
M307.999 296.001h150.001c1.33301 43.333 -4.83398 77 -18.501 101s-30.5 36 -50.5 36c-24.667 0 -44 -13.667 -58 -41s-21.667 -59.333 -23 -96z" />
    <glyph glyph-name="ccedilla" unicode="&#xe7;" horiz-adv-x="301" 
d="M280 72l12 -59.002c-20.667 -11.333 -46.334 -17.666 -77.001 -18.999l-22 -44c17.333 -2.66699 32.5 -10.667 45.5 -24s19.5 -29 19.5 -47c0 -26.667 -9 -46.5 -27 -59.5s-39.333 -19.5 -64 -19.5c-23.333 0 -45.666 6 -66.999 18l16 42c16 -10 32.667 -15 50 -15
c24 0 36 10.333 36 31c0 24 -22.667 38.333 -68 43l35 80c-42.667 10 -76 35.333 -100 76s-36 95.334 -36 164.001c0 72 17.167 132 51.5 180s80.833 72 139.5 72c28 0 50.667 -5 68 -15l-15 -63c-17.333 8.66699 -35.666 13 -54.999 13c-36 0 -63.667 -18.167 -83 -54.5
s-29 -80.5 -29 -132.5c0 -56.667 10.167 -101 30.5 -133s48.166 -48 83.499 -48c22 0 40.667 4.66699 56 14z" />
    <glyph glyph-name="egrave" unicode="&#xe8;" horiz-adv-x="363" 
d="M333 235l-225.002 0.000976562c0.666992 -120 39 -180 115 -180c31.333 0 58 6.33301 80 19l12 -57c-27.333 -15.333 -62.666 -23 -105.999 -23c-56.667 0 -100.167 21.667 -130.5 65s-45.5 102.666 -45.5 177.999c0 78 15 140 45 186s69.333 69 118 69
c46.667 0 81.334 -20.5 104.001 -61.5s34 -91.833 34 -152.5c0 -20.667 -0.333008 -35 -1 -43zM108.998 292.001h151c0.666992 45.333 -6 80 -20 104s-31.333 36 -52 36c-23.333 0 -41.833 -14.167 -55.5 -42.5s-21.5 -60.833 -23.5 -97.5zM73.998 682.001h79l77 -135h-51z
" />
    <glyph glyph-name="eacute" unicode="&#xe9;" horiz-adv-x="363" 
d="M333 235l-225.002 0.000976562c0.666992 -120 39 -180 115 -180c31.333 0 58 6.33301 80 19l12 -57c-27.333 -15.333 -62.666 -23 -105.999 -23c-56.667 0 -100.167 21.667 -130.5 65s-45.5 102.666 -45.5 177.999c0 78 15 140 45 186s69.333 69 118 69
c46.667 0 81.334 -20.5 104.001 -61.5s34 -91.833 34 -152.5c0 -20.667 -0.333008 -35 -1 -43zM108.998 292.001h151c0.666992 45.333 -6 80 -20 104s-31.333 36 -52 36c-23.333 0 -41.833 -14.167 -55.5 -42.5s-21.5 -60.833 -23.5 -97.5zM234.998 682.001h79l-105 -135
h-51z" />
    <glyph glyph-name="ecircumflex" unicode="&#xea;" horiz-adv-x="363" 
d="M333 235l-225.002 0.000976562c0.666992 -120 39 -180 115 -180c31.333 0 58 6.33301 80 19l12 -57c-27.333 -15.333 -62.666 -23 -105.999 -23c-56.667 0 -100.167 21.667 -130.5 65s-45.5 102.666 -45.5 177.999c0 78 15 140 45 186s69.333 69 118 69
c46.667 0 81.334 -20.5 104.001 -61.5s34 -91.833 34 -152.5c0 -20.667 -0.333008 -35 -1 -43zM108.998 292.001h151c0.666992 45.333 -6 80 -20 104s-31.333 36 -52 36c-23.333 0 -41.833 -14.167 -55.5 -42.5s-21.5 -60.833 -23.5 -97.5zM167.998 682.001h52l79 -135h-57
l-47 86h-2l-46 -86h-58z" />
    <glyph glyph-name="edieresis" unicode="&#xeb;" horiz-adv-x="363" 
d="M333 235l-225.002 0.000976562c0.666992 -120 39 -180 115 -180c31.333 0 58 6.33301 80 19l12 -57c-27.333 -15.333 -62.666 -23 -105.999 -23c-56.667 0 -100.167 21.667 -130.5 65s-45.5 102.666 -45.5 177.999c0 78 15 140 45 186s69.333 69 118 69
c46.667 0 81.334 -20.5 104.001 -61.5s34 -91.833 34 -152.5c0 -20.667 -0.333008 -35 -1 -43zM108.998 292.001h151c0.666992 45.333 -6 80 -20 104s-31.333 36 -52 36c-23.333 0 -41.833 -14.167 -55.5 -42.5s-21.5 -60.833 -23.5 -97.5zM119.998 566.001
c-12.667 0 -23.334 4.16504 -32.001 12.498s-13 18.833 -13 31.5s4.33301 23.334 13 32.001s19.334 13 32.001 13c12 0 22 -4.16699 30 -12.5s12 -19.166 12 -32.499c0 -12.667 -4 -23.167 -12 -31.5s-18 -12.5 -30 -12.5zM274.998 565.999
c-12.667 0 -23.167 4.16504 -31.5 12.498s-12.5 18.833 -12.5 31.5s4.33301 23.334 13 32.001s19 13 31 13s22.167 -4.16699 30.5 -12.5s12.5 -19.166 12.5 -32.499c0 -12.667 -4 -23.167 -12 -31.5s-18.333 -12.5 -31 -12.5z" />
    <glyph glyph-name="igrave" unicode="&#xec;" horiz-adv-x="184" 
d="M131 0h-77v484h77v-484zM-28 682h79l77 -135h-52z" />
    <glyph glyph-name="iacute" unicode="&#xed;" horiz-adv-x="184" 
d="M131 0h-77v484h77v-484zM131 682h79l-105 -135h-51z" />
    <glyph glyph-name="icircumflex" unicode="&#xee;" horiz-adv-x="184" 
d="M131 0h-77v484h77v-484zM67 682h52l79 -135h-58l-46 86h-2l-46 -86h-58z" />
    <glyph glyph-name="idieresis" unicode="&#xef;" horiz-adv-x="184" 
d="M131 0h-77v484h77v-484zM16 566c-12.667 0 -23.334 4.16504 -32.001 12.498s-13 18.833 -13 31.5s4.33301 23.334 13 32.001s19.334 13 32.001 13c12 0 22 -4.16699 30 -12.5s12 -19.166 12 -32.499c0 -12.667 -4 -23.167 -12 -31.5s-18 -12.5 -30 -12.5zM171 565.998
c-12.667 0 -23.167 4.16504 -31.5 12.498s-12.5 18.833 -12.5 31.5s4.33301 23.334 13 32.001s19 13 31 13s22.167 -4.16699 30.5 -12.5s12.5 -19.166 12.5 -32.499c0 -12.667 -4 -23.167 -12 -31.5s-18.333 -12.5 -31 -12.5z" />
    <glyph glyph-name="eth" unicode="&#xf0;" horiz-adv-x="381" 
d="M191 53c16 0 29.501 6 40.501 18s19.167 27.833 24.5 47.5s9.16602 39.167 11.499 58.5s3.5 39.333 3.5 60c0 68.667 -5 117 -15 145c-10 32.667 -31.333 49 -64 49c-16.667 0 -30.667 -6.33301 -42 -19s-19.833 -29.5 -25.5 -50.5s-9.5 -41 -11.5 -60s-3 -38.5 -3 -58.5
c0 -31.333 1.83301 -60 5.5 -86s12 -49.833 25 -71.5s29.833 -32.5 50.5 -32.5zM79.001 508l-19.998 32.999l84 48c-6.66699 8 -30.334 32.333 -71.001 73l45 41c36 -32 64 -59.333 84 -82l91 52l20 -35l-84 -47c32.667 -38.667 59.334 -80.667 80.001 -126
c26.667 -57.333 40 -129.666 40 -216.999c0.666992 -87.333 -15 -151.833 -47 -193.5s-69.667 -62.5 -113 -62.5c-46 0 -83.333 21.333 -112 64s-43 104.334 -43 185.001c0 79.333 15 140.166 45 182.499s65.333 63.5 106 63.5c17.333 0 32.666 -5.33301 45.999 -16l2 3
c-12.667 27.333 -32.334 56 -59.001 86z" />
    <glyph glyph-name="ntilde" unicode="&#xf1;" horiz-adv-x="405" 
d="M54 0l0.00292969 359c0 22 -0.666992 47 -2 75s-2 44.667 -2 50h67l4 -58h2c24 44 61 66 111 66c35.333 0 63.666 -13.833 84.999 -41.5s32 -69.5 32 -125.5v-325h-77v312c0 76.667 -22.333 115 -67 115c-16.667 0 -31.834 -6.83301 -45.501 -20.5
s-22.834 -33.167 -27.501 -58.5c-2 -12 -3 -26.333 -3 -43v-305h-77zM138.003 561h-41.999c-0.666992 27.333 4.33301 49.833 15 67.5s26 26.5 46 26.5c12.667 0 29 -5.66699 49 -17c18.667 -11.333 32 -17 40 -17c15.333 0 23.666 12 24.999 36h41c0 -60 -21 -90 -63 -90
c-12.667 0 -29 5.66699 -49 17s-32.333 17 -37 17c-14.667 0 -23 -13.333 -25 -40z" />
    <glyph glyph-name="ograve" unicode="&#xf2;" horiz-adv-x="383" 
d="M195 492c45.333 0 82.668 -21.499 112.001 -64.499s44 -104.833 44 -185.5c0 -86 -16 -149.167 -48 -189.5s-69.667 -60.5 -113 -60.5c-46 0 -83.667 21.167 -113 63.5s-44 104.166 -44 185.499c0 83.333 15.667 146 47 188s69.666 63 114.999 63zM192.002 430.001
c-16 0 -29.8369 -6.16602 -41.5039 -18.499s-20.167 -28.5 -25.5 -48.5s-9.16602 -39.833 -11.499 -59.5s-3.5 -40.167 -3.5 -61.5c0 -22.667 1.16699 -44 3.5 -64s6.33301 -40 12 -60s14.334 -35.833 26.001 -47.5s25.834 -17.5 42.501 -17.5
c15.333 0 28.666 6.16699 39.999 18.5s19.5 28.666 24.5 48.999s8.66699 40.333 11 60s3.5 40.167 3.5 61.5s-1.16699 41.833 -3.5 61.5s-6.16602 39.5 -11.499 59.5s-13.666 36.167 -24.999 48.5s-25 18.5 -41 18.5zM76.998 682.002h79l77 -135h-51z" />
    <glyph glyph-name="oacute" unicode="&#xf3;" horiz-adv-x="383" 
d="M195 492c45.333 0 82.668 -21.499 112.001 -64.499s44 -104.833 44 -185.5c0 -86 -16 -149.167 -48 -189.5s-69.667 -60.5 -113 -60.5c-46 0 -83.667 21.167 -113 63.5s-44 104.166 -44 185.499c0 83.333 15.667 146 47 188s69.666 63 114.999 63zM192.002 430.001
c-16 0 -29.8369 -6.16602 -41.5039 -18.499s-20.167 -28.5 -25.5 -48.5s-9.16602 -39.833 -11.499 -59.5s-3.5 -40.167 -3.5 -61.5c0 -22.667 1.16699 -44 3.5 -64s6.33301 -40 12 -60s14.334 -35.833 26.001 -47.5s25.834 -17.5 42.501 -17.5
c15.333 0 28.666 6.16699 39.999 18.5s19.5 28.666 24.5 48.999s8.66699 40.333 11 60s3.5 40.167 3.5 61.5s-1.16699 41.833 -3.5 61.5s-6.16602 39.5 -11.499 59.5s-13.666 36.167 -24.999 48.5s-25 18.5 -41 18.5zM230.998 682.002h79l-105 -135h-51z" />
    <glyph glyph-name="ocircumflex" unicode="&#xf4;" horiz-adv-x="383" 
d="M195 492c45.333 0 82.668 -21.499 112.001 -64.499s44 -104.833 44 -185.5c0 -86 -16 -149.167 -48 -189.5s-69.667 -60.5 -113 -60.5c-46 0 -83.667 21.167 -113 63.5s-44 104.166 -44 185.499c0 83.333 15.667 146 47 188s69.666 63 114.999 63zM192.002 430.001
c-16 0 -29.8369 -6.16602 -41.5039 -18.499s-20.167 -28.5 -25.5 -48.5s-9.16602 -39.833 -11.499 -59.5s-3.5 -40.167 -3.5 -61.5c0 -22.667 1.16699 -44 3.5 -64s6.33301 -40 12 -60s14.334 -35.833 26.001 -47.5s25.834 -17.5 42.501 -17.5
c15.333 0 28.666 6.16699 39.999 18.5s19.5 28.666 24.5 48.999s8.66699 40.333 11 60s3.5 40.167 3.5 61.5s-1.16699 41.833 -3.5 61.5s-6.16602 39.5 -11.499 59.5s-13.666 36.167 -24.999 48.5s-25 18.5 -41 18.5zM165.998 682.002h52l79 -135h-58l-46 86h-2l-46 -86h-58
z" />
    <glyph glyph-name="otilde" unicode="&#xf5;" horiz-adv-x="383" 
d="M195 492c45.333 0 82.668 -21.499 112.001 -64.499s44 -104.833 44 -185.5c0 -86 -16 -149.167 -48 -189.5s-69.667 -60.5 -113 -60.5c-46 0 -83.667 21.167 -113 63.5s-44 104.166 -44 185.499c0 83.333 15.667 146 47 188s69.666 63 114.999 63zM192.002 430.001
c-16 0 -29.8369 -6.16602 -41.5039 -18.499s-20.167 -28.5 -25.5 -48.5s-9.16602 -39.833 -11.499 -59.5s-3.5 -40.167 -3.5 -61.5c0 -22.667 1.16699 -44 3.5 -64s6.33301 -40 12 -60s14.334 -35.833 26.001 -47.5s25.834 -17.5 42.501 -17.5
c15.333 0 28.666 6.16699 39.999 18.5s19.5 28.666 24.5 48.999s8.66699 40.333 11 60s3.5 40.167 3.5 61.5s-1.16699 41.833 -3.5 61.5s-6.16602 39.5 -11.499 59.5s-13.666 36.167 -24.999 48.5s-25 18.5 -41 18.5zM125.998 561.002h-41.999
c-0.666992 27.333 4.33301 49.833 15 67.5s26 26.5 46 26.5c12.667 0 29 -5.66699 49 -17c18.667 -11.333 32 -17 40 -17c15.333 0 23.666 12 24.999 36h41c0 -60 -21 -90 -63 -90c-12.667 0 -29 5.66699 -49 17s-32.333 17 -37 17c-14.667 0 -23 -13.333 -25 -40z" />
    <glyph glyph-name="odieresis" unicode="&#xf6;" horiz-adv-x="383" 
d="M195 492c45.333 0 82.668 -21.499 112.001 -64.499s44 -104.833 44 -185.5c0 -86 -16 -149.167 -48 -189.5s-69.667 -60.5 -113 -60.5c-46 0 -83.667 21.167 -113 63.5s-44 104.166 -44 185.499c0 83.333 15.667 146 47 188s69.666 63 114.999 63zM192.002 430.001
c-16 0 -29.8369 -6.16602 -41.5039 -18.499s-20.167 -28.5 -25.5 -48.5s-9.16602 -39.833 -11.499 -59.5s-3.5 -40.167 -3.5 -61.5c0 -22.667 1.16699 -44 3.5 -64s6.33301 -40 12 -60s14.334 -35.833 26.001 -47.5s25.834 -17.5 42.501 -17.5
c15.333 0 28.666 6.16699 39.999 18.5s19.5 28.666 24.5 48.999s8.66699 40.333 11 60s3.5 40.167 3.5 61.5s-1.16699 41.833 -3.5 61.5s-6.16602 39.5 -11.499 59.5s-13.666 36.167 -24.999 48.5s-25 18.5 -41 18.5zM114.998 566.002
c-12.667 0 -23.334 4.16504 -32.001 12.498s-13 18.833 -13 31.5s4.33301 23.334 13 32.001s19.334 13 32.001 13c12 0 22 -4.16699 30 -12.5s12 -19.166 12 -32.499c0 -12.667 -4 -23.167 -12 -31.5s-18 -12.5 -30 -12.5zM269.998 566
c-12.667 0 -23.167 4.16504 -31.5 12.498s-12.5 18.833 -12.5 31.5s4.33301 23.334 13 32.001s19 13 31 13s22.167 -4.16699 30.5 -12.5s12.5 -19.166 12.5 -32.499c0 -12.667 -4 -23.167 -12 -31.5s-18.333 -12.5 -31 -12.5z" />
    <glyph glyph-name="divide" unicode="&#xf7;" horiz-adv-x="596" 
d="M298 397c-13.333 0 -24 4.33301 -32 13s-12 19.667 -12 33c0 14 4 25.333 12 34s18.667 13 32 13c14 0 25 -4.33301 33 -13s12 -20 12 -34s-4 -25.167 -12 -33.5s-19 -12.5 -33 -12.5zM556 240h-516v54h516v-54zM298 44c-13.333 0 -24 4.33301 -32 13s-12 19.667 -12 33
c0 14 4 25.333 12 34s18.667 13 32 13c14 0 25 -4.33301 33 -13s12 -20 12 -34s-4 -25.167 -12 -33.5s-19 -12.5 -33 -12.5z" />
    <glyph glyph-name="oslash" unicode="&#xf8;" horiz-adv-x="383" 
d="M192 492c29.333 0 56.667 -10 82 -30l25 53l42 -22l-34 -68c29.333 -42.667 44 -103.667 44 -183c0 -85.333 -16 -148.333 -48 -189s-69 -61 -111 -61c-30.667 0 -57.667 9.33301 -81 28l-26 -53l-39 25l31 64c-29.333 43.333 -44 105 -44 185
c0 82.667 15.5 145.167 46.5 187.5s68.5 63.5 112.5 63.5zM122.001 131l121 267.001c-8.66699 21.333 -25.667 32 -51 32c-17.333 0 -32 -6.33301 -44 -19s-20.833 -29.334 -26.5 -50.001s-9.5 -40.5 -11.5 -59.5s-3 -38.833 -3 -59.5c0 -42 4.33301 -78.667 13 -110z
M263.001 348.001l-120 -264.001c10 -20.667 26.333 -31 49 -31c16.667 0 31 5.83301 43 17.5s20.833 27.334 26.5 47.001s9.66699 39.167 12 58.5s3.5 39.666 3.5 60.999c0 40.667 -4 77.334 -12 110.001z" />
    <glyph glyph-name="ugrave" unicode="&#xf9;" horiz-adv-x="398" 
d="M344 484l-0.00292969 -351.999c0 -21.333 0.666992 -48.5 2 -81.5s2 -49.833 2 -50.5h-67l-5 51h-2c-9.33301 -14.667 -23.166 -28.167 -41.499 -40.5s-39.166 -18.5 -62.499 -18.5c-41.333 0 -71.333 15.5 -90 46.5s-28 77.5 -28 139.5v306h77v-295
c0 -42.667 4.66699 -75.334 14 -98.001s26.333 -34 51 -34c20 0 35.833 7 47.5 21s18.834 28.333 21.501 43c2.66699 11.333 4 26 4 44v319h77zM84.9971 682.001h79l77 -135h-51z" />
    <glyph glyph-name="uacute" unicode="&#xfa;" horiz-adv-x="398" 
d="M344 484l-0.00292969 -351.999c0 -21.333 0.666992 -48.5 2 -81.5s2 -49.833 2 -50.5h-67l-5 51h-2c-9.33301 -14.667 -23.166 -28.167 -41.499 -40.5s-39.166 -18.5 -62.499 -18.5c-41.333 0 -71.333 15.5 -90 46.5s-28 77.5 -28 139.5v306h77v-295
c0 -42.667 4.66699 -75.334 14 -98.001s26.333 -34 51 -34c20 0 35.833 7 47.5 21s18.834 28.333 21.501 43c2.66699 11.333 4 26 4 44v319h77zM244.997 682.001h79l-105 -135h-51z" />
    <glyph glyph-name="ucircumflex" unicode="&#xfb;" horiz-adv-x="398" 
d="M344 484l-0.00292969 -351.999c0 -21.333 0.666992 -48.5 2 -81.5s2 -49.833 2 -50.5h-67l-5 51h-2c-9.33301 -14.667 -23.166 -28.167 -41.499 -40.5s-39.166 -18.5 -62.499 -18.5c-41.333 0 -71.333 15.5 -90 46.5s-28 77.5 -28 139.5v306h77v-295
c0 -42.667 4.66699 -75.334 14 -98.001s26.333 -34 51 -34c20 0 35.833 7 47.5 21s18.834 28.333 21.501 43c2.66699 11.333 4 26 4 44v319h77zM172.997 682.001h52l79 -135h-57l-47 86h-2l-46 -86h-58z" />
    <glyph glyph-name="udieresis" unicode="&#xfc;" horiz-adv-x="398" 
d="M344 484l-0.00292969 -351.999c0 -21.333 0.666992 -48.5 2 -81.5s2 -49.833 2 -50.5h-67l-5 51h-2c-9.33301 -14.667 -23.166 -28.167 -41.499 -40.5s-39.166 -18.5 -62.499 -18.5c-41.333 0 -71.333 15.5 -90 46.5s-28 77.5 -28 139.5v306h77v-295
c0 -42.667 4.66699 -75.334 14 -98.001s26.333 -34 51 -34c20 0 35.833 7 47.5 21s18.834 28.333 21.501 43c2.66699 11.333 4 26 4 44v319h77zM124.997 566.001c-12.667 0 -23.334 4.16504 -32.001 12.498s-13 18.833 -13 31.5s4.33301 23.334 13 32.001
s19.334 13 32.001 13c12 0 22 -4.16699 30 -12.5s12 -19.166 12 -32.499c0 -12.667 -4 -23.167 -12 -31.5s-18 -12.5 -30 -12.5zM279.997 565.999c-12.667 0 -23.167 4.16504 -31.5 12.498s-12.5 18.833 -12.5 31.5s4.33301 23.334 13 32.001s19 13 31 13
s22.167 -4.16699 30.5 -12.5s12.5 -19.166 12.5 -32.499c0 -12.667 -4 -23.167 -12 -31.5s-18.333 -12.5 -31 -12.5z" />
    <glyph glyph-name="yacute" unicode="&#xfd;" horiz-adv-x="346" 
d="M13 484h81l64 -278c2.66699 -11.333 5.16699 -22.833 7.5 -34.5l7 -36.5c2.33301 -12.667 4.16602 -22.334 5.49902 -29.001h2c4.66699 25.333 11.667 58.333 21 99l57 279h76l-79 -311c-18 -74 -36 -136.167 -54 -186.5s-40 -92.166 -66 -125.499
c-28 -35.333 -57 -60 -87 -74l-28 66c23.333 12.667 46 33 68 61c18.667 23.333 33.334 50.333 44.001 81c3.33301 10 5 18 5 24c0 8 -0.666992 14 -2 18zM216 682h79l-105 -135h-51z" />
    <glyph glyph-name="thorn" unicode="&#xfe;" horiz-adv-x="399" 
d="M53 692h76v-268h2c22 45.333 55.333 68 100 68c40 0 72.5 -22 97.5 -66s37.5 -105 37.5 -183c0 -82.667 -14.5 -145.167 -43.5 -187.5s-62.833 -63.5 -101.5 -63.5c-42 0 -71.667 19 -89 57h-2v-241h-77v884zM130 301l0.00292969 -124c0 -16.667 1.33301 -30 4 -40
c6.66699 -30 16.667 -51 30 -63s26.666 -18 39.999 -18c56 0 84 62 84 186c0 54 -6.83301 98.167 -20.5 132.5s-34.834 51.5 -63.501 51.5c-17.333 0 -32.833 -8.83301 -46.5 -26.5s-21.834 -38.167 -24.501 -61.5c-2 -8 -3 -20.333 -3 -37z" />
    <glyph glyph-name="ydieresis" unicode="&#xff;" horiz-adv-x="346" 
d="M13 484h81l64 -278c2.66699 -11.333 5.16699 -22.833 7.5 -34.5l7 -36.5c2.33301 -12.667 4.16602 -22.334 5.49902 -29.001h2c4.66699 25.333 11.667 58.333 21 99l57 279h76l-79 -311c-18 -74 -36 -136.167 -54 -186.5s-40 -92.166 -66 -125.499
c-28 -35.333 -57 -60 -87 -74l-28 66c23.333 12.667 46 33 68 61c18.667 23.333 33.334 50.333 44.001 81c3.33301 10 5 18 5 24c0 8 -0.666992 14 -2 18zM100 566c-12.667 0 -23.334 4.16504 -32.001 12.498s-13 18.833 -13 31.5s4.33301 23.334 13 32.001
s19.334 13 32.001 13c12 0 22 -4.16699 30 -12.5s12 -19.166 12 -32.499c0 -12.667 -4 -23.167 -12 -31.5s-18 -12.5 -30 -12.5zM255 565.998c-12.667 0 -23.167 4.16504 -31.5 12.498s-12.5 18.833 -12.5 31.5s4.16699 23.334 12.5 32.001s18.833 13 31.5 13
c12 0 22.167 -4.16699 30.5 -12.5s12.5 -19.166 12.5 -32.499c0 -12.667 -4.16699 -23.167 -12.5 -31.5s-18.5 -12.5 -30.5 -12.5z" />
    <glyph glyph-name="Amacron" unicode="&#x100;" horiz-adv-x="435" 
d="M290 202h-149l-45 -202h-74l154 674h85l150 -674h-76zM152 264h128l-35 171c-6.66699 32.667 -15.667 84 -27 154h-4c-9.33301 -58.667 -18.333 -110 -27 -154zM111 788h213v-53h-213v53z" />
    <glyph glyph-name="amacron" unicode="&#x101;" horiz-adv-x="364" 
d="M315 0l-70.001 -0.000976562l-5 51h-3c-22 -39.333 -54 -59 -96 -59c-32.667 0 -60 12.833 -82 38.5s-33 58.834 -33 99.501c0 57.333 19.667 100.833 59 130.5s88.333 44.834 147 45.501v15c0 35.333 -5.66699 62.5 -17 81.5s-31.333 28.5 -60 28.5
c-28 0 -54.667 -8.33301 -80 -25l-17 54c28.667 21.333 66.334 32 113.001 32c92.667 0 139 -57.667 139 -173v-209c0 -52.667 1.66699 -89.334 5 -110.001zM233.999 151.999v98c-88.667 0 -133 -37.333 -133 -112c0 -28.667 6 -50.167 18 -64.5s25.667 -21.5 41 -21.5
c17.333 0 32.5 6.33301 45.5 19s21.833 30.667 26.5 54c1.33301 6 2 15 2 27zM83.999 630.999h197v-50h-197v50z" />
    <glyph glyph-name="Abreve" unicode="&#x102;" horiz-adv-x="435" 
d="M290 202h-149l-45 -202h-74l154 674h85l150 -674h-76zM152 264h128l-35 171c-6.66699 32.667 -15.667 84 -27 154h-4c-9.33301 -58.667 -18.333 -110 -27 -154zM111 808h45.001c5.33301 -29.333 25.666 -44 60.999 -44s56 14.667 62 44h45
c0 -29.333 -9.5 -52.833 -28.5 -70.5s-44.833 -26.5 -77.5 -26.5c-33.333 0 -59.5 8.5 -78.5 25.5s-28.5 40.833 -28.5 71.5z" />
    <glyph glyph-name="abreve" unicode="&#x103;" horiz-adv-x="364" 
d="M315 0l-70.001 -0.000976562l-5 51h-3c-22 -39.333 -54 -59 -96 -59c-32.667 0 -60 12.833 -82 38.5s-33 58.834 -33 99.501c0 57.333 19.667 100.833 59 130.5s88.333 44.834 147 45.501v15c0 35.333 -5.66699 62.5 -17 81.5s-31.333 28.5 -60 28.5
c-28 0 -54.667 -8.33301 -80 -25l-17 54c28.667 21.333 66.334 32 113.001 32c92.667 0 139 -57.667 139 -173v-209c0 -52.667 1.66699 -89.334 5 -110.001zM233.999 151.999v98c-88.667 0 -133 -37.333 -133 -112c0 -28.667 6 -50.167 18 -64.5s25.667 -21.5 41 -21.5
c17.333 0 32.5 6.33301 45.5 19s21.833 30.667 26.5 54c1.33301 6 2 15 2 27zM75.999 668.999h43.001c1.33301 -18.667 7.83301 -33.667 19.5 -45s25.834 -17 42.501 -17c19.333 0 34.666 5.66699 45.999 17s17.333 26.333 18 45h43
c1.33301 -33.333 -7.83398 -60.5 -27.501 -81.5s-46.167 -31.5 -79.5 -31.5s-59.5 10.667 -78.5 32s-27.833 48.333 -26.5 81z" />
    <glyph glyph-name="Aogonek" unicode="&#x104;" horiz-adv-x="435" 
d="M261 674l150.001 -674.001h-23c-30 -37.333 -45 -69.666 -45 -96.999c0 -14.667 4.16699 -26 12.5 -34s18.166 -12 29.499 -12c16 0 30 3 42 9l11 -43c-18 -14.667 -42 -22 -72 -22c-26 0 -46.5 7.33301 -61.5 22s-22.5 35 -22.5 61c0 34 17 74.667 51 122l-43 196h-149
l-45 -202h-74l154 674h85zM152.001 263.999h128l-35 171c-6.66699 32.667 -15.667 84 -27 154h-4c-9.33301 -58.667 -18.333 -110 -27 -154z" />
    <glyph glyph-name="aogonek" unicode="&#x105;" horiz-adv-x="364" 
d="M75 406l-17.001 53.9971c28.667 21.333 66.334 32 113.001 32c92.667 0 139 -57.667 139 -173v-209c0 -52.667 2.66699 -89.334 8 -110.001h-18c-27.333 -35.333 -41 -69.666 -41 -102.999c0 -14 4.16699 -25.167 12.5 -33.5s17.833 -12.5 28.5 -12.5c16.667 0 31 3 43 9
l11 -43c-20 -14.667 -44 -22 -72 -22c-26 0 -46.5 7.33301 -61.5 22s-22.5 35 -22.5 61c0 32.667 15.667 73.334 47 122.001l-5 51h-3c-22 -39.333 -54 -59 -96 -59c-32.667 0 -60 12.833 -82 38.5s-33 58.834 -33 99.501c0 57.333 19.667 100.833 59 130.5
s88.333 44.834 147 45.501v15c0 35.333 -5.66699 62.5 -17 81.5s-31.333 28.5 -60 28.5c-28 0 -54.667 -8.33301 -80 -25zM233.999 151.997v98c-88.667 0 -133 -37.333 -133 -112c0 -28.667 6 -50.167 18 -64.5s25.667 -21.5 41 -21.5c17.333 0 32.5 6.33301 45.5 19
s21.833 30.667 26.5 54c1.33301 6 2 15 2 27z" />
    <glyph glyph-name="Cacute" unicode="&#x106;" horiz-adv-x="373" 
d="M342 77l12 -65c-22.667 -12 -54.667 -18 -96 -18c-68.667 0 -123.5 28.167 -164.5 84.5s-61.5 139.833 -61.5 250.5c0 63.333 7.33301 118.833 22 166.5s34 84.334 58 110.001s49.167 44.5 75.5 56.5s53.833 18 82.5 18c38.667 0 66.667 -5.66699 84 -17l-17 -65
c-21.333 9.33301 -44 14 -68 14c-42 0 -78.5 -22.333 -109.5 -67s-46.5 -114.334 -46.5 -209.001c0 -96 14.833 -165.667 44.5 -209s67.5 -65 113.5 -65c27.333 0 51 5 71 15zM289 818h91l-125 -108h-61z" />
    <glyph glyph-name="cacute" unicode="&#x107;" horiz-adv-x="302" 
d="M280 71l10.001 -59c-20.667 -12 -47.334 -18 -80.001 -18c-54 0 -97 21.167 -129 63.5s-48 102.833 -48 181.5c0 72 17.167 132 51.5 180s80.833 72 139.5 72c28 0 50.667 -5 68 -15l-15 -63c-17.333 8.66699 -35.666 13 -54.999 13c-36 0 -63.667 -18.167 -83 -54.5
s-29 -80.5 -29 -132.5c0 -56.667 10.167 -101 30.5 -133s48.166 -48 83.499 -48c18 0 36.667 4.33301 56 13zM235.001 682h79l-105 -135h-51z" />
    <glyph glyph-name="Ccircumflex" unicode="&#x108;" horiz-adv-x="373" 
d="M342 77l12 -65c-22.667 -12 -54.667 -18 -96 -18c-68.667 0 -123.5 28.167 -164.5 84.5s-61.5 139.833 -61.5 250.5c0 63.333 7.33301 118.833 22 166.5s34 84.334 58 110.001s49.167 44.5 75.5 56.5s53.833 18 82.5 18c38.667 0 66.667 -5.66699 84 -17l-17 -65
c-21.333 9.33301 -44 14 -68 14c-42 0 -78.5 -22.333 -109.5 -67s-46.5 -114.334 -46.5 -209.001c0 -96 14.833 -165.667 44.5 -209s67.5 -65 113.5 -65c27.333 0 51 5 71 15zM202 808h66l87 -98h-67l-52 55h-2l-52 -55h-66z" />
    <glyph glyph-name="ccircumflex" unicode="&#x109;" horiz-adv-x="302" 
d="M280 71l10.001 -59c-20.667 -12 -47.334 -18 -80.001 -18c-54 0 -97 21.167 -129 63.5s-48 102.833 -48 181.5c0 72 17.167 132 51.5 180s80.833 72 139.5 72c28 0 50.667 -5 68 -15l-15 -63c-17.333 8.66699 -35.666 13 -54.999 13c-36 0 -63.667 -18.167 -83 -54.5
s-29 -80.5 -29 -132.5c0 -56.667 10.167 -101 30.5 -133s48.166 -48 83.499 -48c18 0 36.667 4.33301 56 13zM167.001 682h52l79 -135h-57l-47 86h-2l-46 -86h-58z" />
    <glyph glyph-name="Cdotaccent" unicode="&#x10a;" horiz-adv-x="373" 
d="M342 77l12 -65c-22.667 -12 -54.667 -18 -96 -18c-68.667 0 -123.5 28.167 -164.5 84.5s-61.5 139.833 -61.5 250.5c0 63.333 7.33301 118.833 22 166.5s34 84.334 58 110.001s49.167 44.5 75.5 56.5s53.833 18 82.5 18c38.667 0 66.667 -5.66699 84 -17l-17 -65
c-21.333 9.33301 -44 14 -68 14c-42 0 -78.5 -22.333 -109.5 -67s-46.5 -114.334 -46.5 -209.001c0 -96 14.833 -165.667 44.5 -209s67.5 -65 113.5 -65c27.333 0 51 5 71 15zM243 720c-12.667 0 -23.5 4.33301 -32.5 13s-13.5 19.334 -13.5 32.001s4.5 23.167 13.5 31.5
s19.833 12.5 32.5 12.5c12 0 22.167 -4.16699 30.5 -12.5s12.5 -18.833 12.5 -31.5s-4.16699 -23.334 -12.5 -32.001s-18.5 -13 -30.5 -13z" />
    <glyph glyph-name="cdotaccent" unicode="&#x10b;" horiz-adv-x="302" 
d="M280 71l10.001 -59c-20.667 -12 -47.334 -18 -80.001 -18c-54 0 -97 21.167 -129 63.5s-48 102.833 -48 181.5c0 72 17.167 132 51.5 180s80.833 72 139.5 72c28 0 50.667 -5 68 -15l-15 -63c-17.333 8.66699 -35.666 13 -54.999 13c-36 0 -63.667 -18.167 -83 -54.5
s-29 -80.5 -29 -132.5c0 -56.667 10.167 -101 30.5 -133s48.166 -48 83.499 -48c18 0 36.667 4.33301 56 13zM191.001 566c-12.667 0 -23.167 4.16504 -31.5 12.498s-12.5 18.833 -12.5 31.5s4.16699 23.334 12.5 32.001s18.833 13 31.5 13c12 0 22.167 -4.16699 30.5 -12.5
s12.5 -19.166 12.5 -32.499c0 -12.667 -4 -23.167 -12 -31.5s-18.333 -12.5 -31 -12.5z" />
    <glyph glyph-name="Ccaron" unicode="&#x10c;" horiz-adv-x="373" 
d="M342 77l12 -65c-22.667 -12 -54.667 -18 -96 -18c-68.667 0 -123.5 28.167 -164.5 84.5s-61.5 139.833 -61.5 250.5c0 63.333 7.33301 118.833 22 166.5s34 84.334 58 110.001s49.167 44.5 75.5 56.5s53.833 18 82.5 18c38.667 0 66.667 -5.66699 84 -17l-17 -65
c-21.333 9.33301 -44 14 -68 14c-42 0 -78.5 -22.333 -109.5 -67s-46.5 -114.334 -46.5 -209.001c0 -96 14.833 -165.667 44.5 -209s67.5 -65 113.5 -65c27.333 0 51 5 71 15zM277 710h-67l-87 98h68l51 -58h2l52 58h67z" />
    <glyph glyph-name="ccaron" unicode="&#x10d;" horiz-adv-x="302" 
d="M280 71l10.001 -59c-20.667 -12 -47.334 -18 -80.001 -18c-54 0 -97 21.167 -129 63.5s-48 102.833 -48 181.5c0 72 17.167 132 51.5 180s80.833 72 139.5 72c28 0 50.667 -5 68 -15l-15 -63c-17.333 8.66699 -35.666 13 -54.999 13c-36 0 -63.667 -18.167 -83 -54.5
s-29 -80.5 -29 -132.5c0 -56.667 10.167 -101 30.5 -133s48.166 -48 83.499 -48c18 0 36.667 4.33301 56 13zM217.001 547h-53l-79 135h57l47 -87h2l47 87h58z" />
    <glyph glyph-name="Dcaron" unicode="&#x10e;" horiz-adv-x="445" 
d="M60 3l-0.000976562 661c28.667 8.66699 63.334 13 104.001 13c67.333 0 120 -17 158 -51c60.667 -52.667 91 -143.667 91 -273c0 -131.333 -27 -226 -81 -284c-42.667 -48.667 -104.667 -73 -186 -73c-36 0 -64.667 2.33301 -86 7zM136.999 610l-0.00195312 -547
c7.33301 -1.33301 17 -2 29 -2c22.667 0 43.334 4.5 62.001 13.5s36.334 24 53.001 45s29.5 51.167 38.5 90.5s13.5 86.333 13.5 141c0 175.333 -53.333 263 -160 263c-15.333 0 -27.333 -1.33301 -36 -4zM227.997 710h-66l-87 98h67l52 -58h2l52 58h66z" />
    <glyph glyph-name="dcaron" unicode="&#x10f;" horiz-adv-x="409" 
d="M269 692l76 0.00195312v-576c0 -2.66699 1.33301 -41.334 4 -116.001h-66l-5 61h-3c-21.333 -46 -55 -69 -101 -69c-42 0 -76 21.833 -102 65.5s-39 104.5 -39 182.5c0 81.333 14.167 143.666 42.5 186.999s62.833 65 103.5 65s70 -19.333 88 -58h2v258zM269 171.002
l0.000976562 128.999c0 14 -0.333008 24.667 -1 32c-2.66699 25.333 -10.834 47.333 -24.501 66s-29.5 28 -47.5 28c-30 0 -51.833 -17.5 -65.5 -52.5s-20.5 -79.5 -20.5 -133.5s7 -98.167 21 -132.5s34.333 -51.5 61 -51.5c36 0 60.667 27.667 74 83
c2 8.66699 3 19.334 3 32.001zM422.001 505.001l-34 22c19.333 30 29 60 29 90c0 28 -10.667 50.667 -32 68l57 12c22 -15.333 33 -39.333 33 -72c0 -38 -17.667 -78 -53 -120z" />
    <glyph glyph-name="Dcroat" unicode="&#x110;" horiz-adv-x="453" 
d="M0 323l0.000976562 57h69v284c28 8.66699 62.333 13 103 13c67.333 0 120 -17 158 -51c60.667 -51.333 91 -143 91 -275s-27 -227 -81 -285c-42 -48 -103.667 -72 -185 -72c-36.667 0 -65.334 2.33301 -86.001 7v322h-69zM247.001 380v-57h-102v-263
c8 -1.33301 18 -2 30 -2c48.667 0 88.667 22.333 120 67s47 120 47 226c0 175.333 -53.667 263 -161 263c-9.33301 0 -21.333 -1.33301 -36 -4v-230h102z" />
    <glyph glyph-name="dcroat" unicode="&#x111;" horiz-adv-x="399" 
d="M403 543l-58 0.00195312v-427c0 -2.66699 1.33301 -41.334 4 -116.001h-66l-5 61h-3c-21.333 -46 -55 -69 -101 -69c-42 0 -76 21.833 -102 65.5s-39 104.5 -39 182.5c0 81.333 14.167 143.666 42.5 186.999s62.833 65 103.5 65s70 -19.333 88 -58h2v109h-131v54h131v95
h76v-95h58v-54zM269 171.002l0.000976562 128.999c0 14 -0.333008 24.667 -1 32c-2.66699 25.333 -10.834 47.333 -24.501 66s-29.5 28 -47.5 28c-30 0 -51.833 -17.5 -65.5 -52.5s-20.5 -79.5 -20.5 -133.5s7 -98.167 21 -132.5s34.333 -51.5 61 -51.5
c36 0 60.667 27.667 74 83c2 8.66699 3 19.334 3 32.001z" />
    <glyph glyph-name="Emacron" unicode="&#x112;" horiz-adv-x="354" 
d="M306 385v-65h-169v-253h192v-67h-269v674h257v-67h-180v-222h169zM86 788h213v-53h-213v53z" />
    <glyph glyph-name="emacron" unicode="&#x113;" horiz-adv-x="363" 
d="M333 235l-225.002 0.000976562c0.666992 -120 39 -180 115 -180c31.333 0 58 6.33301 80 19l12 -57c-27.333 -15.333 -62.666 -23 -105.999 -23c-56.667 0 -100.167 21.667 -130.5 65s-45.5 102.666 -45.5 177.999c0 78 15 140 45 186s69.333 69 118 69
c46.667 0 81.334 -20.5 104.001 -61.5s34 -91.833 34 -152.5c0 -20.667 -0.333008 -35 -1 -43zM108.998 292.001h151c0.666992 45.333 -6 80 -20 104s-31.333 36 -52 36c-23.333 0 -41.833 -14.167 -55.5 -42.5s-21.5 -60.833 -23.5 -97.5zM88.998 631.001h197v-50h-197v50z
" />
    <glyph glyph-name="Ebreve" unicode="&#x114;" horiz-adv-x="354" 
d="M306 385v-65h-169v-253h192v-67h-269v674h257v-67h-180v-222h169zM84 809l45.001 0.000976562c5.33301 -28.667 25.666 -43 60.999 -43s56 14.333 62 43h45c0 -28.667 -9.5 -51.834 -28.5 -69.501s-44.833 -26.5 -77.5 -26.5c-33.333 0 -59.5 8.5 -78.5 25.5
s-28.5 40.5 -28.5 70.5z" />
    <glyph glyph-name="ebreve" unicode="&#x115;" horiz-adv-x="363" 
d="M333 235l-225.002 0.000976562c0.666992 -120 39 -180 115 -180c31.333 0 58 6.33301 80 19l12 -57c-27.333 -15.333 -62.666 -23 -105.999 -23c-56.667 0 -100.167 21.667 -130.5 65s-45.5 102.666 -45.5 177.999c0 78 15 140 45 186s69.333 69 118 69
c46.667 0 81.334 -20.5 104.001 -61.5s34 -91.833 34 -152.5c0 -20.667 -0.333008 -35 -1 -43zM108.998 292.001h151c0.666992 45.333 -6 80 -20 104s-31.333 36 -52 36c-23.333 0 -41.833 -14.167 -55.5 -42.5s-21.5 -60.833 -23.5 -97.5zM82.998 669.001h43.0039
c1.33301 -18.667 7.66602 -33.667 18.999 -45s25.666 -17 42.999 -17c19.333 0 34.666 5.66699 45.999 17s17.333 26.333 18 45h43c1.33301 -33.333 -7.83398 -60.5 -27.501 -81.5s-46.167 -31.5 -79.5 -31.5s-59.5 10.667 -78.5 32s-27.833 48.333 -26.5 81z" />
    <glyph glyph-name="Edotaccent" unicode="&#x116;" horiz-adv-x="354" 
d="M306 385v-65h-169v-253h192v-67h-269v674h257v-67h-180v-222h169zM195 727c-12.667 0 -23.5 4.33301 -32.5 13s-13.5 19.334 -13.5 32.001s4.5 23.167 13.5 31.5s19.833 12.5 32.5 12.5c12 0 22.333 -4.16699 31 -12.5s13 -18.833 13 -31.5s-4.33301 -23.334 -13 -32.001
s-19 -13 -31 -13z" />
    <glyph glyph-name="edotaccent" unicode="&#x117;" horiz-adv-x="363" 
d="M333 235l-225.002 0.000976562c0.666992 -120 39 -180 115 -180c31.333 0 58 6.33301 80 19l12 -57c-27.333 -15.333 -62.666 -23 -105.999 -23c-56.667 0 -100.167 21.667 -130.5 65s-45.5 102.666 -45.5 177.999c0 78 15 140 45 186s69.333 69 118 69
c46.667 0 81.334 -20.5 104.001 -61.5s34 -91.833 34 -152.5c0 -20.667 -0.333008 -35 -1 -43zM108.998 292.001h151c0.666992 45.333 -6 80 -20 104s-31.333 36 -52 36c-23.333 0 -41.833 -14.167 -55.5 -42.5s-21.5 -60.833 -23.5 -97.5zM189.998 566.001
c-12.667 0 -23.167 4.16504 -31.5 12.498s-12.5 18.833 -12.5 31.5s4.33301 23.334 13 32.001s19 13 31 13s22.167 -4.16699 30.5 -12.5s12.5 -19.166 12.5 -32.499c0 -12.667 -4 -23.167 -12 -31.5s-18.333 -12.5 -31 -12.5z" />
    <glyph glyph-name="Eogonek" unicode="&#x118;" horiz-adv-x="354" 
d="M324 -136l11 -43c-20 -14.667 -45.333 -22 -76 -22c-24.667 0 -44.167 6.83301 -58.5 20.5s-21.5 32.5 -21.5 56.5s8 47 24 69s35.333 40.333 58 55h-201v674h257v-67h-180v-222h169v-65h-169v-253h192v-67h-8c-54 -38 -81 -73 -81 -105c0 -13.333 4 -23.333 12 -30
s17.333 -10 28 -10c17.333 0 32 3 44 9z" />
    <glyph glyph-name="eogonek" unicode="&#x119;" horiz-adv-x="363" 
d="M277 -132l13.001 -42.0039c-20.667 -16.667 -45.334 -25 -74.001 -25c-25.333 0 -45.5 6.83301 -60.5 20.5s-22.5 31.834 -22.5 54.501c0 22 7.66699 43.833 23 65.5s33 38.834 53 51.501v1h-4c-55.333 0.666992 -97.833 22.667 -127.5 66s-44.5 102.333 -44.5 177
c0 78 15 140 45 186s69.333 69 118 69c46.667 0 81.334 -20.5 104.001 -61.5s34 -91.833 34 -152.5c0 -22 -0.333008 -36.333 -1 -43h-225c0.666992 -120 39 -180 115 -180c31.333 0 58 6.33301 80 19l12 -57c-14 -6 -22.667 -9.66699 -26 -11
c-25.333 -12.667 -47.5 -29.667 -66.5 -51s-28.5 -41.666 -28.5 -60.999c0 -13.333 3.66699 -23.166 11 -29.499s16 -9.5 26 -9.5c15.333 0 30.666 4.33301 45.999 13zM109.001 291.996h151c0.666992 45.333 -6 80 -20 104s-31.333 36 -52 36
c-23.333 0 -41.833 -14.167 -55.5 -42.5s-21.5 -60.833 -23.5 -97.5z" />
    <glyph glyph-name="Ecaron" unicode="&#x11a;" horiz-adv-x="354" 
d="M306 385v-65h-169v-253h192v-67h-269v674h257v-67h-180v-222h169zM223 710h-66l-87 98h67l52 -58h2l52 58h66z" />
    <glyph glyph-name="ecaron" unicode="&#x11b;" horiz-adv-x="363" 
d="M333 235l-225.002 0.000976562c0.666992 -120 39 -180 115 -180c31.333 0 58 6.33301 80 19l12 -57c-27.333 -15.333 -62.666 -23 -105.999 -23c-56.667 0 -100.167 21.667 -130.5 65s-45.5 102.666 -45.5 177.999c0 78 15 140 45 186s69.333 69 118 69
c46.667 0 81.334 -20.5 104.001 -61.5s34 -91.833 34 -152.5c0 -20.667 -0.333008 -35 -1 -43zM108.998 292.001h151c0.666992 45.333 -6 80 -20 104s-31.333 36 -52 36c-23.333 0 -41.833 -14.167 -55.5 -42.5s-21.5 -60.833 -23.5 -97.5zM213.998 547.001h-53l-79 135h57
l47 -87h2l47 87h58z" />
    <glyph glyph-name="Gcircumflex" unicode="&#x11c;" horiz-adv-x="436" 
d="M392 352l-0.000976562 -335c-37.333 -15.333 -77.333 -23 -120 -23c-66.667 0 -119.667 22 -159 66c-54.667 58.667 -81.667 148 -81 268c0 62.667 7.66699 117.667 23 165s35.5 84 60.5 110s51.833 45.333 80.5 58s58.667 19 90 19c40 0 72 -6.33301 96 -19l-17 -66
c-21.333 10.667 -47.333 16 -78 16c-48.667 0 -90 -22 -124 -66s-51 -114 -51 -210s15.167 -165.833 45.5 -209.5s68.5 -65.5 114.5 -65.5c20.667 0 36.334 2.66699 47.001 8v220h-87v64h160zM220.999 808h67l87 -98h-68l-52 55h-2l-51 -55h-67z" />
    <glyph glyph-name="gcircumflex" unicode="&#x11d;" horiz-adv-x="399" 
d="M281 484l69.001 -0.000976562c-2.66699 -90.667 -4 -141 -4 -151v-271c0 -60.667 -3.83301 -106.167 -11.5 -136.5s-19.834 -54.833 -36.501 -73.5c-30.667 -34.667 -73.667 -52 -129 -52c-42 0 -77.333 8 -106 24l18 60c26.667 -14 56.667 -21 90 -21
c66 0 99 49.333 99 148v49h-2c-17.333 -39.333 -48.333 -59 -93 -59c-42.667 0 -77 22 -103 66s-39 101.667 -39 173c0 82.667 15.333 145.334 46 188.001s66 64 106 64s70 -21 90 -63h2zM270.001 176.999l-0.000976562 139.997c0 14.667 -1.33301 26.334 -4 35.001
c-13.333 49.333 -36.666 74 -69.999 74c-27.333 0 -48.5 -16.667 -63.5 -50s-22.5 -77.333 -22.5 -132c0 -59.333 8 -104.166 24 -134.499s36.667 -45.5 62 -45.5c33.333 0 56.333 23 69 69c3.33301 12.667 5 27.334 5 44.001zM172 681.996h52l78 -135h-57l-46 86h-2
l-47 -86h-58z" />
    <glyph glyph-name="Gbreve" unicode="&#x11e;" horiz-adv-x="436" 
d="M392 352l-0.000976562 -335c-37.333 -15.333 -77.333 -23 -120 -23c-66.667 0 -119.667 22 -159 66c-54.667 58.667 -81.667 148 -81 268c0 62.667 7.66699 117.667 23 165s35.5 84 60.5 110s51.833 45.333 80.5 58s58.667 19 90 19c40 0 72 -6.33301 96 -19l-17 -66
c-21.333 10.667 -47.333 16 -78 16c-48.667 0 -90 -22 -124 -66s-51 -114 -51 -210s15.167 -165.833 45.5 -209.5s68.5 -65.5 114.5 -65.5c20.667 0 36.334 2.66699 47.001 8v220h-87v64h160zM145.999 808h46c5.33301 -29.333 25.333 -44 60 -44c36 0 57 14.667 63 44h45
c0 -29.333 -9.66699 -52.833 -29 -70.5s-45.333 -26.5 -78 -26.5c-33.333 0 -59.5 8.5 -78.5 25.5s-28.5 40.833 -28.5 71.5z" />
    <glyph glyph-name="gbreve" unicode="&#x11f;" horiz-adv-x="399" 
d="M281 484l69.001 -0.000976562c-2.66699 -90.667 -4 -141 -4 -151v-271c0 -60.667 -3.83301 -106.167 -11.5 -136.5s-19.834 -54.833 -36.501 -73.5c-30.667 -34.667 -73.667 -52 -129 -52c-42 0 -77.333 8 -106 24l18 60c26.667 -14 56.667 -21 90 -21
c66 0 99 49.333 99 148v49h-2c-17.333 -39.333 -48.333 -59 -93 -59c-42.667 0 -77 22 -103 66s-39 101.667 -39 173c0 82.667 15.333 145.334 46 188.001s66 64 106 64s70 -21 90 -63h2zM270.001 176.999l-0.000976562 139.997c0 14.667 -1.33301 26.334 -4 35.001
c-13.333 49.333 -36.666 74 -69.999 74c-27.333 0 -48.5 -16.667 -63.5 -50s-22.5 -77.333 -22.5 -132c0 -59.333 8 -104.166 24 -134.499s36.667 -45.5 62 -45.5c33.333 0 56.333 23 69 69c3.33301 12.667 5 27.334 5 44.001zM93 668.996h43.0039
c1.33301 -18.667 7.66602 -33.667 18.999 -45s25.666 -17 42.999 -17c19.333 0 34.666 5.66699 45.999 17s17.333 26.333 18 45h43c1.33301 -33.333 -7.83398 -60.5 -27.501 -81.5s-46.167 -31.5 -79.5 -31.5s-59.5 10.667 -78.5 32s-27.833 48.333 -26.5 81z" />
    <glyph glyph-name="Gdotaccent" unicode="&#x120;" horiz-adv-x="436" 
d="M392 352l-0.000976562 -335c-37.333 -15.333 -77.333 -23 -120 -23c-66.667 0 -119.667 22 -159 66c-54.667 58.667 -81.667 148 -81 268c0 62.667 7.66699 117.667 23 165s35.5 84 60.5 110s51.833 45.333 80.5 58s58.667 19 90 19c40 0 72 -6.33301 96 -19l-17 -66
c-21.333 10.667 -47.333 16 -78 16c-48.667 0 -90 -22 -124 -66s-51 -114 -51 -210s15.167 -165.833 45.5 -209.5s68.5 -65.5 114.5 -65.5c20.667 0 36.334 2.66699 47.001 8v220h-87v64h160zM255.999 720c-12.667 0 -23.334 4.33301 -32.001 13s-13 19.334 -13 32.001
s4.33301 23.167 13 31.5s19.334 12.5 32.001 12.5s23.167 -4.16699 31.5 -12.5s12.5 -18.833 12.5 -31.5s-4.16699 -23.334 -12.5 -32.001s-18.833 -13 -31.5 -13z" />
    <glyph glyph-name="gdotaccent" unicode="&#x121;" horiz-adv-x="399" 
d="M281 484l69.001 -0.000976562c-2.66699 -90.667 -4 -141 -4 -151v-271c0 -60.667 -3.83301 -106.167 -11.5 -136.5s-19.834 -54.833 -36.501 -73.5c-30.667 -34.667 -73.667 -52 -129 -52c-42 0 -77.333 8 -106 24l18 60c26.667 -14 56.667 -21 90 -21
c66 0 99 49.333 99 148v49h-2c-17.333 -39.333 -48.333 -59 -93 -59c-42.667 0 -77 22 -103 66s-39 101.667 -39 173c0 82.667 15.333 145.334 46 188.001s66 64 106 64s70 -21 90 -63h2zM270.001 176.999l-0.000976562 139.997c0 14.667 -1.33301 26.334 -4 35.001
c-13.333 49.333 -36.666 74 -69.999 74c-27.333 0 -48.5 -16.667 -63.5 -50s-22.5 -77.333 -22.5 -132c0 -59.333 8 -104.166 24 -134.499s36.667 -45.5 62 -45.5c33.333 0 56.333 23 69 69c3.33301 12.667 5 27.334 5 44.001zM201 565.996
c-12.667 0 -23.167 4.16504 -31.5 12.498s-12.5 18.833 -12.5 31.5s4.33301 23.334 13 32.001s19 13 31 13s22.167 -4.16699 30.5 -12.5s12.5 -19.166 12.5 -32.499c0 -12.667 -4 -23.167 -12 -31.5s-18.333 -12.5 -31 -12.5z" />
    <glyph glyph-name="Gcommaaccent" unicode="&#x122;" horiz-adv-x="436" 
d="M392 352l-0.000976562 -335c-37.333 -15.333 -77.333 -23 -120 -23c-66.667 0 -119.667 22 -159 66c-54.667 58.667 -81.667 148 -81 268c0 62.667 7.66699 117.667 23 165s35.5 84 60.5 110s51.833 45.333 80.5 58s58.667 19 90 19c40 0 72 -6.33301 96 -19l-17 -66
c-21.333 10.667 -47.333 16 -78 16c-48.667 0 -90 -22 -124 -66s-51 -114 -51 -210s15.167 -165.833 45.5 -209.5s68.5 -65.5 114.5 -65.5c20.667 0 36.334 2.66699 47.001 8v220h-87v64h160zM205.999 -214l-17 37.001c42.667 12.667 64 33.667 64 63
c0 23.333 -11.333 43.666 -34 60.999l63 11c22.667 -14.667 34 -38 34 -70c0 -29.333 -10.5 -52.333 -31.5 -69s-47.167 -27.667 -78.5 -33z" />
    <glyph glyph-name="gcommaaccent" unicode="&#x123;" horiz-adv-x="399" 
d="M259 701l16 -33.999c-44.667 -12 -67 -33.667 -67 -65c0 -22.667 11.667 -43 35 -61l-60 -12c-22.667 17.333 -34 40.666 -34 69.999s10.333 52.333 31 69s47 27.667 79 33zM281 484.001l69.001 -0.000976562c-2.66699 -90.667 -4 -141 -4 -151v-271
c0 -60.667 -3.83301 -106.167 -11.5 -136.5s-19.834 -54.833 -36.501 -73.5c-30.667 -34.667 -73.667 -52 -129 -52c-42 0 -77.333 8 -106 24l18 60c26.667 -14 56.667 -21 90 -21c66 0 99 49.333 99 148v49h-2c-17.333 -39.333 -48.333 -59 -93 -59
c-42.667 0 -77 22 -103 66s-39 101.667 -39 173c0 82.667 15.333 145.334 46 188.001s66 64 106 64s70 -21 90 -63h2zM270.001 177l-0.000976562 139.997c0 14.667 -1.33301 26.334 -4 35.001c-13.333 49.333 -36.666 74 -69.999 74c-27.333 0 -48.5 -16.667 -63.5 -50
s-22.5 -77.333 -22.5 -132c0 -59.333 8 -104.166 24 -134.499s36.667 -45.5 62 -45.5c33.333 0 56.333 23 69 69c3.33301 12.667 5 27.334 5 44.001z" />
    <glyph glyph-name="Hcircumflex" unicode="&#x124;" horiz-adv-x="463" 
d="M60 674h77v-289h189v289h77v-674h-77v315h-189v-315h-77v674zM200 808h67l87 -98h-68l-52 55h-2l-51 -55h-67z" />
    <glyph glyph-name="hcircumflex" unicode="&#x125;" horiz-adv-x="405" 
d="M54 0v691.999h77v-260h2c10 16.667 23.333 30.667 40 42c19.333 12 41 18 65 18c33.333 0 60.5 -14.167 81.5 -42.5s31.5 -71.166 31.5 -128.499v-321h-77v312c0 76.667 -21.667 115 -65 115c-38 0 -63 -25.667 -75 -77c-2 -10.667 -3 -23 -3 -37v-313h-77zM61 817.999
h66l87 -98h-67l-52 55h-2l-52 -55h-66z" />
    <glyph glyph-name="Hbar" unicode="&#x126;" horiz-adv-x="463" 
d="M450 483h-47v-483h-77v305h-189v-305h-77v483h-47v55h47v136h77v-136h189v136h77v-136h47v-55zM326 375v108h-189v-108h189z" />
    <glyph glyph-name="hbar" unicode="&#x127;" horiz-adv-x="405" 
d="M351 0l-77 -0.000976562v312c0 76.667 -21.667 115 -65 115c-38 0 -63 -25.667 -75 -77c-2 -10.667 -3 -23 -3 -37v-313h-77v543h-60v54h60v95h77v-95h133v-54h-133v-111h2c10 16.667 23.333 30.667 40 42c19.333 12 41 18 65 18c33.333 0 60.5 -14.167 81.5 -42.5
s31.5 -71.166 31.5 -128.499v-321z" />
    <glyph glyph-name="Itilde" unicode="&#x128;" horiz-adv-x="199" 
d="M60 674h77v-674h-77v674zM35 718h-41.002c-0.666992 28.667 4.33301 51.5 15 68.5s25.334 25.5 44.001 25.5c12.667 0 28.334 -5.66699 47.001 -17c20 -12 33.333 -18 40 -18c14.667 0 23.334 12 26.001 36h40c1.33301 -60 -19.334 -90 -62.001 -90
c-14 0 -30.333 5.66699 -49 17c-16.667 11.333 -28.667 17 -36 17c-14 0 -22 -13 -24 -39z" />
    <glyph glyph-name="itilde" unicode="&#x129;" horiz-adv-x="184" 
d="M131 0h-77v484h77v-484zM27 561h-41.999c-0.666992 27.333 4.33301 49.833 15 67.5s26 26.5 46 26.5c12.667 0 29 -5.66699 49 -17c18.667 -11.333 32 -17 40 -17c15.333 0 23.666 12 24.999 36h41c0 -60 -21 -90 -63 -90c-12.667 0 -29 5.66699 -49 17
s-32.333 17 -37 17c-14.667 0 -23 -13.333 -25 -40z" />
    <glyph glyph-name="Imacron" unicode="&#x12a;" horiz-adv-x="199" 
d="M60 674h77v-674h-77v674zM-6 788h213v-53h-213v53z" />
    <glyph glyph-name="imacron" unicode="&#x12b;" horiz-adv-x="184" 
d="M131 0h-77v484h77v-484zM-5 631h197v-50h-197v50z" />
    <glyph glyph-name="Ibreve" unicode="&#x12c;" horiz-adv-x="199" 
d="M60 674h77v-674h-77v674zM-8 810h44.998c2.66699 -13.333 9.33398 -24 20.001 -32s24.334 -12 41.001 -12c35.333 0 56 14.667 62 44h45c0 -29.333 -9.66699 -52.833 -29 -70.5s-45 -26.5 -77 -26.5c-33.333 0 -59.5 8.5 -78.5 25.5s-28.5 40.833 -28.5 71.5z" />
    <glyph glyph-name="ibreve" unicode="&#x12d;" horiz-adv-x="184" 
d="M131 0h-77v484h77v-484zM-13 669h43.0039c1.33301 -18.667 7.66602 -33.667 18.999 -45s25.666 -17 42.999 -17c19.333 0 34.666 5.66699 45.999 17s17.333 26.333 18 45h43c1.33301 -33.333 -7.83398 -60.5 -27.501 -81.5s-46.167 -31.5 -79.5 -31.5
s-59.5 10.667 -78.5 32s-27.833 48.333 -26.5 81z" />
    <glyph glyph-name="Iogonek" unicode="&#x12e;" horiz-adv-x="199" 
d="M137 674l-0.000976562 -674h-22c-27.333 -37.333 -41 -71.333 -41 -102c0 -14.667 4 -26.167 12 -34.5s17.667 -12.5 29 -12.5c16.667 0 31 3 43 9l11 -43c-20 -14.667 -44 -22 -72 -22c-25.333 0 -45.666 7.33301 -60.999 22s-23 34.667 -23 60
c0 33.333 15.667 74.333 47 123v674h77z" />
    <glyph glyph-name="iogonek" unicode="&#x12f;" horiz-adv-x="184" 
d="M91 559c-13.333 0 -24.168 4.66699 -32.501 14s-12.5 21.333 -12.5 36s4.33301 26.667 13 36s19.334 14 32.001 14c14 0 25.167 -4.5 33.5 -13.5s12.5 -21.167 12.5 -36.5c0.666992 -14.667 -3.33301 -26.667 -12 -36s-20 -14 -34 -14zM130.998 484
l-0.000976562 -484.001h-23c-27.333 -37.333 -41 -71.666 -41 -102.999c0 -14 4.33301 -25.167 13 -33.5s18.334 -12.5 29.001 -12.5c17.333 0 31.333 3 42 9l11 -43c-18.667 -14.667 -42.667 -22 -72 -22c-26 0 -46.5 7.33301 -61.5 22s-22.5 35 -22.5 61
c0 31.333 16 72 48 122v484h77z" />
    <glyph glyph-name="Idotaccent" unicode="&#x130;" horiz-adv-x="199" 
d="M60 674h77v-674h-77v674zM100 727c-12.667 0 -23.334 4.33301 -32.001 13s-13 19.334 -13 32.001s4.33301 23.167 13 31.5s19.334 12.5 32.001 12.5c12 0 22.333 -4.16699 31 -12.5s13 -18.833 13 -31.5s-4.33301 -23.334 -13 -32.001s-19 -13 -31 -13z" />
    <glyph glyph-name="dotlessi" unicode="&#x131;" horiz-adv-x="184" 
d="M131 0h-77v484h77v-484z" />
    <glyph glyph-name="IJ" unicode="&#x132;" horiz-adv-x="464" 
d="M60 674h77v-674h-77v674zM333 189l-0.000976562 484.999h77v-484c0 -72 -13.5 -123 -40.5 -153s-66.167 -45 -117.5 -45c-21.333 0 -37.666 2.33301 -48.999 7l6 65c8.66699 -2.66699 21 -4 37 -4c30 0 52 8.83301 66 26.5s21 51.834 21 102.501z" />
    <glyph glyph-name="ij" unicode="&#x133;" horiz-adv-x="373" 
d="M131 0h-77v484h77v-484zM91 659c14 0 25.167 -4.5 33.5 -13.5s12.5 -21.167 12.5 -36.5c0.666992 -14.667 -3.33301 -26.667 -12 -36s-20.334 -14 -35.001 -14c-12.667 0 -23.167 4.66699 -31.5 14s-12.5 21.333 -12.5 36s4.33301 26.667 13 36s19.334 14 32.001 14z
M166 -200l-10.001 61c32 8.66699 53.667 21.334 65 38.001c16 23.333 24 74.666 24 153.999v431h76v-453c0 -50 -3.66699 -88.833 -11 -116.5s-20 -50.5 -38 -68.5c-13.333 -14 -30.166 -25 -50.499 -33s-38.833 -12.333 -55.5 -13zM282.999 659
c14 0 24.998 -4.5 32.998 -13.5s12 -21.167 12 -36.5c0.666992 -15.333 -3.16602 -27.5 -11.499 -36.5s-19.833 -13.5 -34.5 -13.5c-13.333 0 -24.166 4.66699 -32.499 14s-12.5 21.333 -12.5 36s4.33301 26.667 13 36s19.667 14 33 14z" />
    <glyph glyph-name="Jcircumflex" unicode="&#x134;" horiz-adv-x="265" 
d="M134 189v484.999h77v-484c0 -72 -13.5 -123 -40.5 -153s-66.167 -45 -117.5 -45c-21.333 0 -38 2.33301 -50 7l7 65c8.66699 -2.66699 21 -4 37 -4c30 0 52 8.83301 66 26.5s21 51.834 21 102.501zM135 807.999h66l88 -98h-68l-52 55h-2l-52 -55h-66z" />
    <glyph glyph-name="jcircumflex" unicode="&#x135;" horiz-adv-x="188" 
d="M-18 -200l-10.001 61c32 8.66699 53.667 21.334 65 38.001c15.333 23.333 23 74.666 23 153.999v431h77v-453c0 -50 -3.83301 -88.667 -11.5 -116s-20.167 -50.333 -37.5 -69c-13.333 -14 -30.166 -25 -50.499 -33s-38.833 -12.333 -55.5 -13zM69.999 675h52l79 -135h-58
l-46 86h-2l-46 -86h-59z" />
    <glyph glyph-name="Kcommaaccent" unicode="&#x136;" horiz-adv-x="404" 
d="M60 0v674h77v-320h2l42 81l126 239h85l-165 -288l169 -386h-83l-138 325l-38 -65v-260h-77zM159 -207l-16.001 36.999c42.667 12.667 64 33.667 64 63c0 22 -11.333 42.333 -34 61l62 11c23.333 -15.333 35 -38.666 35 -69.999c0 -29.333 -10.667 -52.333 -32 -69
s-47.666 -27.667 -78.999 -33z" />
    <glyph glyph-name="kcommaaccent" unicode="&#x137;" horiz-adv-x="354" 
d="M130 692v-433h2c15.333 32.667 24 50.667 26 54l96 171h83l-128 -204l139 -280h-86l-105 228l-27 -45v-183h-77v692h77zM130 -214l-17 37c43.333 12.667 65 33.667 65 63c0 22 -11.333 42.333 -34 61l62 11c22.667 -14.667 34 -38 34 -70
c0 -29.333 -10.5 -52.333 -31.5 -69s-47.167 -27.667 -78.5 -33z" />
    <glyph glyph-name="kgreenlandic" unicode="&#x138;" horiz-adv-x="354" 
d="M130 484v-225h2c15.333 32.667 24 50.667 26 54l96 171h83l-128 -204l139 -280h-86l-105 228l-27 -45v-183h-77v484h77z" />
    <glyph glyph-name="Lacute" unicode="&#x139;" horiz-adv-x="344" 
d="M60 0v674h77v-609h190v-65h-267zM160 818h91l-124 -108h-61z" />
    <glyph glyph-name="lacute" unicode="&#x13a;" horiz-adv-x="191" 
d="M54 0v692h77v-692h-77zM144 828h91l-125 -108h-60z" />
    <glyph glyph-name="Lcommaaccent" unicode="&#x13b;" horiz-adv-x="344" 
d="M60 0v674h77v-609h190v-65h-267zM125 -214l-16 36.999c42.667 12.667 64 33.667 64 63c0 22 -11.333 42.333 -34 61l62 11c23.333 -15.333 35 -38.666 35 -69.999c0 -29.333 -10.5 -52.333 -31.5 -69s-47.5 -27.667 -79.5 -33z" />
    <glyph glyph-name="lcommaaccent" unicode="&#x13c;" horiz-adv-x="191" 
d="M54 0v692h77v-692h-77zM43 -214l-16 37c42.667 12.667 64 33.667 64 63c0 23.333 -11.333 43.666 -34 60.999l62 11c23.333 -15.333 35 -38.666 35 -69.999c0 -29.333 -10.5 -52.333 -31.5 -69s-47.5 -27.667 -79.5 -33z" />
    <glyph glyph-name="Lcaron" unicode="&#x13d;" horiz-adv-x="344" 
d="M60 0v674h77v-609h190v-65h-267zM200 503l-16 36.999c17.333 4.66699 32.333 12.334 45 23.001s19 23.667 19 39c0 22 -11.333 42.333 -34 61l62 12c23.333 -16.667 35 -40 35 -70c0 -29.333 -10.5 -52.333 -31.5 -69s-47.5 -27.667 -79.5 -33z" />
    <glyph glyph-name="lcaron" unicode="&#x13e;" horiz-adv-x="194" 
d="M208 505l-34 22c19.333 30 29 60 29 90c0 28 -10.667 50.667 -32 68l57 12c22 -15.333 33 -39.333 33 -72c0 -38 -17.667 -78 -53 -120zM54 0v692h77v-692h-77z" />
    <glyph glyph-name="Ldot" unicode="&#x13f;" horiz-adv-x="344" 
d="M60 0v674h77v-609h190v-65h-267zM241 316c-12.667 0 -23.334 4.5 -32.001 13.5s-13 19.5 -13 31.5c0 12.667 4.33301 23.334 13 32.001s19.334 13 32.001 13s23.167 -4.33301 31.5 -13s12.5 -19.334 12.5 -32.001c0 -12 -4.33301 -22.5 -13 -31.5s-19 -13.5 -31 -13.5z
" />
    <glyph glyph-name="ldot" unicode="&#x140;" horiz-adv-x="235" 
d="M212 349c-12 0 -21.999 4.33301 -29.999 13s-12 19.334 -12 32.001s4.16699 23.167 12.5 31.5s18.166 12.5 29.499 12.5s20.833 -4.16699 28.5 -12.5s11.5 -18.833 11.5 -31.5s-3.83301 -23.334 -11.5 -32.001s-17.167 -13 -28.5 -13zM54.001 0v692h77v-692h-77z" />
    <glyph glyph-name="Lslash" unicode="&#x141;" horiz-adv-x="351" 
d="M334 0h-267v256l-68 -65v70l68 65v348h77v-286l106 102v-71l-106 -101v-253h190v-65z" />
    <glyph glyph-name="lslash" unicode="&#x142;" horiz-adv-x="198" 
d="M138 0h-77v296l-62 -63v68l62 64v327h77v-267l63 66v-70l-63 -66v-355z" />
    <glyph glyph-name="Nacute" unicode="&#x143;" horiz-adv-x="465" 
d="M130 0l-69.999 0.000976562v674h73l124 -316c42 -108 70.667 -186.333 86 -235h2c-6 106 -9 209.333 -9 310v241h69v-674h-73l-128 324c-34.667 87.333 -61.334 163.666 -80.001 228.999h-2c5.33301 -80 8 -186.667 8 -320v-233zM290.001 818.001h91l-124 -108h-61z" />
    <glyph glyph-name="nacute" unicode="&#x144;" horiz-adv-x="405" 
d="M54 0l0.00292969 359c0 22 -0.666992 47 -2 75s-2 44.667 -2 50h67l4 -58h2c24 44 61 66 111 66c35.333 0 63.666 -13.833 84.999 -41.5s32 -69.5 32 -125.5v-325h-77v312c0 76.667 -22.333 115 -67 115c-16.667 0 -31.834 -6.83301 -45.501 -20.5
s-22.834 -33.167 -27.501 -58.5c-2 -12 -3 -26.333 -3 -43v-305h-77zM247.003 682h79l-105 -135h-51z" />
    <glyph glyph-name="Ncommaaccent" unicode="&#x145;" horiz-adv-x="465" 
d="M130 0l-69.999 0.000976562v674h73l124 -316c42 -108 70.667 -186.333 86 -235h2c-6 106 -9 209.333 -9 310v241h69v-674h-73l-128 324c-34.667 87.333 -61.334 163.666 -80.001 228.999h-2c5.33301 -80 8 -186.667 8 -320v-233zM176.001 -210.999l-16 37
c42.667 12.667 64 33.667 64 63c0 22 -11.333 42.333 -34 61l62 11c23.333 -15.333 35 -38.333 35 -69c0 -30 -10.5 -53.333 -31.5 -70s-47.5 -27.667 -79.5 -33z" />
    <glyph glyph-name="ncommaaccent" unicode="&#x146;" horiz-adv-x="405" 
d="M54 0l0.00292969 359c0 22 -0.666992 47 -2 75s-2 44.667 -2 50h67l4 -58h2c24 44 61 66 111 66c35.333 0 63.666 -13.833 84.999 -41.5s32 -69.5 32 -125.5v-325h-77v312c0 76.667 -22.333 115 -67 115c-16.667 0 -31.834 -6.83301 -45.501 -20.5
s-22.834 -33.167 -27.501 -58.5c-2 -12 -3 -26.333 -3 -43v-305h-77zM158.003 -208l-17 36.999c17.333 4.66699 32.333 12.334 45 23.001s19 23.667 19 39c0 22.667 -11 43 -33 61l62 12c22.667 -16 34 -39.333 34 -70c0 -29.333 -10.5 -52.333 -31.5 -69
s-47.167 -27.667 -78.5 -33z" />
    <glyph glyph-name="Ncaron" unicode="&#x147;" horiz-adv-x="465" 
d="M130 0l-69.999 0.000976562v674h73l124 -316c42 -108 70.667 -186.333 86 -235h2c-6 106 -9 209.333 -9 310v241h69v-674h-73l-128 324c-34.667 87.333 -61.334 163.666 -80.001 228.999h-2c5.33301 -80 8 -186.667 8 -320v-233zM265.001 710.001h-66l-87 98h67l52 -58h2
l52 58h66z" />
    <glyph glyph-name="ncaron" unicode="&#x148;" horiz-adv-x="405" 
d="M54 0l0.00292969 359c0 22 -0.666992 47 -2 75s-2 44.667 -2 50h67l4 -58h2c24 44 61 66 111 66c35.333 0 63.666 -13.833 84.999 -41.5s32 -69.5 32 -125.5v-325h-77v312c0 76.667 -22.333 115 -67 115c-16.667 0 -31.834 -6.83301 -45.501 -20.5
s-22.834 -33.167 -27.501 -58.5c-2 -12 -3 -26.333 -3 -43v-305h-77zM229.003 547h-53l-79 135h58l46 -87h2l47 87h58z" />
    <glyph glyph-name="napostrophe" unicode="&#x149;" horiz-adv-x="405" 
d="M53 527l-37 20.001c19.333 26.667 29 53.667 29 81c0 25.333 -10.667 45.666 -32 60.999l60 11c22 -14 33 -35.667 33 -65c0 -34.667 -17.667 -70.667 -53 -108zM54 0.000976562l0.00292969 359c0 22 -0.666992 47 -2 75s-2 44.667 -2 50h67l4 -58h2c24 44 61 66 111 66
c35.333 0 63.666 -13.833 84.999 -41.5s32 -69.5 32 -125.5v-325h-77v312c0 76.667 -22.333 115 -67 115c-16.667 0 -31.834 -6.83301 -45.501 -20.5s-22.834 -33.167 -27.501 -58.5c-2 -12 -3 -26.333 -3 -43v-305h-77z" />
    <glyph glyph-name="Eng" unicode="&#x14a;" horiz-adv-x="465" 
d="M130 0l-69.999 0.00195312v674h73l124 -316c42 -108 70.667 -186.333 86 -235h2c-6 106 -9 209.333 -9 310v241h69v-653c0 -117.333 -47 -186.333 -141 -207l-18 59c59.333 17.333 89 57.666 89 120.999l-131 330c-34.667 87.333 -61.334 163.666 -80.001 228.999h-2
c5.33301 -80 8 -186.667 8 -320v-233z" />
    <glyph glyph-name="eng" unicode="&#x14b;" horiz-adv-x="405" 
d="M54 0l0.00292969 358.999c0 22 -0.666992 47 -2 75s-2 44.667 -2 50h67l4 -58h2c24 44 61 66 111 66c35.333 0 63.666 -13.833 84.999 -41.5s32 -69.5 32 -125.5v-294c0 -118.667 -46.667 -186.667 -140 -204l-16 62c26 6.66699 45.667 20.334 59 41.001s20 53 20 97v285
c0 76.667 -22.333 115 -67 115c-16.667 0 -31.834 -6.83301 -45.501 -20.5s-22.834 -33.167 -27.501 -58.5c-2 -12 -3 -26.333 -3 -43v-305h-77z" />
    <glyph glyph-name="Omacron" unicode="&#x14c;" horiz-adv-x="446" 
d="M230 682c57.333 0 102.333 -29.833 135 -89.5s49 -143.167 49 -250.5c0 -120 -18 -208.333 -54 -265s-83 -85 -141 -85c-57.333 0 -102.833 29.833 -136.5 89.5s-50.5 145.167 -50.5 256.5c0 109.333 18 194 54 254s84 90 144 90zM223 614
c-38.667 0 -66.833 -26.666 -84.5 -79.999s-26.5 -119 -26.5 -197c0 -50 3.16699 -94.833 9.5 -134.5s18.333 -73.334 36 -101.001s39.834 -41.5 66.501 -41.5c27.333 0 49.666 14.667 66.999 44s28.833 63.5 34.5 102.5s8.5 83.167 8.5 132.5c0 34.667 -1.66699 67 -5 97
s-9 59 -17 87s-19.667 50.167 -35 66.5s-33.333 24.5 -54 24.5zM118.001 788.001h213v-53h-213v53z" />
    <glyph glyph-name="omacron" unicode="&#x14d;" horiz-adv-x="383" 
d="M195 492c45.333 0 82.668 -21.499 112.001 -64.499s44 -104.833 44 -185.5c0 -86 -16 -149.167 -48 -189.5s-69.667 -60.5 -113 -60.5c-46 0 -83.667 21.167 -113 63.5s-44 104.166 -44 185.499c0 83.333 15.667 146 47 188s69.666 63 114.999 63zM192.002 430.001
c-16 0 -29.8369 -6.16602 -41.5039 -18.499s-20.167 -28.5 -25.5 -48.5s-9.16602 -39.833 -11.499 -59.5s-3.5 -40.167 -3.5 -61.5c0 -22.667 1.16699 -44 3.5 -64s6.33301 -40 12 -60s14.334 -35.833 26.001 -47.5s25.834 -17.5 42.501 -17.5
c15.333 0 28.666 6.16699 39.999 18.5s19.5 28.666 24.5 48.999s8.66699 40.333 11 60s3.5 40.167 3.5 61.5s-1.16699 41.833 -3.5 61.5s-6.16602 39.5 -11.499 59.5s-13.666 36.167 -24.999 48.5s-25 18.5 -41 18.5zM93.998 631.002h197v-50h-197v50z" />
    <glyph glyph-name="Obreve" unicode="&#x14e;" horiz-adv-x="446" 
d="M230 682c57.333 0 102.333 -29.833 135 -89.5s49 -143.167 49 -250.5c0 -120 -18 -208.333 -54 -265s-83 -85 -141 -85c-57.333 0 -102.833 29.833 -136.5 89.5s-50.5 145.167 -50.5 256.5c0 109.333 18 194 54 254s84 90 144 90zM223 614
c-38.667 0 -66.833 -26.666 -84.5 -79.999s-26.5 -119 -26.5 -197c0 -50 3.16699 -94.833 9.5 -134.5s18.333 -73.334 36 -101.001s39.834 -41.5 66.501 -41.5c27.333 0 49.666 14.667 66.999 44s28.833 63.5 34.5 102.5s8.5 83.167 8.5 132.5c0 34.667 -1.66699 67 -5 97
s-9 59 -17 87s-19.667 50.167 -35 66.5s-33.333 24.5 -54 24.5zM114.001 810.001l46 -0.000976562c5.33301 -28.667 25.333 -43 60 -43c36 0 57 14.333 63 43h45c0 -29.333 -9.66699 -52.666 -29 -69.999s-45.333 -26 -78 -26c-33.333 0 -59.5 8.5 -78.5 25.5
s-28.5 40.5 -28.5 70.5z" />
    <glyph glyph-name="obreve" unicode="&#x14f;" horiz-adv-x="383" 
d="M195 492c45.333 0 82.668 -21.499 112.001 -64.499s44 -104.833 44 -185.5c0 -86 -16 -149.167 -48 -189.5s-69.667 -60.5 -113 -60.5c-46 0 -83.667 21.167 -113 63.5s-44 104.166 -44 185.499c0 83.333 15.667 146 47 188s69.666 63 114.999 63zM192.002 430.001
c-16 0 -29.8369 -6.16602 -41.5039 -18.499s-20.167 -28.5 -25.5 -48.5s-9.16602 -39.833 -11.499 -59.5s-3.5 -40.167 -3.5 -61.5c0 -22.667 1.16699 -44 3.5 -64s6.33301 -40 12 -60s14.334 -35.833 26.001 -47.5s25.834 -17.5 42.501 -17.5
c15.333 0 28.666 6.16699 39.999 18.5s19.5 28.666 24.5 48.999s8.66699 40.333 11 60s3.5 40.167 3.5 61.5s-1.16699 41.833 -3.5 61.5s-6.16602 39.5 -11.499 59.5s-13.666 36.167 -24.999 48.5s-25 18.5 -41 18.5zM83.998 669.002h43.001
c1.33301 -18.667 7.83301 -33.667 19.5 -45s25.834 -17 42.501 -17c19.333 0 34.666 5.66699 45.999 17s17.333 26.333 18 45h43c1.33301 -33.333 -7.83398 -60.5 -27.501 -81.5s-46.167 -31.5 -79.5 -31.5s-59.5 10.667 -78.5 32s-27.833 48.333 -26.5 81z" />
    <glyph glyph-name="Ohungarumlaut" unicode="&#x150;" horiz-adv-x="446" 
d="M230 682c57.333 0 102.333 -29.833 135 -89.5s49 -143.167 49 -250.5c0 -120 -18 -208.333 -54 -265s-83 -85 -141 -85c-57.333 0 -102.833 29.833 -136.5 89.5s-50.5 145.167 -50.5 256.5c0 109.333 18 194 54 254s84 90 144 90zM223 614
c-38.667 0 -66.833 -26.666 -84.5 -79.999s-26.5 -119 -26.5 -197c0 -50 3.16699 -94.833 9.5 -134.5s18.333 -73.334 36 -101.001s39.834 -41.5 66.501 -41.5c27.333 0 49.666 14.667 66.999 44s28.833 63.5 34.5 102.5s8.5 83.167 8.5 132.5c0 34.667 -1.66699 67 -5 97
s-9 59 -17 87s-19.667 50.167 -35 66.5s-33.333 24.5 -54 24.5zM203.001 818.001h81l-100 -99h-53zM330.001 818.001h81l-100 -99h-53z" />
    <glyph glyph-name="ohungarumlaut" unicode="&#x151;" horiz-adv-x="383" 
d="M195 492c45.333 0 82.668 -21.499 112.001 -64.499s44 -104.833 44 -185.5c0 -86 -16 -149.167 -48 -189.5s-69.667 -60.5 -113 -60.5c-46 0 -83.667 21.167 -113 63.5s-44 104.166 -44 185.499c0 83.333 15.667 146 47 188s69.666 63 114.999 63zM192.002 430.001
c-16 0 -29.8369 -6.16602 -41.5039 -18.499s-20.167 -28.5 -25.5 -48.5s-9.16602 -39.833 -11.499 -59.5s-3.5 -40.167 -3.5 -61.5c0 -22.667 1.16699 -44 3.5 -64s6.33301 -40 12 -60s14.334 -35.833 26.001 -47.5s25.834 -17.5 42.501 -17.5
c15.333 0 28.666 6.16699 39.999 18.5s19.5 28.666 24.5 48.999s8.66699 40.333 11 60s3.5 40.167 3.5 61.5s-1.16699 41.833 -3.5 61.5s-6.16602 39.5 -11.499 59.5s-13.666 36.167 -24.999 48.5s-25 18.5 -41 18.5zM179.998 682.002h69l-104 -135h-44zM302.998 682.002h70
l-104 -135h-44z" />
    <glyph glyph-name="OE" unicode="&#x152;" horiz-adv-x="610" 
d="M585 67l-0.00292969 -66.998h-246c-10 -0.666992 -22.667 -2.33398 -38 -5.00098c-12.667 -2 -25 -3 -37 -3c-34 0 -64.5 6.16699 -91.5 18.5s-49.167 29 -66.5 50s-31.666 46.333 -42.999 76s-19.333 60.5 -24 92.5s-7 66.667 -7 104c0 113.333 22.333 199.833 67 259.5
s102.334 89.5 173.001 89.5c14.667 0 27.334 -1 38.001 -3c18 -2.66699 30 -4.33398 36 -5.00098h227v-67h-180v-222h169v-65h-169v-253h192zM315.997 68.002l0.00195312 534.998c-12.667 7.33301 -30.667 11 -54 11c-18 0 -35.333 -4.83301 -52 -14.5
s-32.667 -24.667 -48 -45s-27.5 -49.166 -36.5 -86.499s-13.5 -80.666 -13.5 -129.999c-0.666992 -98.667 13.666 -169.667 42.999 -213s66.666 -65 111.999 -65c22.667 0 39 2.66699 49 8z" />
    <glyph glyph-name="oe" unicode="&#x153;" horiz-adv-x="609" 
d="M580 237h-224.998c0.666992 -68.667 11 -116.5 31 -143.5s47 -40.5 81 -40.5c22.667 0 50.667 6.66699 84 20l14 -55c-28 -17.333 -65.667 -26 -113 -26c-29.333 0 -56.333 8.66699 -81 26s-42.334 42.666 -53.001 75.999h-2c-10 -34 -26.5 -59.5 -49.5 -76.5
s-48.167 -25.5 -75.5 -25.5c-46.667 0 -84.667 21.333 -114 64s-44 104.334 -44 185.001c0 81.333 15.833 143.5 47.5 186.5s70.167 64.5 115.5 64.5c28 0 53.167 -8.33301 75.5 -25s38.166 -41.334 47.499 -74.001h2c12 30.667 29 54.834 51 72.501s47 26.5 75 26.5
c44 0 77.333 -20.833 100 -62.5s34 -92.167 34 -151.5c0 -6 -0.166992 -13.667 -0.5 -23s-0.5 -15.333 -0.5 -18zM197.002 430c-17.333 0 -32.167 -6.16699 -44.5 -18.5s-21.333 -28.833 -27 -49.5s-9.66699 -40.5 -12 -59.5s-3.5 -39.167 -3.5 -60.5
c0 -126 29.333 -189 88 -189c56.667 0 85 63.333 85 190c0 124.667 -28.667 187 -86 187zM356.001 292h151c0.666992 44.667 -5.83301 79 -19.5 103s-30.167 36 -49.5 36c-24 0 -43.333 -13.833 -58 -41.5s-22.667 -60.167 -24 -97.5z" />
    <glyph glyph-name="Racute" unicode="&#x154;" horiz-adv-x="409" 
d="M60 0l0.000976562 664c32 8.66699 69 13 111 13c68.667 0 119.334 -16 152.001 -48c31.333 -32 47 -76 47 -132c0 -82.667 -36 -140.334 -108 -173.001v-2c24.667 -7.33301 44.167 -23.166 58.5 -47.499s25.166 -58.833 32.499 -103.5c14 -88 26.667 -145 38 -171h-78
c-9.33301 19.333 -21.333 75 -36 167c-7.33301 46 -19.333 78.667 -36 98s-41.334 29 -74.001 29h-30v-294h-77zM137.001 611l-0.000976562 -258.001h32c36.667 0 66.334 12.333 89.001 37s34 57.334 34 98.001c0 84 -38.333 126.333 -115 127
c-18 0 -31.333 -1.33301 -40 -4zM244 817.999h91l-124 -108h-61z" />
    <glyph glyph-name="racute" unicode="&#x155;" horiz-adv-x="248" 
d="M53 0l-0.000976562 359c0 16 -0.666992 39.833 -2 71.5s-2 49.5 -2 53.5h69l4 -76h2c8 24 21.5 44 40.5 60s39.5 24 61.5 24c2 0 4.83301 -0.166992 8.5 -0.5s6.16699 -0.5 7.5 -0.5v-79c-3.33301 0.666992 -8.66602 1 -15.999 1c-24 0 -44.5 -9.66699 -61.5 -29
s-27.5 -43.333 -31.5 -72c-2 -13.333 -3 -28 -3 -44v-268h-77zM179.999 682h79l-105 -135h-51z" />
    <glyph glyph-name="Rcommaaccent" unicode="&#x156;" horiz-adv-x="409" 
d="M60 0l0.000976562 664c32 8.66699 69 13 111 13c68.667 0 119.334 -16 152.001 -48c31.333 -32 47 -76 47 -132c0 -82.667 -36 -140.334 -108 -173.001v-2c24.667 -7.33301 44.167 -23.166 58.5 -47.499s25.166 -58.833 32.499 -103.5c14 -88 26.667 -145 38 -171h-78
c-9.33301 19.333 -21.333 75 -36 167c-7.33301 46 -19.333 78.667 -36 98s-41.334 29 -74.001 29h-30v-294h-77zM137.001 611l-0.000976562 -258.001h32c36.667 0 66.334 12.333 89.001 37s34 57.334 34 98.001c0 84 -38.333 126.333 -115 127
c-18 0 -31.333 -1.33301 -40 -4zM157 -207.001l-17 37c42.667 12.667 64 33.667 64 63c0 22.667 -11 43 -33 61l62 11c22.667 -14.667 34 -38 34 -70c0 -29.333 -10.5 -52.333 -31.5 -69s-47.167 -27.667 -78.5 -33z" />
    <glyph glyph-name="rcommaaccent" unicode="&#x157;" horiz-adv-x="248" 
d="M53 0l-0.000976562 359c0 16 -0.666992 39.833 -2 71.5s-2 49.5 -2 53.5h69l4 -76h2c8 24 21.5 44 40.5 60s39.5 24 61.5 24c2 0 4.83301 -0.166992 8.5 -0.5s6.16699 -0.5 7.5 -0.5v-79c-3.33301 0.666992 -8.66602 1 -15.999 1c-24 0 -44.5 -9.66699 -61.5 -29
s-27.5 -43.333 -31.5 -72c-2 -13.333 -3 -28 -3 -44v-268h-77zM54.999 -214l-16 36.999c42.667 12.667 64 33.667 64 63c0 22 -11.333 42.333 -34 61l62 11c23.333 -15.333 35 -38.666 35 -69.999c0 -29.333 -10.5 -52.333 -31.5 -69s-47.5 -27.667 -79.5 -33z" />
    <glyph glyph-name="Rcaron" unicode="&#x158;" horiz-adv-x="409" 
d="M60 0l0.000976562 664c32 8.66699 69 13 111 13c68.667 0 119.334 -16 152.001 -48c31.333 -32 47 -76 47 -132c0 -82.667 -36 -140.334 -108 -173.001v-2c24.667 -7.33301 44.167 -23.166 58.5 -47.499s25.166 -58.833 32.499 -103.5c14 -88 26.667 -145 38 -171h-78
c-9.33301 19.333 -21.333 75 -36 167c-7.33301 46 -19.333 78.667 -36 98s-41.334 29 -74.001 29h-30v-294h-77zM137.001 611l-0.000976562 -258.001h32c36.667 0 66.334 12.333 89.001 37s34 57.334 34 98.001c0 84 -38.333 126.333 -115 127
c-18 0 -31.333 -1.33301 -40 -4zM229 709.999h-66l-87 98h67l52 -58h2l52 58h66z" />
    <glyph glyph-name="rcaron" unicode="&#x159;" horiz-adv-x="248" 
d="M53 0l-0.000976562 359c0 16 -0.666992 39.833 -2 71.5s-2 49.5 -2 53.5h69l4 -76h2c8 24 21.5 44 40.5 60s39.5 24 61.5 24c2 0 4.83301 -0.166992 8.5 -0.5s6.16699 -0.5 7.5 -0.5v-79c-3.33301 0.666992 -8.66602 1 -15.999 1c-24 0 -44.5 -9.66699 -61.5 -29
s-27.5 -43.333 -31.5 -72c-2 -13.333 -3 -28 -3 -44v-268h-77zM161.999 547h-53l-79 135h57l47 -87h2l47 87h58z" />
    <glyph glyph-name="Sacute" unicode="&#x15a;" horiz-adv-x="361" 
d="M28 23l17.0029 66.0039c27.333 -18 59.666 -27 96.999 -27c34.667 0 62 10.333 82 31s30 48.334 30 83.001c0 28.667 -7.33301 53.5 -22 74.5s-37 42.833 -67 65.5c-84.667 59.333 -127 121.666 -127 186.999c0 51.333 16.5 93.666 49.5 126.999s75.833 50 128.5 50
c41.333 0 73 -8.33301 95 -25l-19 -66c-22 15.333 -48.667 23 -80 23c-30.667 0 -54.5 -9.66699 -71.5 -29s-25.5 -41.666 -25.5 -66.999c0 -30.667 7.16699 -54.834 21.5 -72.501s40.166 -39.834 77.499 -66.501c78 -54.667 117 -119.334 117 -194.001
c0 -56.667 -17.833 -102.334 -53.5 -137.001s-80.834 -52 -135.501 -52c-22 0 -44 3 -66 9s-38 12.667 -48 20zM230.003 818.004h91l-125 -108h-61z" />
    <glyph glyph-name="sacute" unicode="&#x15b;" horiz-adv-x="289" 
d="M22 22l19 58.001c26 -16.667 52 -25 78 -25c22 0 39.333 6.33301 52 19s19 29.667 19 51c0 19.333 -4.33301 36 -13 50s-25 29 -49 45c-64.667 42 -97 88 -97 138c0 38.667 12.667 70.667 38 96s57 38 95 38c30 0 59 -8.33301 87 -25l-21 -58c-20.667 14 -42 21 -64 21
c-20 0 -35.5 -6 -46.5 -18s-16.5 -26.333 -16.5 -43s4 -30.667 12 -42s24 -25.333 48 -42c66.667 -42.667 100 -91.667 100 -147c0 -46.667 -13.667 -82.334 -41 -107.001s-62 -37 -104 -37c-40.667 0 -72.667 9.33301 -96 28zM190 682.001h79l-105 -135h-51z" />
    <glyph glyph-name="Scircumflex" unicode="&#x15c;" horiz-adv-x="361" 
d="M28 23l17.0029 66.0039c27.333 -18 59.666 -27 96.999 -27c34.667 0 62 10.333 82 31s30 48.334 30 83.001c0 28.667 -7.33301 53.5 -22 74.5s-37 42.833 -67 65.5c-84.667 59.333 -127 121.666 -127 186.999c0 51.333 16.5 93.666 49.5 126.999s75.833 50 128.5 50
c41.333 0 73 -8.33301 95 -25l-19 -66c-22 15.333 -48.667 23 -80 23c-30.667 0 -54.5 -9.66699 -71.5 -29s-25.5 -41.666 -25.5 -66.999c0 -30.667 7.16699 -54.834 21.5 -72.501s40.166 -39.834 77.499 -66.501c78 -54.667 117 -119.334 117 -194.001
c0 -56.667 -17.833 -102.334 -53.5 -137.001s-80.834 -52 -135.501 -52c-22 0 -44 3 -66 9s-38 12.667 -48 20zM155.003 808.004h66l88 -98h-68l-52 55h-2l-52 -55h-66z" />
    <glyph glyph-name="scircumflex" unicode="&#x15d;" horiz-adv-x="289" 
d="M22 22l19 58.001c26 -16.667 52 -25 78 -25c22 0 39.333 6.33301 52 19s19 29.667 19 51c0 19.333 -4.33301 36 -13 50s-25 29 -49 45c-64.667 42 -97 88 -97 138c0 38.667 12.667 70.667 38 96s57 38 95 38c30 0 59 -8.33301 87 -25l-21 -58c-20.667 14 -42 21 -64 21
c-20 0 -35.5 -6 -46.5 -18s-16.5 -26.333 -16.5 -43s4 -30.667 12 -42s24 -25.333 48 -42c66.667 -42.667 100 -91.667 100 -147c0 -46.667 -13.667 -82.334 -41 -107.001s-62 -37 -104 -37c-40.667 0 -72.667 9.33301 -96 28zM119 682.001h52l79 -135h-58l-46 86h-2
l-46 -86h-58z" />
    <glyph glyph-name="Scedilla" unicode="&#x15e;" horiz-adv-x="361" 
d="M28 23l17.002 66.0039c27.333 -18 59.666 -27 96.999 -27c34.667 0 62 10.333 82 31s30 48.334 30 83.001c0 28.667 -7.33301 53.5 -22 74.5s-37 42.833 -67 65.5c-84.667 59.333 -127 121.666 -127 186.999c0 51.333 16.5 93.666 49.5 126.999s75.833 50 128.5 50
c41.333 0 73 -8.33301 95 -25l-19 -66c-22 15.333 -48.667 23 -80 23c-30.667 0 -54.5 -9.66699 -71.5 -29s-25.5 -41.666 -25.5 -66.999c0 -30.667 7.16699 -54.834 21.5 -72.501s40.166 -39.834 77.499 -66.501c78 -54.667 117 -119.334 117 -194.001
c0 -46 -11.833 -84.833 -35.5 -116.5s-55.167 -53.167 -94.5 -64.5l-27 -52c18 -2.66699 33.333 -10.5 46 -23.5s19 -28.833 19 -47.5c0 -26.667 -9 -46.5 -27 -59.5s-39.333 -19.5 -64 -19.5c-23.333 0 -45.333 6 -66 18l15 42c16 -10 32.667 -15 50 -15
c24.667 0 37 10.333 37 31c0 23.333 -23 37.666 -69 42.999l34 75h-7c-22 0 -44 3 -66 9s-38 12.667 -48 20z" />
    <glyph glyph-name="scedilla" unicode="&#x15f;" horiz-adv-x="289" 
d="M22 22l19 57.999c26 -16.667 52 -25 78 -25c22 0 39.333 6.33301 52 19s19 29.667 19 51c0 19.333 -4.33301 36 -13 50s-25 29 -49 45c-64.667 42 -97 88 -97 138c0 38.667 12.667 70.667 38 96s57 38 95 38c30 0 59 -8.33301 87 -25l-21 -58c-20.667 14 -42 21 -64 21
c-20 0 -35.5 -6 -46.5 -18s-16.5 -26.333 -16.5 -43s4 -30.667 12 -42s24 -25.333 48 -42c66.667 -42.667 100 -91.667 100 -147c0 -36.667 -8.66699 -66.5 -26 -89.5s-40.333 -38.833 -69 -47.5l-26 -51c18 -2.66699 33.333 -10.5 46 -23.5s19 -28.833 19 -47.5
c0 -26.667 -9 -46.5 -27 -59.5s-39.333 -19.5 -64 -19.5c-23.333 0 -45.333 6 -66 18l15 42c16 -10 32.667 -15 50 -15c24 0 36 10 36 30c0 24.667 -22.667 39.334 -68 44.001l34 75h-4c-36 0 -66.333 9.33301 -91 28z" />
    <glyph glyph-name="Scaron" unicode="&#x160;" horiz-adv-x="361" 
d="M28 23l17.0029 66.0039c27.333 -18 59.666 -27 96.999 -27c34.667 0 62 10.333 82 31s30 48.334 30 83.001c0 28.667 -7.33301 53.5 -22 74.5s-37 42.833 -67 65.5c-84.667 59.333 -127 121.666 -127 186.999c0 51.333 16.5 93.666 49.5 126.999s75.833 50 128.5 50
c41.333 0 73 -8.33301 95 -25l-19 -66c-22 15.333 -48.667 23 -80 23c-30.667 0 -54.5 -9.66699 -71.5 -29s-25.5 -41.666 -25.5 -66.999c0 -30.667 7.16699 -54.834 21.5 -72.501s40.166 -39.834 77.499 -66.501c78 -54.667 117 -119.334 117 -194.001
c0 -56.667 -17.833 -102.334 -53.5 -137.001s-80.834 -52 -135.501 -52c-22 0 -44 3 -66 9s-38 12.667 -48 20zM230.003 710.004h-67l-87 98h68l51 -58h2l52 58h67z" />
    <glyph glyph-name="scaron" unicode="&#x161;" horiz-adv-x="289" 
d="M22 22l19 58.001c26 -16.667 52 -25 78 -25c22 0 39.333 6.33301 52 19s19 29.667 19 51c0 19.333 -4.33301 36 -13 50s-25 29 -49 45c-64.667 42 -97 88 -97 138c0 38.667 12.667 70.667 38 96s57 38 95 38c30 0 59 -8.33301 87 -25l-21 -58c-20.667 14 -42 21 -64 21
c-20 0 -35.5 -6 -46.5 -18s-16.5 -26.333 -16.5 -43s4 -30.667 12 -42s24 -25.333 48 -42c66.667 -42.667 100 -91.667 100 -147c0 -46.667 -13.667 -82.334 -41 -107.001s-62 -37 -104 -37c-40.667 0 -72.667 9.33301 -96 28zM174 547.001h-53l-79 135h58l46 -87h2l47 87
h58z" />
    <glyph glyph-name="uni0162" unicode="&#x162;" horiz-adv-x="354" 
d="M216 0h-13l-26 -50c18 -2.66699 33.333 -10.5 46 -23.5s19 -28.833 19 -47.5c0 -26.667 -9 -46.5 -27 -59.5s-39.333 -19.5 -64 -19.5c-22.667 0 -44.667 6 -66 18l16 42c15.333 -10 32 -15 50 -15c24 0 36 10.333 36 31c0 24 -23 38.333 -69 43l38 81h-17v605h-123v69
h323v-69h-123v-605z" />
    <glyph glyph-name="uni0163" unicode="&#x163;" horiz-adv-x="255" 
d="M241 425l-93 -0.00195312v-287c0 -53.333 17 -80 51 -80c11.333 0 21.666 1 30.999 3l3 -59c-14.667 -5.33301 -33.667 -8 -57 -8h-1l-22 -44c17.333 -2.66699 32.5 -10.667 45.5 -24s19.5 -29 19.5 -47c0 -26.667 -9 -46.5 -27 -59.5s-39.333 -19.5 -64 -19.5
c-23.333 0 -45.666 6 -66.999 18l16 42c16 -10 32.667 -15 50 -15c24 0 36 10 36 30c0 24.667 -23 39.334 -69 44.001l38 83c-12 4.66699 -22.333 11.667 -31 21c-19.333 22.667 -29 63.334 -29 122.001v280h-59v59h59v106l77 22v-128h93v-59z" />
    <glyph glyph-name="Tcaron" unicode="&#x164;" horiz-adv-x="354" 
d="M139 0v605h-123v69h323v-69h-123v-605h-77zM209 710h-66l-87 98h67l52 -58h2l52 58h66z" />
    <glyph glyph-name="tcaron" unicode="&#x165;" horiz-adv-x="265" 
d="M263 536l-37 19.999c19.333 24.667 29 52 29 82c0 26.667 -10 47.334 -30 62.001l59 11c22.667 -14.667 34 -36.667 34 -66c0 -36 -18.333 -72.333 -55 -109zM71 589.999l77 21.999v-128h93v-59h-93v-287c0 -53.333 17 -80 51 -80c11.333 0 21.666 1 30.999 3l3 -59
c-14.667 -5.33301 -33.667 -8 -57 -8c-33.333 0 -58.666 9.66699 -75.999 29c-19.333 22.667 -29 63.334 -29 122.001v280h-59v59h59v106z" />
    <glyph glyph-name="Tbar" unicode="&#x166;" horiz-adv-x="354" 
d="M339 605h-123v-225h83v-57h-83v-323h-77v323h-84v57h84v225h-123v69h323v-69z" />
    <glyph glyph-name="tbar" unicode="&#x167;" horiz-adv-x="255" 
d="M241 425l-93 -0.000976562v-116h73v-53h-73v-118c0 -53.333 17 -80 51 -80c11.333 0 21.666 1 30.999 3l3 -59c-14.667 -5.33301 -33.667 -8 -57 -8c-33.333 0 -58.666 9.66699 -75.999 29c-19.333 22.667 -29 63.334 -29 122.001v111h-54v53h54v116h-59v59h59v106l77 22
v-128h93v-59z" />
    <glyph glyph-name="Utilde" unicode="&#x168;" horiz-adv-x="457" 
d="M59 674h77v-452c0 -108 30.667 -162 92 -162c62 0 93 54 93 162v452h77v-440c0 -83.333 -15.333 -144.5 -46 -183.5s-72.667 -58.5 -126 -58.5c-111.333 0 -167 77.667 -167 233v449zM163 718h-41.001c-0.666992 28.667 4.33301 51.5 15 68.5s25.334 25.5 44.001 25.5
c12.667 0 28.334 -5.66699 47.001 -17c20 -12 33.333 -18 40 -18c15.333 0 24 12 26 36h40c1.33301 -60 -19.334 -90 -62.001 -90c-14 0 -30.333 5.66699 -49 17c-16.667 11.333 -28.667 17 -36 17c-12.667 0 -20.667 -13 -24 -39z" />
    <glyph glyph-name="utilde" unicode="&#x169;" horiz-adv-x="398" 
d="M344 484l-0.00292969 -351.999c0 -21.333 0.666992 -48.5 2 -81.5s2 -49.833 2 -50.5h-67l-5 51h-2c-9.33301 -14.667 -23.166 -28.167 -41.499 -40.5s-39.166 -18.5 -62.499 -18.5c-41.333 0 -71.333 15.5 -90 46.5s-28 77.5 -28 139.5v306h77v-295
c0 -42.667 4.66699 -75.334 14 -98.001s26.333 -34 51 -34c20 0 35.833 7 47.5 21s18.834 28.333 21.501 43c2.66699 11.333 4 26 4 44v319h77zM132.997 561.001h-41.999c-0.666992 27.333 4.33301 49.833 15 67.5s26 26.5 46 26.5c12.667 0 29 -5.66699 49 -17
c18.667 -11.333 32 -17 40 -17c15.333 0 23.666 12 24.999 36h41c0 -60 -21 -90 -63 -90c-12.667 0 -29 5.66699 -49 17s-32.333 17 -37 17c-14.667 0 -23 -13.333 -25 -40z" />
    <glyph glyph-name="Umacron" unicode="&#x16a;" horiz-adv-x="457" 
d="M59 674h77v-452c0 -108 30.667 -162 92 -162c62 0 93 54 93 162v452h77v-440c0 -83.333 -15.333 -144.5 -46 -183.5s-72.667 -58.5 -126 -58.5c-111.333 0 -167 77.667 -167 233v449zM121 788h213v-53h-213v53z" />
    <glyph glyph-name="umacron" unicode="&#x16b;" horiz-adv-x="398" 
d="M344 484l-0.00292969 -351.999c0 -21.333 0.666992 -48.5 2 -81.5s2 -49.833 2 -50.5h-67l-5 51h-2c-9.33301 -14.667 -23.166 -28.167 -41.499 -40.5s-39.166 -18.5 -62.499 -18.5c-41.333 0 -71.333 15.5 -90 46.5s-28 77.5 -28 139.5v306h77v-295
c0 -42.667 4.66699 -75.334 14 -98.001s26.333 -34 51 -34c20 0 35.833 7 47.5 21s18.834 28.333 21.501 43c2.66699 11.333 4 26 4 44v319h77zM98.9971 631.001h197v-50h-197v50z" />
    <glyph glyph-name="Ubreve" unicode="&#x16c;" horiz-adv-x="457" 
d="M59 674h77v-452c0 -108 30.667 -162 92 -162c62 0 93 54 93 162v452h77v-440c0 -83.333 -15.333 -144.5 -46 -183.5s-72.667 -58.5 -126 -58.5c-111.333 0 -167 77.667 -167 233v449zM121 807l45.998 -0.000976562c2 -13.333 8.33301 -23.833 19 -31.5
s24.334 -11.5 41.001 -11.5c36.667 0 57.334 14.333 62.001 43h46c0 -29.333 -9.66699 -52.666 -29 -69.999s-45.333 -26 -78 -26c-33.333 0 -59.5 8.5 -78.5 25.5s-28.5 40.5 -28.5 70.5z" />
    <glyph glyph-name="ubreve" unicode="&#x16d;" horiz-adv-x="398" 
d="M344 484l-0.00292969 -351.999c0 -21.333 0.666992 -48.5 2 -81.5s2 -49.833 2 -50.5h-67l-5 51h-2c-9.33301 -14.667 -23.166 -28.167 -41.499 -40.5s-39.166 -18.5 -62.499 -18.5c-41.333 0 -71.333 15.5 -90 46.5s-28 77.5 -28 139.5v306h77v-295
c0 -42.667 4.66699 -75.334 14 -98.001s26.333 -34 51 -34c20 0 35.833 7 47.5 21s18.834 28.333 21.501 43c2.66699 11.333 4 26 4 44v319h77zM92.9971 669.001h43.0039c1.33301 -18.667 7.66602 -33.667 18.999 -45s25.666 -17 42.999 -17
c19.333 0 34.666 5.66699 45.999 17s17.333 26.333 18 45h43c1.33301 -33.333 -7.83398 -60.5 -27.501 -81.5s-46.167 -31.5 -79.5 -31.5s-59.5 10.667 -78.5 32s-27.833 48.333 -26.5 81z" />
    <glyph glyph-name="Uring" unicode="&#x16e;" horiz-adv-x="457" 
d="M59 674h77v-452c0 -108 30.667 -162 92 -162c62 0 93 54 93 162v452h77v-440c0 -83.333 -15.333 -144.5 -46 -183.5s-72.667 -58.5 -126 -58.5c-111.333 0 -167 77.667 -167 233v449zM229 862c28 0 50.501 -8.5 67.501 -25.5s25.5 -37.833 25.5 -62.5
c0 -24 -8.83301 -44.5 -26.5 -61.5s-39.834 -25.5 -66.501 -25.5c-28.667 0 -51.667 8.33301 -69 25s-26 37 -26 61c0 24.667 8.66699 45.667 26 63s40.333 26 69 26zM228.001 826c-14 0 -25.167 -5.16699 -33.5 -15.5s-12.5 -22.833 -12.5 -37.5
c0 -12.667 4.16699 -24 12.5 -34s19.5 -15 33.5 -15s25.167 5 33.5 15s12.5 22 12.5 36s-4.16699 26 -12.5 36s-19.5 15 -33.5 15z" />
    <glyph glyph-name="uring" unicode="&#x16f;" horiz-adv-x="398" 
d="M344 484l-0.00292969 -351.999c0 -21.333 0.666992 -48.5 2 -81.5s2 -49.833 2 -50.5h-67l-5 51h-2c-9.33301 -14.667 -23.166 -28.167 -41.499 -40.5s-39.166 -18.5 -62.499 -18.5c-41.333 0 -71.333 15.5 -90 46.5s-28 77.5 -28 139.5v306h77v-295
c0 -42.667 4.66699 -75.334 14 -98.001s26.333 -34 51 -34c20 0 35.833 7 47.5 21s18.834 28.333 21.501 43c2.66699 11.333 4 26 4 44v319h77zM199.997 533.001c-28 0 -50.5 8.16699 -67.5 24.5s-25.5 36.5 -25.5 60.5c0 25.333 8.33301 46.5 25 63.5s39.667 25.5 69 25.5
c27.333 0 49.333 -8.5 66 -25.5s25 -37.833 25 -62.5s-8.66699 -45.167 -26 -61.5s-39.333 -24.5 -66 -24.5zM198.997 568.001c14.667 0 26.333 5.00098 35 15.001s13 22.333 13 37s-4.33301 27 -13 37s-20.667 15 -36 15c-14 0 -25 -5.33301 -33 -16
s-12 -23.334 -12 -38.001c0 -12.667 4.16699 -24.167 12.5 -34.5s19.5 -15.5 33.5 -15.5z" />
    <glyph glyph-name="Uhungarumlaut" unicode="&#x170;" horiz-adv-x="457" 
d="M59 674h77v-452c0 -108 30.667 -162 92 -162c62 0 93 54 93 162v452h77v-440c0 -83.333 -15.333 -144.5 -46 -183.5s-72.667 -58.5 -126 -58.5c-111.333 0 -167 77.667 -167 233v449zM198 818h81l-99 -99h-54zM326 818h80l-99 -99h-54z" />
    <glyph glyph-name="uhungarumlaut" unicode="&#x171;" horiz-adv-x="398" 
d="M344 484l-0.00292969 -351.999c0 -21.333 0.666992 -48.5 2 -81.5s2 -49.833 2 -50.5h-67l-5 51h-2c-9.33301 -14.667 -23.166 -28.167 -41.499 -40.5s-39.166 -18.5 -62.499 -18.5c-41.333 0 -71.333 15.5 -90 46.5s-28 77.5 -28 139.5v306h77v-295
c0 -42.667 4.66699 -75.334 14 -98.001s26.333 -34 51 -34c20 0 35.833 7 47.5 21s18.834 28.333 21.501 43c2.66699 11.333 4 26 4 44v319h77zM187.997 682.001h70l-104 -135h-44zM311.997 682.001h69l-104 -135h-44z" />
    <glyph glyph-name="Uogonek" unicode="&#x172;" horiz-adv-x="457" 
d="M323 -126l11 -43c-19.333 -14.667 -43.333 -22 -72 -22c-25.333 0 -45.666 6.83301 -60.999 20.5s-23 32.167 -23 55.5c0 34.667 16.667 70.667 50 108h-12c-104.667 4.66699 -157 82 -157 232v449h77v-452c0 -108 30.667 -162 92 -162c62 0 93 54 93 162v452h77v-440
c0 -118.667 -31 -192.667 -93 -222c-18.667 -14.667 -34.334 -32 -47.001 -52s-19 -38.667 -19 -56c0 -13.333 3.83301 -23.5 11.5 -30.5s17.167 -10.5 28.5 -10.5c16 0 30.667 3.66699 44 11z" />
    <glyph glyph-name="uogonek" unicode="&#x173;" horiz-adv-x="398" 
d="M344 484l-0.00195312 -352c0 -50.667 2.33301 -94.667 7 -132h-16c-27.333 -37.333 -41 -71.666 -41 -102.999c0 -14 4.16699 -25.167 12.5 -33.5s18.166 -12.5 29.499 -12.5c17.333 0 31.333 3 42 9l11 -43c-20 -14.667 -44 -22 -72 -22c-26 0 -46.5 7.33301 -61.5 22
s-22.5 35 -22.5 61c0 31.333 16 72 48 122l-5 51h-2c-9.33301 -14.667 -23.166 -28.167 -41.499 -40.5s-39.166 -18.5 -62.499 -18.5c-41.333 0 -71.333 15.5 -90 46.5s-28 77.5 -28 139.5v306h77v-295c0 -42.667 4.66699 -75.334 14 -98.001s26.333 -34 51 -34
c20 0 35.833 7 47.5 21s18.834 28.333 21.501 43c2.66699 11.333 4 26 4 44v319h77z" />
    <glyph glyph-name="Wcircumflex" unicode="&#x174;" horiz-adv-x="654" 
d="M222 0l-72.001 0.00195312l-130 674h80l57 -325c15.333 -93.333 26.333 -174.333 33 -243h4c4 39.333 17.333 120.666 40 243.999l62 324h66l62 -317c20.667 -108.667 33.667 -192.334 39 -251.001h3c8 68.667 20 151 36 247l56 321h75l-131 -674h-75l-65 328
c-16.667 90 -28 163.667 -34 221h-2c-11.333 -88 -23.666 -162.667 -36.999 -224zM295.999 808.002h66l88 -98h-68l-52 55h-2l-52 -55h-66z" />
    <glyph glyph-name="wcircumflex" unicode="&#x175;" horiz-adv-x="566" 
d="M13 484l79.9971 -0.000976562l47 -237c16.667 -94.667 25.334 -146 26.001 -154h4c6 42.667 16 93.334 30 152.001l56 239h59l53 -232c14.667 -66.667 25 -119.667 31 -159h4c4.66699 42 13.334 94 26.001 156l46 235h77l-122 -484h-63l-56 235
c-9.33301 36 -18.333 84.333 -27 145h-2c-7.33301 -50 -16.666 -99.333 -27.999 -148l-58 -232h-65zM256.997 681.999h52l79 -135h-58l-46 86h-2l-46 -86h-58z" />
    <glyph glyph-name="Ycircumflex" unicode="&#x176;" horiz-adv-x="394" 
d="M235 0l-77 -0.000976562v285l-148 389h81l60 -169c20 -56 36.667 -106.667 50 -152h2c10.667 40.667 27 92.334 49 155.001l57 166h81l-155 -386v-288zM167 807.999h66l87 -98h-67l-52 55h-2l-52 -55h-66z" />
    <glyph glyph-name="ycircumflex" unicode="&#x177;" horiz-adv-x="346" 
d="M13 484h81l64 -278c2.66699 -11.333 5.16699 -22.833 7.5 -34.5l7 -36.5c2.33301 -12.667 4.16602 -22.334 5.49902 -29.001h2c4.66699 25.333 11.667 58.333 21 99l57 279h76l-79 -311c-18 -74 -36 -136.167 -54 -186.5s-40 -92.166 -66 -125.499
c-28 -35.333 -57 -60 -87 -74l-28 66c23.333 12.667 46 33 68 61c18.667 23.333 33.334 50.333 44.001 81c3.33301 10 5 18 5 24c0 8 -0.666992 14 -2 18zM148 682h52l79 -135h-57l-47 86h-2l-46 -86h-58z" />
    <glyph glyph-name="Ydieresis" unicode="&#x178;" horiz-adv-x="394" 
d="M235 0l-77 -0.000976562v285l-148 389h81l60 -169c20 -56 36.667 -106.667 50 -152h2c10.667 40.667 27 92.334 49 155.001l57 166h81l-155 -386v-288zM122 717.999c-12 0 -22.167 4.16699 -30.5 12.5s-12.5 19.5 -12.5 33.5c0 13.333 4.16699 24.5 12.5 33.5
s18.5 13.5 30.5 13.5c12.667 0 23 -4.33301 31 -13s12 -20 12 -34s-3.83301 -25.167 -11.5 -33.5s-18.167 -12.5 -31.5 -12.5zM284 717.999c-12.667 0 -23 4.16699 -31 12.5s-12 19.5 -12 33.5c0 13.333 4.16699 24.5 12.5 33.5s18.5 13.5 30.5 13.5
c12.667 0 23 -4.33301 31 -13s12 -20 12 -34s-3.83301 -25.167 -11.5 -33.5s-18.167 -12.5 -31.5 -12.5z" />
    <glyph glyph-name="Zacute" unicode="&#x179;" horiz-adv-x="358" 
d="M20 0v46l231 559v3h-212v66h298v-52l-227 -553v-3h226v-66h-316zM235 818h91l-125 -108h-61z" />
    <glyph glyph-name="zacute" unicode="&#x17a;" horiz-adv-x="313" 
d="M16 0v47l153 299l19.5 35.5c9 16.333 15.5 28.5 19.5 36.5v2h-173v64h258v-51l-151 -295l-19.5 -35.5c-9 -16.333 -15.5 -28.5 -19.5 -36.5v-2h190v-64h-277zM207 682h79l-105 -135h-51z" />
    <glyph glyph-name="Zdotaccent" unicode="&#x17b;" horiz-adv-x="358" 
d="M20 0v46l231 559v3h-212v66h298v-52l-227 -553v-3h226v-66h-316zM193 721c-12.667 0 -23.334 4.5 -32.001 13.5s-13 19.5 -13 31.5c0 12.667 4.33301 23.334 13 32.001s19.334 13 32.001 13s23.167 -4.33301 31.5 -13s12.5 -19.334 12.5 -32.001
c0 -12 -4.33301 -22.5 -13 -31.5s-19 -13.5 -31 -13.5z" />
    <glyph glyph-name="zdotaccent" unicode="&#x17c;" horiz-adv-x="313" 
d="M16 0v47l153 299l19.5 35.5c9 16.333 15.5 28.5 19.5 36.5v2h-173v64h258v-51l-151 -295l-19.5 -35.5c-9 -16.333 -15.5 -28.5 -19.5 -36.5v-2h190v-64h-277zM161 566c-12.667 0 -23.167 4.16504 -31.5 12.498s-12.5 18.833 -12.5 31.5s4.33301 23.334 13 32.001
s19 13 31 13s22.167 -4.16699 30.5 -12.5s12.5 -19.166 12.5 -32.499c0 -12.667 -4 -23.167 -12 -31.5s-18.333 -12.5 -31 -12.5z" />
    <glyph glyph-name="Zcaron" unicode="&#x17d;" horiz-adv-x="358" 
d="M20 0v46l231 559v3h-212v66h298v-52l-227 -553v-3h226v-66h-316zM222 710h-66l-87 98h67l52 -58h2l52 58h66z" />
    <glyph glyph-name="zcaron" unicode="&#x17e;" horiz-adv-x="313" 
d="M16 0v47l153 299l19.5 35.5c9 16.333 15.5 28.5 19.5 36.5v2h-173v64h258v-51l-151 -295l-19.5 -35.5c-9 -16.333 -15.5 -28.5 -19.5 -36.5v-2h190v-64h-277zM192 547h-53l-79 135h58l46 -87h2l47 87h58z" />
    <glyph glyph-name="florin" unicode="&#x192;" horiz-adv-x="385" 
d="M78 346l-0.00195312 60h81l7 54c16 132 68.333 198 157 198c22 0 40.333 -4 55 -12l-12 -57c-13.333 4.66699 -27.666 7 -42.999 7c-44.667 0 -72 -42.333 -82 -127l-9 -63h91v-60h-96l-28 -230c-8 -64.667 -22.833 -113.5 -44.5 -146.5s-56.167 -49.5 -103.5 -49.5
c-27.333 1.33301 -48.333 7 -63 17l15 56c14.667 -7.33301 29.667 -11 45 -11c22 0 39.333 11.333 52 34s22.334 61.667 29.001 117l25 213h-76z" />
    <glyph glyph-name="Ohorn" unicode="&#x1a0;" horiz-adv-x="446" 
d="M224 60c27.333 0 49.667 14.6689 67 44.002s28.833 63.5 34.5 102.5s8.5 83.167 8.5 132.5c0 34.667 -1.66699 67 -5 97s-9 59 -17 87s-19.667 50.167 -35 66.5s-33.333 24.5 -54 24.5s-38.667 -8.16699 -54 -24.5s-27 -38.333 -35 -66s-13.667 -56.834 -17 -87.501
s-5 -63.334 -5 -98.001c-0.666992 -76.667 7.83301 -142.167 25.5 -196.5s46.5 -81.5 86.5 -81.5zM361.001 727.002l58.999 11.001c10.667 -20 16 -42.333 16 -67c0 -22.667 -6.16699 -41.667 -18.5 -57s-30.166 -22.666 -53.499 -21.999c33.333 -58 50 -141.333 50 -250
c0 -120 -18 -208.333 -54 -265s-83 -85 -141 -85c-57.333 0 -102.833 29.833 -136.5 89.5s-50.5 145.167 -50.5 256.5c0 109.333 18 194 54 254s84 90 144 90c24.667 0 48.334 -6 71.001 -18l16 -9.5c6 -3.66699 10.5 -6.33398 13.5 -8.00098s6.16699 -3.16699 9.5 -4.5
s6.66602 -2 9.99902 -2c17.333 0 26 10.667 26 32c0 15.333 -5 33.666 -15 54.999z" />
    <glyph glyph-name="ohorn" unicode="&#x1a1;" horiz-adv-x="383" 
d="M192 430c-16 0 -29.8369 -6.16602 -41.5039 -18.499s-20.167 -28.5 -25.5 -48.5s-9.16602 -39.833 -11.499 -59.5s-3.5 -40.167 -3.5 -61.5c0 -22.667 1.16699 -44 3.5 -64s6.33301 -40 12 -60s14.334 -35.833 26.001 -47.5s25.834 -17.5 42.501 -17.5
c15.333 0 28.666 6.16699 39.999 18.5s19.5 28.666 24.5 48.999s8.66699 40.333 11 60s3.5 40.167 3.5 61.5s-1.16699 41.833 -3.5 61.5s-6.16602 39.5 -11.499 59.5s-13.666 36.167 -24.999 48.5s-25 18.5 -41 18.5zM314.996 547.001l58.001 10.001
c11.333 -20 17 -42 17 -66c0 -23.333 -6.66699 -41.833 -20 -55.5s-32 -20.834 -56 -21.501c24.667 -41.333 37 -98.666 37 -171.999c0 -86 -16 -149.167 -48 -189.5s-69.667 -60.5 -113 -60.5c-46 0 -83.667 21.167 -113 63.5s-44 104.166 -44 185.499
c0 83.333 15.667 146 47 188s69.666 63 114.999 63c16.667 0 35 -4.33301 55 -13c26.667 -11.333 43.667 -17 51 -17c19.333 0 29 10.667 29 32c0 18 -5 35.667 -15 53z" />
    <glyph glyph-name="Uhorn" unicode="&#x1af;" horiz-adv-x="474" 
d="M406 757l59.001 9c10 -20 15 -41.667 15 -65c0 -48 -24 -73 -72 -75l-10 -1v-391c0 -83.333 -15.333 -144.5 -46 -183.5s-72.667 -58.5 -126 -58.5c-111.333 0 -167 77.667 -167 233v449h77v-452c0 -108 30.667 -162 92 -162c62 0 93 54 93 162v452h62
c13.333 0 22.666 2.16699 27.999 6.5s8 11.833 8 22.5c0 18.667 -4.33301 36.667 -13 54z" />
    <glyph glyph-name="uhorn" unicode="&#x1b0;" horiz-adv-x="398" 
d="M346 569l58.9971 9.00195c10.667 -18.667 16 -40 16 -64c0 -21.333 -5.83301 -38.833 -17.5 -52.5s-29.5 -20.834 -53.5 -21.501l-6 -1v-307c0 -21.333 0.666992 -48.5 2 -81.5s2 -49.833 2 -50.5h-67l-5 51h-2c-9.33301 -14.667 -23.166 -28.167 -41.499 -40.5
s-39.166 -18.5 -62.499 -18.5c-41.333 0 -71.333 15.5 -90 46.5s-28 77.5 -28 139.5v306h77v-295c0 -42.667 4.66699 -75.334 14 -98.001s26.333 -34 51 -34c20 0 35.833 7 47.5 21s18.834 28.333 21.501 43c2.66699 11.333 4 26 4 44v319h58c13.333 0 22.5 2.5 27.5 7.5
s7.5 13.167 7.5 24.5c0 18 -4.66699 35.667 -14 53z" />
    <glyph glyph-name="Aringacute" unicode="&#x1fa;" horiz-adv-x="435" 
d="M222 688c-27.333 0 -48.333 6.99902 -63 20.999s-22 31 -22 51c0 20.667 7.66699 38.334 23 53.001s36.333 22 63 22s47.167 -7 61.5 -21s21.5 -31.667 21.5 -53c0 -20 -7.5 -37.167 -22.5 -51.5s-35.5 -21.5 -61.5 -21.5zM221 721.999
c12.667 0 22.667 3.66797 30 11.001s11 17 11 29c0 10.667 -3.5 20 -10.5 28s-17.167 12 -30.5 12s-23.333 -4 -30 -12s-10 -17.667 -10 -29c0 -10.667 3.5 -19.834 10.5 -27.501s16.833 -11.5 29.5 -11.5zM284 935h98l-136 -82h-65zM290 202h-149l-45 -202h-74l154 674h85
l150 -674h-76zM152 264h128l-35 171c-6.66699 32.667 -15.667 84 -27 154h-4c-9.33301 -58.667 -18.333 -110 -27 -154z" />
    <glyph glyph-name="aringacute" unicode="&#x1fb;" horiz-adv-x="364" 
d="M234 806h81l-117 -95h-52zM184 516c-27.333 0 -49.667 8.16699 -67 24.5s-26 36.5 -26 60.5c0 25.333 8.33301 46.5 25 63.5s39.667 25.5 69 25.5c27.333 0 49.333 -8.33301 66 -25s25 -37.667 25 -63c0 -24.667 -8.66699 -45.167 -26 -61.5s-39.333 -24.5 -66 -24.5z
M183.999 551c14.667 0 26.166 5.00098 34.499 15.001s12.5 22.333 12.5 37s-4.16699 27 -12.5 37s-20.166 15 -35.499 15c-14 0 -25 -5.33301 -33 -16s-12 -23.334 -12 -38.001c0 -13.333 4.16699 -25 12.5 -35s19.5 -15 33.5 -15zM314.998 0.000976562
l-70.001 -0.000976562l-5 51h-3c-22 -39.333 -54 -59 -96 -59c-32.667 0 -60 12.833 -82 38.5s-33 58.834 -33 99.501c0 57.333 19.667 100.833 59 130.5s88.333 44.834 147 45.501v15c0 35.333 -5.66699 62.5 -17 81.5s-31.333 28.5 -60 28.5
c-28 0 -54.667 -8.33301 -80 -25l-17 54c28.667 21.333 66.334 32 113.001 32c92.667 0 139 -57.667 139 -173v-209c0 -52.667 1.66699 -89.334 5 -110.001zM233.997 152v98c-88.667 0 -133 -37.333 -133 -112c0 -28.667 6 -50.167 18 -64.5s25.667 -21.5 41 -21.5
c17.333 0 32.5 6.33301 45.5 19s21.833 30.667 26.5 54c1.33301 6 2 15 2 27z" />
    <glyph glyph-name="AEacute" unicode="&#x1fc;" horiz-adv-x="556" 
d="M83 0h-75l203 674h304v-67h-186l13 -226h171v-65h-165l14 -249h179v-67h-248l-13 222h-134zM162 284l112 0.000976562l-9 205c-0.666992 9.33301 -1.66699 29.666 -3 60.999l-3 70h-5l-39 -143zM384 818.001h91l-124 -108h-61z" />
    <glyph glyph-name="aeacute" unicode="&#x1fd;" horiz-adv-x="561" 
d="M531 241l-224.001 0.000976562c0 -69.333 10 -118 30 -146s47.667 -42 83 -42c30 0 57.333 7 82 21l13 -55c-28 -18 -65 -27 -111 -27c-30 0 -57.333 8.16699 -82 24.5s-41.667 39.166 -51 68.499h-2c-10.667 -29.333 -26.667 -52.166 -48 -68.499
s-46.666 -24.5 -75.999 -24.5c-34.667 0 -63.167 12.833 -85.5 38.5s-33.5 59.5 -33.5 101.5c0 55.333 19.667 97.5 59 126.5s88.666 43.5 147.999 43.5v27c0 30.667 -6.66699 55.334 -20 74.001s-33.666 28 -60.999 28c-28 0 -54 -8.33301 -78 -25l-17 53
c32.667 22 69.667 33 111 33c26.667 0 50.167 -7.33301 70.5 -22s33.833 -36.334 40.5 -65.001h2c10.667 27.333 26.5 48.666 47.5 63.999s44.5 23 70.5 23c44 0 77.167 -20.833 99.5 -62.5s33.5 -92.167 33.5 -151.5c0 -4 -0.166992 -10 -0.5 -18s-0.5 -14.333 -0.5 -19z
M233.999 154.001v95c-14 0 -27.167 -1.16699 -39.5 -3.5s-26.666 -6.83301 -42.999 -13.5s-29.333 -18.167 -39 -34.5s-14.5 -36.5 -14.5 -60.5c0 -28 6.16699 -49 18.5 -63s27.166 -21 44.499 -21c16.667 0 31.5 6.5 44.5 19.5s21.5 30.833 25.5 53.5c2 6 3 15.333 3 28z
M307.999 296.001h150.001c1.33301 43.333 -4.83398 77 -18.501 101s-30.5 36 -50.5 36c-24.667 0 -44 -13.667 -58 -41s-21.667 -59.333 -23 -96zM331 682.001h78l-104 -135h-51z" />
    <glyph glyph-name="Oslashacute" unicode="&#x1fe;" horiz-adv-x="446" 
d="M86 -37l-43 22.999l42 95c-35.333 59.333 -53 145 -53 257c0 109.333 17.667 194 53 254s81.666 90 138.999 90c39.333 0 73 -13.667 101 -41l30 70l46 -20l-40 -91c35.333 -60 53 -145.667 53 -257c0 -119.333 -17.833 -207.666 -53.5 -264.999s-81.5 -86 -137.5 -86
c-41.333 0 -75.666 15 -102.999 45zM129 171.999l163.999 398c-19.333 29.333 -42.666 44 -69.999 44c-20.667 0 -38.667 -7.83301 -54 -23.5s-27.333 -37 -36 -64s-15 -56.167 -19 -87.5s-6 -65 -6 -101c0 -68.667 6.33301 -124 19 -166h2zM316.999 506.999
l-167.999 -396.999c18 -33.333 42.667 -50 74 -50c20.667 0 38.667 8 54 24s27.166 37.667 35.499 65s14.5 56.666 18.5 87.999s6 65.333 6 102c0 68.667 -6 124.667 -18 168h-2zM275 818h91l-125 -108h-60z" />
    <glyph glyph-name="oslashacute" unicode="&#x1ff;" horiz-adv-x="383" 
d="M192 492c29.333 0 56.667 -10 82 -30l25 53l42 -22l-34 -68c29.333 -42.667 44 -103.667 44 -183c0 -85.333 -16 -148.333 -48 -189s-69 -61 -111 -61c-30.667 0 -57.667 9.33301 -81 28l-26 -53l-39 25l31 64c-29.333 43.333 -44 105 -44 185
c0 82.667 15.5 145.167 46.5 187.5s68.5 63.5 112.5 63.5zM122.001 131l121 267.001c-8.66699 21.333 -25.667 32 -51 32c-17.333 0 -32 -6.33301 -44 -19s-20.833 -29.334 -26.5 -50.001s-9.5 -40.5 -11.5 -59.5s-3 -38.833 -3 -59.5c0 -42 4.33301 -78.667 13 -110z
M263.001 348.001l-120 -264.001c10 -20.667 26.333 -31 49 -31c16.667 0 31 5.83301 43 17.5s20.833 27.334 26.5 47.001s9.66699 39.167 12 58.5s3.5 39.666 3.5 60.999c0 40.667 -4 77.334 -12 110.001zM230.001 682h79l-105 -135h-51z" />
    <glyph glyph-name="Scommaaccent" unicode="&#x218;" horiz-adv-x="361" 
d="M28 23l17.0029 66.0039c27.333 -18 59.666 -27 96.999 -27c34.667 0 62 10.333 82 31s30 48.334 30 83.001c0 28.667 -7.33301 53.5 -22 74.5s-37 42.833 -67 65.5c-84.667 59.333 -127 121.666 -127 186.999c0 51.333 16.5 93.666 49.5 126.999s75.833 50 128.5 50
c41.333 0 73 -8.33301 95 -25l-19 -66c-22 15.333 -48.667 23 -80 23c-30.667 0 -54.5 -9.66699 -71.5 -29s-25.5 -41.666 -25.5 -66.999c0 -30.667 7.16699 -54.834 21.5 -72.501s40.166 -39.834 77.499 -66.501c78 -54.667 117 -119.334 117 -194.001
c0 -56.667 -17.833 -102.334 -53.5 -137.001s-80.834 -52 -135.501 -52c-22 0 -44 3 -66 9s-38 12.667 -48 20zM119.003 -213.996l-17 37.001c42.667 12.667 64 33.667 64 63c0 23.333 -11.333 43.666 -34 60.999l63 11c22.667 -14.667 34 -38 34 -70
c0 -29.333 -10.5 -52.333 -31.5 -69s-47.167 -27.667 -78.5 -33z" />
    <glyph glyph-name="scommaaccent" unicode="&#x219;" horiz-adv-x="289" 
d="M22 22l19 58.001c26 -16.667 52 -25 78 -25c22 0 39.333 6.33301 52 19s19 29.667 19 51c0 19.333 -4.33301 36 -13 50s-25 29 -49 45c-64.667 42 -97 88 -97 138c0 38.667 12.667 70.667 38 96s57 38 95 38c30 0 59 -8.33301 87 -25l-21 -58c-20.667 14 -42 21 -64 21
c-20 0 -35.5 -6 -46.5 -18s-16.5 -26.333 -16.5 -43s4 -30.667 12 -42s24 -25.333 48 -42c66.667 -42.667 100 -91.667 100 -147c0 -46.667 -13.667 -82.334 -41 -107.001s-62 -37 -104 -37c-40.667 0 -72.667 9.33301 -96 28zM90 -213.999l-16 36.999
c42.667 12.667 64 33.667 64 63c0 22 -11.333 42.333 -34 61l62 11c23.333 -15.333 35 -38.666 35 -69.999c0 -29.333 -10.5 -52.333 -31.5 -69s-47.5 -27.667 -79.5 -33z" />
    <glyph glyph-name="uni021A" unicode="&#x21a;" horiz-adv-x="354" 
d="M139 0v605h-123v69h323v-69h-123v-605h-77zM123 -214l-17 37c42.667 12.667 64 33.667 64 63c0 22.667 -11 43 -33 61l62 11c22.667 -14.667 34 -38 34 -70c0 -29.333 -10.5 -52.333 -31.5 -69s-47.167 -27.667 -78.5 -33z" />
    <glyph glyph-name="uni021B" unicode="&#x21b;" horiz-adv-x="255" 
d="M71 590l77 21.999v-128h93v-59h-93v-287c0 -53.333 17 -80 51 -80c11.333 0 21.666 1 30.999 3l3 -59c-14.667 -5.33301 -33.667 -8 -57 -8c-33.333 0 -58.666 9.66699 -75.999 29c-19.333 22.667 -29 63.334 -29 122.001v280h-59v59h59v106zM86 -214.001l-17 37
c42.667 12.667 64 33.667 64 63c0 22.667 -11 43 -33 61l62 11c22.667 -14.667 34 -38 34 -70c0 -29.333 -10.5 -52.333 -31.5 -69s-47.167 -27.667 -78.5 -33z" />
    <glyph glyph-name="uni021C" unicode="&#x21c;" horiz-adv-x="340" 
d="M32 -106l-9 61.999c57.333 10 106.5 34.667 147.5 74s61.5 89 61.5 149c0 37.333 -9.66699 68.166 -29 92.499s-45 36.5 -77 36.5c-17.333 0 -38 -4 -62 -12l-12 58c37.333 8 70.833 28.333 100.5 61s44.5 70.667 44.5 114c0 26 -7.33301 47.333 -22 64
s-34.667 25 -60 25c-22 0 -47.333 -6.66699 -76 -20l-15 55c29.333 19.333 65.666 29 108.999 29c42 0 75.5 -14 100.5 -42s37.5 -61.333 37.5 -100s-8.66699 -73.5 -26 -104.5s-39.333 -54.833 -66 -71.5v-3c37.333 -7.33301 68.5 -26.666 93.5 -57.999
s37.5 -71.666 37.5 -120.999c0 -53.333 -14.667 -102 -44 -146s-64.666 -77.667 -105.999 -101s-84 -37 -128 -41z" />
    <glyph glyph-name="uni021D" unicode="&#x21d;" horiz-adv-x="311" 
d="M19 -200l-6.00098 63.002c52.667 5.33301 99.334 23.833 140.001 55.5s61 73.834 61 126.501c0 29.333 -8.83301 54.166 -26.5 74.499s-43.5 30.5 -77.5 30.5c-16.667 0 -35.667 -2.66699 -57 -8l-10 58c40 9.33301 73 25.333 99 48s39 52 39 88
c0 28 -7.16699 50.167 -21.5 66.5s-33.166 24.5 -56.499 24.5c-20.667 0 -45 -7 -73 -21l-16 56c30.667 20 65.667 30 105 30c41.333 0 74.166 -13.333 98.499 -40s36.5 -59.334 36.5 -98.001c0 -68 -29.333 -118 -88 -150v-2c36.667 -6.66699 66.667 -23.334 90 -50.001
s35 -60.667 35 -102c0 -36 -8 -69.5 -24 -100.5s-37.167 -56.833 -63.5 -77.5s-55.5 -37.167 -87.5 -49.5s-64.333 -19.833 -97 -22.5z" />
    <glyph glyph-name="uni0232" unicode="&#x232;" horiz-adv-x="394" 
d="M235 0l-77 -0.000976562v285l-148 389h81l60 -169c20 -56 36.667 -106.667 50 -152h2c10.667 40.667 27 92.334 49 155.001l57 166h81l-155 -386v-288zM90 787.999h213v-53h-213v53z" />
    <glyph glyph-name="uni0233" unicode="&#x233;" horiz-adv-x="346" 
d="M13 484h81l64 -278c2.66699 -11.333 5.16699 -22.833 7.5 -34.5l7 -36.5c2.33301 -12.667 4.16602 -22.334 5.49902 -29.001h2c4.66699 25.333 11.667 58.333 21 99l57 279h76l-79 -311c-18 -74 -36 -136.167 -54 -186.5s-40 -92.166 -66 -125.499
c-28 -35.333 -57 -60 -87 -74l-28 66c23.333 12.667 46 33 68 61c18.667 23.333 33.334 50.333 44.001 81c3.33301 10 5 18 5 24c0 8 -0.666992 14 -2 18zM75 631h197v-50h-197v50z" />
    <glyph glyph-name="circumflex" unicode="&#x2c6;" 
d="M124 682h52l79 -135h-57l-47 86h-2l-46 -86h-58z" />
    <glyph glyph-name="caron" unicode="&#x2c7;" 
d="M177 547h-53l-79 135h58l46 -87h2l47 87h58z" />
    <glyph glyph-name="uni02C9" unicode="&#x2c9;" 
d="M52 631h197v-50h-197v50z" />
    <glyph glyph-name="breve" unicode="&#x2d8;" 
d="M44 669h43.001c1.33301 -18.667 7.83301 -33.667 19.5 -45s25.834 -17 42.501 -17c19.333 0 34.666 5.66699 45.999 17s17.333 26.333 18 45h43c1.33301 -33.333 -7.83398 -60.5 -27.501 -81.5s-46.167 -31.5 -79.5 -31.5s-59.5 10.667 -78.5 32s-27.833 48.333 -26.5 81
z" />
    <glyph glyph-name="dotaccent" unicode="&#x2d9;" 
d="M151 566c-12.667 0 -23.167 4.16504 -31.5 12.498s-12.5 18.833 -12.5 31.5s4.33301 23.334 13 32.001s19 13 31 13s22.167 -4.16699 30.5 -12.5s12.5 -19.166 12.5 -32.499c0 -12.667 -4 -23.167 -12 -31.5s-18.333 -12.5 -31 -12.5z" />
    <glyph glyph-name="ring" unicode="&#x2da;" 
d="M117 533c-28 0 -50.5 8.16699 -67.5 24.5s-25.5 36.5 -25.5 60.5c0 25.333 8.33301 46.5 25 63.5s39.667 25.5 69 25.5c26.667 0 48.5 -8.5 65.5 -25.5s25.5 -37.833 25.5 -62.5s-8.66699 -45.167 -26 -61.5s-39.333 -24.5 -66 -24.5zM116 568
c14.667 0 26.333 5.00098 35 15.001s13 22.333 13 37s-4.33301 27 -13 37s-20.667 15 -36 15c-14 0 -25 -5.33301 -33 -16s-12 -23.334 -12 -38.001c0 -12.667 4.16699 -24.167 12.5 -34.5s19.5 -15.5 33.5 -15.5z" />
    <glyph glyph-name="ogonek" unicode="&#x2db;" 
d="M123 5l53.999 -0.000976562c-29.333 -44 -44 -78 -44 -102c0 -14.667 4.16699 -26 12.5 -34s17.833 -12 28.5 -12c16.667 0 31 3 43 9l11 -43c-19.333 -14.667 -43.333 -22 -72 -22c-25.333 0 -45.666 7.33301 -60.999 22s-23 34.334 -23 59.001
c0 38.667 17 79.667 51 123z" />
    <glyph glyph-name="tilde" unicode="&#x2dc;" 
d="M84 561h-41.999c-0.666992 27.333 4.33301 49.833 15 67.5s26 26.5 46 26.5c12.667 0 29 -5.66699 49 -17c18.667 -11.333 32 -17 40 -17c15.333 0 23.666 12 24.999 36h41c0 -60 -21 -90 -63 -90c-12.667 0 -29 5.66699 -49 17s-32.333 17 -37 17
c-14.667 0 -23 -13.333 -25 -40z" />
    <glyph glyph-name="hungarumlaut" unicode="&#x2dd;" 
d="M112 682h70l-104 -135h-44zM236 682h70l-104 -135h-44z" />
    <glyph glyph-name="uni037E" unicode="&#x37e;" horiz-adv-x="200" 
d="M82 -119l-52 -7c26 89.333 41 167 45 233l86 5c-22.667 -94.667 -49 -171.667 -79 -231zM111 329c-15.333 0 -27.833 5.5 -37.5 16.5s-14.5 25.167 -14.5 42.5s5 31.833 15 43.5s22.667 17.5 38 17.5s27.833 -5.5 37.5 -16.5s14.5 -25.833 14.5 -44.5
c0 -18 -4.66699 -32.333 -14 -43s-22.333 -16 -39 -16z" />
    <glyph glyph-name="tonos" unicode="&#x384;" horiz-adv-x="305" 
d="M108 683h68l-56 -135h-45z" />
    <glyph glyph-name="dieresistonos" unicode="&#x385;" horiz-adv-x="350" 
d="M153 692h65l-36 -147h-41zM73 568c-12 0 -22.167 3.83301 -30.5 11.5s-12.5 17.5 -12.5 29.5s4.16699 21.667 12.5 29s18.5 11 30.5 11c10 0 18.833 -3.83301 26.5 -11.5s11.5 -17.167 11.5 -28.5c0 -12 -3.66699 -21.833 -11 -29.5s-16.333 -11.5 -27 -11.5zM274 568
c-11.333 0 -21 3.83301 -29 11.5s-12 17.5 -12 29.5c0 11.333 4.16699 20.833 12.5 28.5s17.833 11.5 28.5 11.5c11.333 0 21 -3.66699 29 -11s12 -17 12 -29s-4 -21.833 -12 -29.5s-17.667 -11.5 -29 -11.5z" />
    <glyph glyph-name="Alphatonos" unicode="&#x386;" horiz-adv-x="444" 
d="M44 674h66l-29 -148h-41zM299 202h-149l-45 -202h-74l154 674h85l150 -674h-76zM161 264h128l-35 171c-6.66699 32.667 -15.667 84 -27 154h-4c-9.33301 -58.667 -18.333 -110 -27 -154z" />
    <glyph glyph-name="anoteleia" unicode="&#x387;" horiz-adv-x="200" 
d="M100 257c-16 0 -29.167 5.83203 -39.5 17.499s-15.5 26.834 -15.5 45.501c0 18 5.33301 33 16 45s23.667 18 39 18c16.667 0 30 -5.83301 40 -17.5s15 -26.834 15 -45.501c0 -19.333 -5 -34.666 -15 -45.999s-23.333 -17 -40 -17z" />
    <glyph glyph-name="Epsilontonos" unicode="&#x388;" horiz-adv-x="406" 
d="M4 674h66l-29 -148h-41zM358 385v-65h-169v-253h192v-67h-269v674h257v-67h-180v-222h169z" />
    <glyph glyph-name="Etatonos" unicode="&#x389;" horiz-adv-x="515" 
d="M4 674h66l-29 -148h-41zM112 674h77v-289h189v289h77v-674h-77v315h-189v-315h-77v674z" />
    <glyph glyph-name="Iotatonos" unicode="&#x38a;" horiz-adv-x="249" 
d="M4 674h66l-29 -148h-41zM112 674h77v-674h-77v674z" />
    <glyph glyph-name="Omicrontonos" unicode="&#x38c;" horiz-adv-x="482" 
d="M4 674h66l-29 -148h-41zM266 682c57.333 0 102.334 -29.833 135.001 -89.5s49 -143.167 49 -250.5c0 -120 -17.833 -208.333 -53.5 -265s-82.834 -85 -141.501 -85c-57.333 0 -102.833 29.833 -136.5 89.5s-50.5 145.167 -50.5 256.5c0 109.333 18 194 54 254
s84 90 144 90zM260.001 614c-26.667 0 -48.833 -13.999 -66.5 -41.999s-29.667 -61.833 -36 -101.5s-9.5 -84.167 -9.5 -133.5c0 -36.667 2 -70.834 6 -102.501s10.167 -61 18.5 -88s20 -48.167 35 -63.5s32.833 -23 53.5 -23s38.5 8.16699 53.5 24.5s26.333 38.5 34 66.5
s13.167 57.333 16.5 88s5 64 5 100c0 34 -1.66699 66.167 -5 96.5s-9 59.5 -17 87.5s-19.5 50.167 -34.5 66.5s-32.833 24.5 -53.5 24.5z" />
    <glyph glyph-name="Upsilontonos" unicode="&#x38e;" horiz-adv-x="514" 
d="M4 674h66l-29 -148h-41zM96 615l15.002 64.998c8 -0.666992 20 -4.83398 36 -12.501s30.333 -17.5 43 -29.5c28.667 -26 53.167 -63.833 73.5 -113.5s33.166 -106.5 38.499 -170.5h3c12.667 112.667 49 201.667 109 267c14.667 16 30.167 29.333 46.5 40
s28.166 17 35.499 19l17 -67c-36 -18.667 -69.5 -55.667 -100.5 -111s-52.833 -123.666 -65.5 -204.999c-6.66699 -49.333 -10 -88.666 -10 -117.999v-179h-76v179c0 36.667 -2.33301 75.334 -7 116.001c-23.333 178 -76 284.667 -158 320z" />
    <glyph glyph-name="Omegatonos" unicode="&#x38f;" horiz-adv-x="504" 
d="M4 674h66l-29 -148h-41zM241 0l-177 0.000976562v66h99v3c-26.667 36.667 -48.5 81.667 -65.5 135s-25.5 109.666 -25.5 168.999c0 95.333 18.667 170.666 56 225.999s86 83 146 83c58 0 104 -27.5 138 -82.5s51 -128.833 51 -221.5c0 -62 -8.66699 -120.333 -26 -175
s-39 -99.334 -65 -134.001v-3h99v-66h-177v52c28 30.667 50 74.334 66 131.001s23.667 115.334 23 176.001c0 30.667 -2 60.167 -6 88.5s-10.167 55.5 -18.5 81.5s-20.333 46.667 -36 62s-33.834 23 -54.501 23c-27.333 0 -50.166 -13.667 -68.499 -41
s-30.833 -59 -37.5 -95s-10 -74.667 -10 -116c0 -57.333 8.5 -116.333 25.5 -177s38.167 -105 63.5 -133v-52z" />
    <glyph glyph-name="iotadieresistonos" unicode="&#x390;" horiz-adv-x="188" 
d="M84 683h63l-35 -145h-41zM5 562c-11.333 0 -21.167 3.83301 -29.5 11.5s-12.5 17.167 -12.5 28.5c0 12 4 21.667 12 29s18 11 30 11c10.667 0 19.667 -3.66699 27 -11s11 -17 11 -29c0 -11.333 -3.66699 -20.833 -11 -28.5s-16.333 -11.5 -27 -11.5zM201.999 562
c-10.667 0 -20 3.83301 -28 11.5s-12 17.167 -12 28.5s4 20.833 12 28.5s17.333 11.5 28 11.5c11.333 0 21 -3.66699 29 -11s12 -17 12 -29c0 -11.333 -4 -20.833 -12 -28.5s-17.667 -11.5 -29 -11.5zM130.999 484v-383c0 -18.667 2.66699 -31.5 8 -38.5
s14.666 -10.5 27.999 -10.5l-6 -57c-10 -2 -19.667 -3 -29 -3c-23.333 0 -42.166 7.33301 -56.499 22s-21.5 42 -21.5 82v388h77z" />
    <glyph glyph-name="Alpha" unicode="&#x391;" horiz-adv-x="435" 
d="M290 202h-149l-45 -202h-74l154 674h85l150 -674h-76zM152 264h128l-35 171c-6.66699 32.667 -15.667 84 -27 154h-4c-9.33301 -58.667 -18.333 -110 -27 -154z" />
    <glyph glyph-name="Beta" unicode="&#x392;" horiz-adv-x="416" 
d="M60 3v660.999c34.667 8.66699 72.334 13 113.001 13c66 0 115.667 -15.667 149 -47c29.333 -27.333 44 -65.666 44 -114.999c0 -34.667 -9.16699 -65.167 -27.5 -91.5s-43.833 -45.833 -76.5 -58.5v-2c39.333 -10.667 70 -31 92 -61s33 -67 33 -111
c0 -54 -16 -98.667 -48 -134c-36 -40.667 -95.333 -61 -178 -61c-42.667 0 -76.334 2.33301 -101.001 7zM137 611.999v-224h35c32 0 59.5 11.167 82.5 33.5s34.5 50.833 34.5 85.5c0 73.333 -37 110 -111 110c-17.333 0 -31 -1.66699 -41 -5zM137 328.999
l-0.000976562 -268.001c12 -2.66699 25 -4 39 -4c40.667 0 72.834 11.667 96.501 35s35.5 56.333 35.5 99c0 44 -13.167 77.833 -39.5 101.5s-58.833 35.834 -97.5 36.501h-34z" />
    <glyph glyph-name="Gamma" unicode="&#x393;" horiz-adv-x="331" 
d="M60 674h258v-65h-181v-609h-77v674z" />
    <glyph glyph-name="uni0394" unicode="&#x394;" horiz-adv-x="436" 
d="M24 0v44l153 630h85l151 -629v-45h-389zM101 68l234 0.000976562l-83 349c-13.333 58.667 -24.333 116 -33 172h-3c-7.33301 -48.667 -18.333 -105.334 -33 -170.001z" />
    <glyph glyph-name="Epsilon" unicode="&#x395;" horiz-adv-x="354" 
d="M306 385v-65h-169v-253h192v-67h-269v674h257v-67h-180v-222h169z" />
    <glyph glyph-name="Zeta" unicode="&#x396;" horiz-adv-x="358" 
d="M20 0v46l231 559v3h-212v66h298v-52l-227 -553v-3h226v-66h-316z" />
    <glyph glyph-name="Eta" unicode="&#x397;" horiz-adv-x="463" 
d="M60 674h77v-289h189v289h77v-674h-77v315h-189v-315h-77v674z" />
    <glyph glyph-name="Theta" unicode="&#x398;" horiz-adv-x="449" 
d="M221 -8c-58 0 -104 29.833 -138 89.5s-51 145.167 -51 256.5c0 109.333 18 194 54 254s84.333 90 145 90c58 0 103.5 -29.833 136.5 -89.5s49.5 -143.167 49.5 -250.5c0 -120 -18 -208.333 -54 -265s-83.333 -85 -142 -85zM225 59c28 0 50.8301 14.668 68.4971 44.001
s29.5 63.666 35.5 102.999s9 83.666 9 132.999c0 34.667 -1.83301 67.167 -5.5 97.5s-9.5 59.5 -17.5 87.5s-19.667 50.167 -35 66.5s-33.666 24.5 -54.999 24.5s-39.666 -8.16699 -54.999 -24.5s-27.166 -38.333 -35.499 -66s-14.333 -57 -18 -88s-5.5 -63.833 -5.5 -98.5
c0 -77.333 9 -143.166 27 -197.499s47 -81.5 87 -81.5zM149.997 382.001h149v-70h-149v70z" />
    <glyph glyph-name="Iota" unicode="&#x399;" horiz-adv-x="199" 
d="M60 674h77v-674h-77v674z" />
    <glyph glyph-name="Kappa" unicode="&#x39a;" horiz-adv-x="404" 
d="M60 0v674h77v-320h2l42 81l126 239h85l-165 -288l169 -386h-83l-138 325l-38 -65v-260h-77z" />
    <glyph glyph-name="Lambda" unicode="&#x39b;" horiz-adv-x="434" 
d="M412 0h-79l-87 405c-12.667 66 -22.667 124.333 -30 175h-4c-8 -62 -17.333 -120.667 -28 -176l-85 -404h-78l155 674h81z" />
    <glyph glyph-name="Mu" unicode="&#x39c;" horiz-adv-x="599" 
d="M482 0l-14 290.002c-6.66699 121.333 -9 209.333 -7 264h-4c-16.667 -83.333 -34.667 -161.333 -54 -234l-83 -316h-49l-79 303c-26.667 103.333 -45 185.666 -55 246.999h-3c0 -51.333 -2.66699 -141 -8 -269l-13 -285h-69l40 674h83l79 -308
c26.667 -102.667 44.667 -180 54 -232h3c9.33301 55.333 26 132.666 50 231.999l76 308h86l39 -674h-72z" />
    <glyph glyph-name="Nu" unicode="&#x39d;" horiz-adv-x="465" 
d="M130 0l-69.999 0.000976562v674h73l124 -316c42 -108 70.667 -186.333 86 -235h2c-6 106 -9 209.333 -9 310v241h69v-674h-73l-128 324c-34.667 87.333 -61.334 163.666 -80.001 228.999h-2c5.33301 -80 8 -186.667 8 -320v-233z" />
    <glyph glyph-name="Xi" unicode="&#x39e;" horiz-adv-x="362" 
d="M35 674h291v-67h-291v67zM53 383h254v-66h-254v66zM29 67h304v-67h-304v67z" />
    <glyph glyph-name="Omicron" unicode="&#x39f;" horiz-adv-x="446" 
d="M230 682c57.333 0 102.333 -29.833 135 -89.5s49 -143.167 49 -250.5c0 -120 -18 -208.333 -54 -265s-83 -85 -141 -85c-57.333 0 -102.833 29.833 -136.5 89.5s-50.5 145.167 -50.5 256.5c0 109.333 18 194 54 254s84 90 144 90zM223 614
c-38.667 0 -66.833 -26.666 -84.5 -79.999s-26.5 -119 -26.5 -197c0 -50 3.16699 -94.833 9.5 -134.5s18.333 -73.334 36 -101.001s39.834 -41.5 66.501 -41.5c27.333 0 49.666 14.667 66.999 44s28.833 63.5 34.5 102.5s8.5 83.167 8.5 132.5c0 34.667 -1.66699 67 -5 97
s-9 59 -17 87s-19.667 50.167 -35 66.5s-33.333 24.5 -54 24.5z" />
    <glyph glyph-name="Pi" unicode="&#x3a0;" horiz-adv-x="451" 
d="M391 674v-674h-77v604h-177v-604h-77v674h331z" />
    <glyph glyph-name="Rho" unicode="&#x3a1;" horiz-adv-x="399" 
d="M60 0v664c33.333 8.66699 70.666 13 111.999 13c66 0 115.667 -16.667 149 -50c33.333 -32 50 -78.333 50 -139c0 -56 -13.667 -102 -41 -138c-37.333 -50 -90.333 -75 -159 -75c-15.333 0 -26.666 0.333008 -33.999 1v-276h-77zM137 609l-0.000976562 -268
c9.33301 -2 19.333 -3 30 -3c38.667 0 69.5 12.5 92.5 37.5s34.5 60.833 34.5 107.5c0 38 -9 69.333 -27 94s-47 37 -87 37c-17.333 0 -31.666 -1.66699 -42.999 -5z" />
    <glyph glyph-name="Sigma" unicode="&#x3a3;" horiz-adv-x="407" 
d="M106 71v-4h272v-67h-362v51l173 285l-163 287v51h330v-66h-236v-4l149 -264z" />
    <glyph glyph-name="Tau" unicode="&#x3a4;" horiz-adv-x="354" 
d="M139 0v605h-123v69h323v-69h-123v-605h-77z" />
    <glyph glyph-name="Upsilon" unicode="&#x3a5;" horiz-adv-x="425" 
d="M6 615l16.0039 64.998c7.33301 -0.666992 19.166 -4.83398 35.499 -12.501s30.833 -17.5 43.5 -29.5c28.667 -26.667 53.167 -64.667 73.5 -114s32.833 -106 37.5 -170h4c11.333 111.333 47.666 200.333 108.999 267c14.667 16 30.167 29.333 46.5 40
s28.166 17 35.499 19l16 -67c-36 -18.667 -69.333 -55.667 -100 -111s-52.334 -123.666 -65.001 -204.999c-6.66699 -41.333 -10 -80.666 -10 -117.999v-179h-77v179c0 42.667 -2 81.334 -6 116.001c-23.333 178 -76.333 284.667 -159 320z" />
    <glyph glyph-name="Phi" unicode="&#x3a6;" horiz-adv-x="504" 
d="M287 37l0.00195312 -50.001h-71v50c-50.667 8 -94.334 36.5 -131.001 85.5s-55 120.833 -55 215.5c0 91.333 18.5 162.833 55.5 214.5s80.833 80.834 131.5 87.501v47h71v-47c53.333 -6 97.666 -35.5 132.999 -88.5s53 -122.833 53 -209.5
c0 -95.333 -18.167 -168.5 -54.5 -219.5s-80.5 -79.5 -132.5 -85.5zM217.002 94.999v487c-30 -5.33301 -55.667 -29.5 -77 -72.5s-32 -101.167 -32 -174.5c0 -66.667 10.333 -121 31 -163s46.667 -67.667 78 -77zM287.002 581.999v-487.002
c33.333 6.66699 59.833 31.334 79.5 74.001s29.5 100.334 29.5 173.001c0 70.667 -11.167 127.167 -33.5 169.5s-47.5 65.833 -75.5 70.5z" />
    <glyph glyph-name="Chi" unicode="&#x3a7;" horiz-adv-x="392" 
d="M378 0h-80.998l-61 162c-12 32 -25.667 71.333 -41 118h-3c-18.667 -56 -32.334 -96 -41.001 -120l-58 -160h-79l139 344l-134 330h80l60 -156c5.33301 -13.333 18.666 -49 39.999 -107h2l36 110l55 153h79l-132 -328z" />
    <glyph glyph-name="Psi" unicode="&#x3a8;" horiz-adv-x="515" 
d="M472 674l0.000976562 -187c0 -164.667 -59.667 -255.667 -179 -273v-214h-71v214c-119.333 17.333 -179 102.666 -179 255.999v204h72v-200c0 -63.333 8.66699 -111 26 -143s44.666 -50.667 81.999 -56v399h69v-399c72 8.66699 108 80.334 108 215.001v184h72z" />
    <glyph glyph-name="uni03A9" unicode="&#x3a9;" horiz-adv-x="472" 
d="M209 0l-177.003 0.00292969v66h99v3c-26.667 37.333 -48.5 82.5 -65.5 135.5s-25.5 109.167 -25.5 168.5c0 95.333 18.833 170.666 56.5 225.999s86.5 83 146.5 83c58 0 103.833 -27.5 137.5 -82.5s50.5 -128.833 50.5 -221.5c0 -62 -8.66699 -120.333 -26 -175
s-39 -99.334 -65 -134.001v-3h99v-66h-177v52c28 30.667 50 74.167 66 130.5s23.667 115.166 23 176.499c0 42 -3.16699 81.167 -9.5 117.5s-18.666 68.333 -36.999 96s-41.166 41.5 -68.499 41.5s-50.166 -13.667 -68.499 -41s-30.833 -59 -37.5 -95s-10 -74.667 -10 -116
c0 -57.333 8.5 -116.333 25.5 -177s38.167 -105 63.5 -133v-52z" />
    <glyph glyph-name="Iotadieresis" unicode="&#x3aa;" horiz-adv-x="199" 
d="M23 710c-12.667 0 -23.167 4.16699 -31.5 12.5s-12.5 18.833 -12.5 31.5s4.16699 23.167 12.5 31.5s18.833 12.5 31.5 12.5c12 0 22 -4.16699 30 -12.5s12 -18.833 12 -31.5s-4 -23.167 -12 -31.5s-18 -12.5 -30 -12.5zM177 710c-12 0 -22.333 4.16699 -31 12.5
s-13 18.833 -13 31.5s4.33301 23.167 13 31.5s19 12.5 31 12.5s22 -4.16699 30 -12.5s12 -18.833 12 -31.5s-4 -23.167 -12 -31.5s-18 -12.5 -30 -12.5zM60 674h77v-674h-77v674z" />
    <glyph glyph-name="Upsilondieresis" unicode="&#x3ab;" horiz-adv-x="425" 
d="M141 697c-12.667 0 -23.167 4.16699 -31.5 12.5s-12.5 18.833 -12.5 31.5s4.33301 23.167 13 31.5s19 12.5 31 12.5s22 -4.16699 30 -12.5s12 -18.833 12 -31.5s-4 -23.167 -12 -31.5s-18 -12.5 -30 -12.5zM296 697c-12.667 0 -23.167 4.16699 -31.5 12.5
s-12.5 18.833 -12.5 31.5s4.16699 23.167 12.5 31.5s18.833 12.5 31.5 12.5c12 0 22 -4.16699 30 -12.5s12 -18.833 12 -31.5s-4 -23.167 -12 -31.5s-18 -12.5 -30 -12.5zM6 615l16.0039 64.998c7.33301 -0.666992 19.166 -4.83398 35.499 -12.501s30.833 -17.5 43.5 -29.5
c28.667 -26.667 53.167 -64.667 73.5 -114s32.833 -106 37.5 -170h4c11.333 111.333 47.666 200.333 108.999 267c14.667 16 30.167 29.333 46.5 40s28.166 17 35.499 19l16 -67c-36 -18.667 -69.333 -55.667 -100 -111s-52.334 -123.666 -65.001 -204.999
c-6.66699 -41.333 -10 -80.666 -10 -117.999v-179h-77v179c0 42.667 -2 81.334 -6 116.001c-23.333 178 -76.333 284.667 -159 320z" />
    <glyph glyph-name="alphatonos" unicode="&#x3ac;" horiz-adv-x="397" 
d="M208 675h67l-55 -135h-45zM291 484l59 0.000976562c-2.66699 -15.333 -5.33398 -61.333 -8.00098 -138s-3.66699 -157.334 -3 -242.001c0 -35.333 10.667 -53 32 -53l-8 -57c-4.66699 -1.33301 -11 -2 -19 -2c-39.333 0 -60.666 26.333 -63.999 79h-4
c-8 -21.333 -20.667 -39.833 -38 -55.5s-39 -23.5 -65 -23.5c-42 0 -75.833 21.333 -101.5 64s-38.5 100.667 -38.5 174c0 80.667 15.833 144.5 47.5 191.5s67.167 70.5 106.5 70.5c42.667 0 72.667 -24 90 -72h4c2.66699 24.667 6 46 10 64zM110 233.001
c0 -48 7.16699 -89.5 21.5 -124.5s33.166 -52.5 56.499 -52.5c16.667 0 31.834 10 45.501 30s23.167 45.667 28.5 77c2.66699 24.667 4 51.667 4 81c0 32.667 -0.666992 57 -2 73c-1.33301 30.667 -8.5 56.667 -21.5 78s-28.5 32 -46.5 32
c-26 0 -46.833 -18.833 -62.5 -56.5s-23.5 -83.5 -23.5 -137.5z" />
    <glyph glyph-name="epsilontonos" unicode="&#x3ad;" horiz-adv-x="324" 
d="M187 675h68l-56 -135h-45zM296 74l9.99902 -58c-26.667 -16 -64.667 -24 -114 -24c-45.333 0 -83.333 12 -114 36s-46 59.667 -46 107c0 32 10.167 59.5 30.5 82.5s43.833 37.167 70.5 42.5v4c-23.333 6.66699 -42.166 19 -56.499 37s-21.5 39.667 -21.5 65
c0 34.667 13.667 64.334 41 89.001s64 37 110 37c40 0 69.333 -7.66699 88 -23l-15 -55c-20 10.667 -43.333 16 -70 16c-24.667 0 -44 -6.83301 -58 -20.5s-21 -29.834 -21 -48.501c0 -25.333 10.5 -43.833 31.5 -55.5s46.833 -17.5 77.5 -17.5h15v-57h-19
c-36 -0.666992 -65.667 -8.33398 -89 -23.001s-35 -37 -35 -67c0 -27.333 9 -48.666 27 -63.999s40.667 -23 68 -23c37.333 0 67.333 6.66699 90 20z" />
    <glyph glyph-name="etatonos" unicode="&#x3ae;" horiz-adv-x="405" 
d="M207 675h68l-56 -135h-45zM131 0l-76.9971 -0.00195312v359c0 55.333 -4.33301 97 -13 125h67c6.66699 -14.667 11 -34 13 -58h2c24 44 61 66 111 66c35.333 0 63.666 -13.833 84.999 -41.5s32 -69.5 32 -125.5v-363c0 -73.333 2.66699 -124.666 8 -153.999h-71
c-9.33301 24.667 -14 71.334 -14 140.001v364c0 76.667 -22.333 115 -67 115c-16.667 0 -31.834 -6.83301 -45.501 -20.5s-22.834 -33.167 -27.501 -58.5c-2 -12 -3 -26.333 -3 -43v-305z" />
    <glyph glyph-name="iotatonos" unicode="&#x3af;" horiz-adv-x="188" 
d="M97 676h71l-56 -135h-48zM131 484v-383c0 -18.667 2.66699 -31.5 8 -38.5s14.666 -10.5 27.999 -10.5l-6 -57c-10 -2 -19.667 -3 -29 -3c-23.333 0 -42.166 7.33301 -56.499 22s-21.5 42 -21.5 82v388h77z" />
    <glyph glyph-name="upsilondieresistonos" unicode="&#x3b0;" horiz-adv-x="377" 
d="M165 682h63l-35 -145h-41zM85 560c-12 0 -22.167 3.83301 -30.5 11.5s-12.5 17.5 -12.5 29.5s4.16699 21.667 12.5 29s18.5 11 30.5 11c10 0 18.833 -3.83301 26.5 -11.5s11.5 -17.167 11.5 -28.5c0 -12 -3.83301 -21.833 -11.5 -29.5s-16.5 -11.5 -26.5 -11.5zM284 560
c-10.667 0 -20 3.83301 -28 11.5s-12 17.5 -12 29.5c0 11.333 4 20.833 12 28.5s17.333 11.5 28 11.5c11.333 0 21 -3.66699 29 -11s12 -17 12 -29s-4 -21.833 -12 -29.5s-17.667 -11.5 -29 -11.5zM237 484l73 -0.000976562c20.667 -50.667 31 -115 31 -193
c0 -199.333 -53.667 -299 -161 -299c-40 0 -71.833 13 -95.5 39s-35.5 62.333 -35.5 109v183c0 84.667 -2.66699 138.334 -8 161.001h74c6.66699 -12 10 -44.667 10 -98v-237c0 -30 5.83301 -52.833 17.5 -68.5s26.167 -23.5 43.5 -23.5c52.667 0 79 72.333 79 217
c0 96 -9.33301 166 -28 210z" />
    <glyph glyph-name="alpha" unicode="&#x3b1;" horiz-adv-x="397" 
d="M291 484l59 0.000976562c-2.66699 -15.333 -5.33398 -61.333 -8.00098 -138s-3.66699 -157.334 -3 -242.001c0 -35.333 10.667 -53 32 -53l-8 -57c-4.66699 -1.33301 -11 -2 -19 -2c-39.333 0 -60.666 26.333 -63.999 79h-4c-8 -21.333 -20.667 -39.833 -38 -55.5
s-39 -23.5 -65 -23.5c-42 0 -75.833 21.333 -101.5 64s-38.5 100.667 -38.5 174c0 80.667 15.833 144.5 47.5 191.5s67.167 70.5 106.5 70.5c42.667 0 72.667 -24 90 -72h4c2.66699 24.667 6 46 10 64zM110 233.001c0 -48 7.16699 -89.5 21.5 -124.5
s33.166 -52.5 56.499 -52.5c16.667 0 31.834 10 45.501 30s23.167 45.667 28.5 77c2.66699 24.667 4 51.667 4 81c0 32.667 -0.666992 57 -2 73c-1.33301 30.667 -8.5 56.667 -21.5 78s-28.5 32 -46.5 32c-26 0 -46.833 -18.833 -62.5 -56.5s-23.5 -83.5 -23.5 -137.5z" />
    <glyph glyph-name="beta" unicode="&#x3b2;" horiz-adv-x="404" 
d="M130 28l-1.99902 -0.00292969v-66c0 -69.333 3 -120.666 9 -153.999h-70c-9.33301 24.667 -14 71 -14 139v518c0 90 17 154 51 192c26 28.667 59 43 99 43c43.333 0 76.5 -16.667 99.5 -50s34.5 -72.666 34.5 -117.999c0 -73.333 -26.667 -124.666 -80 -153.999v-4
c31.333 -10 58.166 -29.833 80.499 -59.5s33.5 -71.5 33.5 -125.5c0 -60.667 -14.5 -108.667 -43.5 -144s-65.167 -53 -108.5 -53c-37.333 0 -67 12 -89 36zM128.001 480.997l0.000976562 -376c19.333 -32.667 45.666 -49 78.999 -49c27.333 0 48.833 13 64.5 39
s23.5 57.667 23.5 95c0 42.667 -9.5 77 -28.5 103s-44.5 40.667 -76.5 44c-4 0.666992 -9 1 -15 1v60c2.66699 0 7.33398 0.666992 14.001 2c49.333 13.333 74 56 74 128c0 26 -5.33301 50.5 -16 73.5s-26.334 34.5 -47.001 34.5c-48 0 -72 -51.667 -72 -155z" />
    <glyph glyph-name="gamma" unicode="&#x3b3;" horiz-adv-x="339" 
d="M199 -192l-74.001 -0.00195312c4 137.333 -4 247.666 -24 330.999c-31.333 138 -66.666 253 -105.999 345h81c43.333 -113.333 75 -237.333 95 -372h3c46.667 132.667 70 243.334 70 332.001v13v14.5v12.5h70c1.33301 -9.33301 2 -20.666 2 -33.999
c0 -109.333 -38 -246.666 -114 -411.999c-3.33301 -7.33301 -5 -15 -5 -23c2 -72 2.66699 -141 2 -207z" />
    <glyph glyph-name="delta" unicode="&#x3b4;" horiz-adv-x="390" 
d="M338 658l-23 -50.999c-32 21.333 -62.667 32 -92 32c-16 0 -28.333 -3.83301 -37 -11.5s-13 -17.167 -13 -28.5c0 -16 15 -43.667 45 -83l59 -75c52.667 -68 79 -138 79 -210c0 -74 -15.333 -132.333 -46 -175s-69.667 -64 -117 -64c-46 0 -84.167 20.667 -114.5 62
s-45.5 97.333 -45.5 168c0 56 12.667 104.833 38 146.5s56 74.5 92 98.5v4l-13 16c-35.333 47.333 -53 84.666 -53 111.999c0 26 10.667 49.333 32 70s52 31 92 31c47.333 0 86.333 -14 117 -42zM225 391.001l-24 32c-60.667 -45.333 -91 -112.666 -91 -201.999
c0 -52.667 8.66699 -93.834 26 -123.501s37.333 -44.5 60 -44.5c26 0 46.333 15.5 61 46.5s22 71.167 22 120.5c0 67.333 -18 124.333 -54 171z" />
    <glyph glyph-name="epsilon" unicode="&#x3b5;" horiz-adv-x="324" 
d="M296 74l9.99902 -58c-26.667 -16 -64.667 -24 -114 -24c-45.333 0 -83.333 12 -114 36s-46 59.667 -46 107c0 32 10.167 59.5 30.5 82.5s43.833 37.167 70.5 42.5v4c-23.333 6.66699 -42.166 19 -56.499 37s-21.5 39.667 -21.5 65c0 34.667 13.667 64.334 41 89.001
s64 37 110 37c40 0 69.333 -7.66699 88 -23l-15 -55c-20 10.667 -43.333 16 -70 16c-24.667 0 -44 -6.83301 -58 -20.5s-21 -29.834 -21 -48.501c0 -25.333 10.5 -43.833 31.5 -55.5s46.833 -17.5 77.5 -17.5h15v-57h-19c-36 -0.666992 -65.667 -8.33398 -89 -23.001
s-35 -37 -35 -67c0 -27.333 9 -48.666 27 -63.999s40.667 -23 68 -23c37.333 0 67.333 6.66699 90 20z" />
    <glyph glyph-name="zeta" unicode="&#x3b6;" horiz-adv-x="314" 
d="M250 -130l-53.9971 16c20.667 35.333 32.667 69.333 36 102c-30.667 7.33301 -59.334 17.333 -86.001 30c-75.333 34.667 -113 102 -113 202c0 70.667 17.667 143.667 53 219s80.333 138.333 135 189v3h-46c-42 0 -72 3 -90 9l9 55c25.333 -2 58.666 -3 99.999 -3h110
l14 -54c-52.667 -35.333 -100.334 -92.5 -143.001 -171.5s-64 -154.833 -64 -227.5c0 -49.333 7.83301 -87 23.5 -113s38.5 -45.333 68.5 -58c22 -10 54.333 -19.333 97 -28c5.33301 -1.33301 8 -5.33301 8 -12c0 -26.667 -6 -55.167 -18 -85.5s-25.333 -54.5 -40 -72.5z
" />
    <glyph glyph-name="eta" unicode="&#x3b7;" horiz-adv-x="405" 
d="M131 0l-76.9971 -0.00195312v359c0 55.333 -4.33301 97 -13 125h67c6.66699 -14.667 11 -34 13 -58h2c24 44 61 66 111 66c35.333 0 63.666 -13.833 84.999 -41.5s32 -69.5 32 -125.5v-363c0 -73.333 2.66699 -124.666 8 -153.999h-71
c-9.33301 24.667 -14 71.334 -14 140.001v364c0 76.667 -22.333 115 -67 115c-16.667 0 -31.834 -6.83301 -45.501 -20.5s-22.834 -33.167 -27.501 -58.5c-2 -12 -3 -26.333 -3 -43v-305z" />
    <glyph glyph-name="theta" unicode="&#x3b8;" horiz-adv-x="382" 
d="M190 -8c-104.667 0 -157 120.334 -157 361.001c0 120 15.667 207.833 47 263.5s69.333 83.5 114 83.5c46 0 83.333 -27.5 112 -82.5s43 -143.167 43 -264.5c0 -72 -4.33301 -132.833 -13 -182.5s-21 -86.834 -37 -111.501s-32.667 -42 -50 -52s-37 -15 -59 -15z
M107 387.001h168c0 77.333 -7.5 138.833 -22.5 184.5s-35.833 68.5 -62.5 68.5c-24 0 -43.833 -23.5 -59.5 -70.5s-23.5 -107.833 -23.5 -182.5zM275 325.001l-168.002 0.000976562c0.666992 -88.667 8.33398 -156.334 23.001 -203.001s35.334 -70 62.001 -70
c55.333 0 83 91 83 273z" />
    <glyph glyph-name="iota" unicode="&#x3b9;" horiz-adv-x="188" 
d="M131 484v-383c0 -18.667 2.66699 -31.5 8 -38.5s14.666 -10.5 27.999 -10.5l-6 -57c-10 -2 -19.667 -3 -29 -3c-23.333 0 -42.166 7.33301 -56.499 22s-21.5 42 -21.5 82v388h77z" />
    <glyph glyph-name="kappa" unicode="&#x3ba;" horiz-adv-x="370" 
d="M131 0l-76 0.000976562v368c0 55.333 -3.33301 94 -10 116h73c8.66699 -12.667 13 -40.334 13 -83.001v-135h3c20 28.667 46.5 69.667 79.5 123s52.833 85 59.5 95h83v-3l-155 -219v-3c12.667 -4.66699 25.5 -15.334 38.5 -32.001s23.667 -32.667 32 -48
s17.833 -34.666 28.5 -57.999c2 -5.33301 3.66699 -9 5 -11l54 -110h-85l-51 111c-32.667 73.333 -60.667 110 -84 110h-8v-221z" />
    <glyph glyph-name="lambda" unicode="&#x3bb;" horiz-adv-x="337" 
d="M250 0l-58.002 259.001c-6 27.333 -13.667 65.333 -23 114h-3c-9.33301 -52 -16.666 -89.333 -21.999 -112l-61 -261h-76l121 452c1.33301 5.33301 2 12.666 2 21.999c0 5.33301 -1.66699 16.333 -5 33c-23.333 86 -54.333 129 -93 129c-3.33301 0 -7 -0.333008 -11 -1
l8 63c6.66699 1.33301 14.334 2 23.001 2c20.667 0 39 -4.83301 55 -14.5s29.833 -24.667 41.5 -45s21.667 -42 30 -65s16.833 -51.833 25.5 -86.5l123 -489h-77z" />
    <glyph glyph-name="uni03BC" unicode="&#x3bc;" horiz-adv-x="399" 
d="M281 50l-2 -0.00195312c-6.66699 -12.667 -17.834 -24.667 -33.501 -36s-32.5 -17 -50.5 -17c-32 0 -54.667 12 -68 36v-71c0 -69.333 3 -120.666 9 -153.999h-70c-8.66699 26 -13 74.667 -13 146v530h77v-319c0 -72.667 21.333 -109 64 -109
c20.667 0 36.834 6.83301 48.501 20.5s19.167 28.5 22.5 44.5c2.66699 10.667 4 25.334 4 44.001v319h76v-380c0 -18.667 2.33301 -32.5 7 -41.5s12.667 -13.167 24 -12.5l-8 -55c-6.66699 -2 -15 -3 -25 -3c-33.333 0 -54 19.333 -62 58z" />
    <glyph glyph-name="nu" unicode="&#x3bd;" horiz-adv-x="333" 
d="M6 484l78 0.00195312l56 -272c2 -12.667 5.5 -33.334 10.5 -62.001l10.5 -60h3c50 157.333 75 277.666 75 360.999v33h70c1.33301 -10.667 2 -21 2 -31c0 -94 -41.333 -245 -124 -453h-69z" />
    <glyph glyph-name="xi" unicode="&#x3be;" horiz-adv-x="328" 
d="M278 414l0.000976562 -59.9951h-17c-44 -2 -80 -15.833 -108 -41.5s-42 -59.834 -42 -102.501c0 -70 35.667 -118 107 -144c30 -10.667 61.333 -19.334 94 -26.001c6.66699 -0.666992 10 -4.66699 10 -12c0 -25.333 -6 -53.333 -18 -84s-25 -55 -39 -73l-55 15
c18.667 31.333 30.667 65.333 36 102c-66 16 -118 39.833 -156 71.5s-57 78.5 -57 140.5c0 45.333 11.667 84.166 35 116.499s54.333 56.166 93 71.499v5c-28 12.667 -50 31.667 -66 57s-24 53.333 -24 84c0 48.667 15.167 88.5 45.5 119.5s70.166 46.5 119.499 46.5
c31.333 0 58 -6.33301 80 -19l-14 -57c-22.667 9.33301 -43.667 14 -63 14c-30.667 0 -53.667 -10.667 -69 -32s-23 -45.333 -23 -72c0 -34.667 11 -62.334 33 -83.001s49.333 -32.667 82 -36c1.33301 0 4 -0.166992 8 -0.5s6.66699 -0.5 8 -0.5z" />
    <glyph glyph-name="omicron" unicode="&#x3bf;" horiz-adv-x="383" 
d="M195 492c45.333 0 82.668 -21.499 112.001 -64.499s44 -104.833 44 -185.5c0 -86 -16 -149.167 -48 -189.5s-69.667 -60.5 -113 -60.5c-46 0 -83.667 21.167 -113 63.5s-44 104.166 -44 185.499c0 83.333 15.667 146 47 188s69.666 63 114.999 63zM192.002 430.001
c-16 0 -29.8369 -6.16602 -41.5039 -18.499s-20.167 -28.5 -25.5 -48.5s-9.16602 -39.833 -11.499 -59.5s-3.5 -40.167 -3.5 -61.5c0 -22.667 1.16699 -44 3.5 -64s6.33301 -40 12 -60s14.334 -35.833 26.001 -47.5s25.834 -17.5 42.501 -17.5
c15.333 0 28.666 6.16699 39.999 18.5s19.5 28.666 24.5 48.999s8.66699 40.333 11 60s3.5 40.167 3.5 61.5s-1.16699 41.833 -3.5 61.5s-6.16602 39.5 -11.499 59.5s-13.666 36.167 -24.999 48.5s-25 18.5 -41 18.5z" />
    <glyph glyph-name="pi" unicode="&#x3c0;" horiz-adv-x="400" 
d="M380 420l-47.001 -0.000976562v-303c0 -53.333 3.33301 -92.333 10 -117h-72c-9.33301 17.333 -14 56 -14 116v304h-99c-0.666992 -70 -5.5 -146.167 -14.5 -228.5s-20.833 -146.166 -35.5 -191.499h-71c14.667 48.667 26.167 113.167 34.5 193.5
s12.5 155.833 12.5 226.5c-22.667 0 -43 -1.66699 -61 -5l-11 47c14.667 14.667 53.334 22 116.001 22h259z" />
    <glyph glyph-name="rho" unicode="&#x3c1;" horiz-adv-x="395" 
d="M133 -192l-71 -0.00195312c-8 24 -12 70 -12 138v298c0 93.333 17.667 159.333 53 198c26.667 33.333 60.334 50 101.001 50c50 0 89 -21.667 117 -65s42 -104.666 42 -183.999c0 -83.333 -14.833 -146 -44.5 -188s-65.834 -63 -108.501 -63
c-37.333 0 -64.333 15.667 -81 47h-2v-77c0 -69.333 2 -120.666 6 -153.999zM127 263.998l-0.000976562 -96.001c0 -18 1.33301 -30.667 4 -38c6 -27.333 15.333 -46.5 28 -57.5s25.334 -16.5 38.001 -16.5c30.667 0 53 18 67 54s21 81 21 135
c0 52.667 -6.66699 95.834 -20 129.501s-34 50.5 -62 50.5c-22 0 -40.167 -13 -54.5 -39s-21.5 -66.667 -21.5 -122z" />
    <glyph glyph-name="uni03C2" unicode="&#x3c2;" horiz-adv-x="306" 
d="M294 479l-14.9961 -61c-14 5.33301 -28.667 8 -44 8c-40 0 -70.667 -18.667 -92 -56s-32 -80.666 -32 -129.999c0 -42 6.66699 -77.167 20 -105.5s36.666 -50.5 69.999 -66.5c17.333 -8 45.333 -17.667 84 -29c4.66699 -2 7 -5 7 -9
c0 -27.333 -5.83301 -56.333 -17.5 -87s-25.167 -55 -40.5 -73l-54 16c21.333 33.333 33.666 67 36.999 101c-28.667 9.33301 -52.334 18.333 -71.001 27c-34 17.333 -61.333 44.666 -82 81.999s-31 83 -31 137c0 72.667 18.667 134 56 184s86.333 75 147 75
c23.333 0 42.666 -4.33301 57.999 -13z" />
    <glyph glyph-name="sigma" unicode="&#x3c3;" horiz-adv-x="383" 
d="M371 492l-4.00098 -59.999c-21.333 -1.33301 -48.333 0 -81 4l-1 -3c40.667 -40 61 -103.667 61 -191c0 -85.333 -15.833 -148.333 -47.5 -189s-68.167 -61 -109.5 -61c-45.333 0 -82.666 21.167 -111.999 63.5s-44 104.166 -44 185.499c0 83.333 15.667 146 47 188
s70.333 63 117 63h174zM190.999 53.001c28.667 0 48.8311 19.168 60.498 57.501s17.5 82.166 17.5 131.499c0 47.333 -6.16699 90.5 -18.5 129.5s-32.5 58.5 -60.5 58.5c-16 0 -29.5 -6.16699 -40.5 -18.5s-19.167 -28.5 -24.5 -48.5s-9.16602 -39.833 -11.499 -59.5
s-3.5 -40.167 -3.5 -61.5c0 -31.333 2 -60 6 -86s12.333 -49.667 25 -71s29.334 -32 50.001 -32z" />
    <glyph glyph-name="tau" unicode="&#x3c4;" horiz-adv-x="304" 
d="M243 54l-3 -57c-10 -3.33301 -22.333 -5 -37 -5c-61.333 0 -92 45.667 -92 137v291h-42c-23.333 0 -42.333 -3.33301 -57 -10l-12 50c12.667 16 42 24 88 24h212l-9 -64h-103v-294c0 -48.667 12.667 -73 38 -73c8 0 13.667 0.333008 17 1z" />
    <glyph glyph-name="upsilon" unicode="&#x3c5;" horiz-adv-x="377" 
d="M237 484l73 -0.000976562c20.667 -50.667 31 -115 31 -193c0 -199.333 -53.667 -299 -161 -299c-40 0 -71.833 13 -95.5 39s-35.5 62.333 -35.5 109v183c0 84.667 -2.66699 138.334 -8 161.001h74c6.66699 -12 10 -44.667 10 -98v-237c0 -30 5.83301 -52.833 17.5 -68.5
s26.167 -23.5 43.5 -23.5c52.667 0 79 72.333 79 217c0 96 -9.33301 166 -28 210z" />
    <glyph glyph-name="phi" unicode="&#x3c6;" horiz-adv-x="491" 
d="M143 491l41 -38c-50 -53.333 -75 -121.666 -75 -204.999c0 -49.333 8.83301 -91.666 26.5 -126.999s42.5 -57 74.5 -65v307c0 43.333 9 75.333 27 96s40.667 31 68 31c40 0 75.5 -21.5 106.5 -64.5s46.5 -100.167 46.5 -171.5c0 -77.333 -17.333 -137.833 -52 -181.5
s-76 -68.5 -124 -74.5v-190h-72v190c-20 2.66699 -39.5 8.66699 -58.5 18s-37.833 23.166 -56.5 41.499s-33.667 43.666 -45 75.999s-17 69.5 -17 111.5c0 58.667 11.333 109 34 151s48 73.667 76 95zM281 374v-319c33.333 5.33301 58.5 26.5 75.5 63.5
s25.5 80.833 25.5 131.5c0 51.333 -8 94 -24 128s-32 51 -48 51c-19.333 0 -29 -18.333 -29 -55z" />
    <glyph glyph-name="chi" unicode="&#x3c7;" horiz-adv-x="339" 
d="M11 484l78 0.000976562l83 -258h4c10 39.333 19.333 72.666 28 99.999l52 158h74l-122 -327l120 -342l-71 -18l-95 289h-2c-8.66699 -36.667 -19.667 -77 -33 -121l-54 -168l-68 16l122 346z" />
    <glyph glyph-name="psi" unicode="&#x3c8;" horiz-adv-x="487" 
d="M210 -192v184.005c-22 2.66699 -41.333 7.5 -58 14.5s-33.667 18.167 -51 33.5s-30.833 38.166 -40.5 68.499s-14.5 67.166 -14.5 110.499v148c0 59.333 -1.66699 98.333 -5 117h68c5.33301 -14.667 8 -47.334 8 -98.001v-151c0 -64 8.16699 -109.833 24.5 -137.5
s39.5 -43.834 69.5 -48.501v536h71v-536c33.333 4 57.833 28.5 73.5 73.5s23.5 102.167 23.5 171.5c0 87.333 -7.33301 150.666 -22 189.999h66c18.667 -42.667 28 -102.667 28 -180c0 -197.333 -56 -301.333 -168 -312v-184h-73z" />
    <glyph glyph-name="omega" unicode="&#x3c9;" horiz-adv-x="521" 
d="M296 333l-1 -191.001c0 -19.333 4.5 -38.333 13.5 -57s21.5 -28 37.5 -28c19.333 0 35 15.833 47 47.5s18 77.167 18 136.5c0 98.667 -22.333 178.667 -67 240v3h70c19.333 -19.333 36.5 -51.333 51.5 -96s22.5 -93.667 22.5 -147c0 -78 -12.833 -139 -38.5 -183
s-59.167 -66 -100.5 -66c-39.333 0 -68.333 23.333 -87 70h-3c-16.667 -46.667 -48.334 -70 -95.001 -70c-36.667 0 -67.667 20.167 -93 60.5s-38 100.166 -38 179.499c0 56.667 7.66699 107.834 23 153.501s32.333 78.5 51 98.5h69v-3c-44.667 -58.667 -67 -140 -67 -244
c0 -59.333 6 -104.166 18 -134.499s27.667 -45.5 47 -45.5c16.667 0 29.334 9.16699 38.001 27.5s13 37.833 13 58.5l-1 190h72z" />
    <glyph glyph-name="iotadieresis" unicode="&#x3ca;" horiz-adv-x="188" 
d="M16 558c-13.333 0 -24.168 4.33105 -32.501 12.998s-12.5 19.334 -12.5 32.001s4.33301 23.334 13 32.001s19.334 13 32.001 13c12 0 22.167 -4.16699 30.5 -12.5s12.5 -19.166 12.5 -32.499c0 -12.667 -4.16699 -23.334 -12.5 -32.001s-18.5 -13 -30.5 -13z
M169.998 557.998c-12.667 0 -23.167 4.3291 -31.5 12.9961s-12.5 19.334 -12.5 32.001s4.16699 23.334 12.5 32.001s18.833 13 31.5 13s23 -4.16699 31 -12.5s12 -19.166 12 -32.499s-4 -24.166 -12 -32.499s-18.333 -12.5 -31 -12.5zM130.998 483.994v-383
c0 -18.667 2.66699 -31.5 8 -38.5s14.666 -10.5 27.999 -10.5l-6 -57c-10 -2 -19.667 -3 -29 -3c-23.333 0 -42.166 7.33301 -56.499 22s-21.5 42 -21.5 82v388h77z" />
    <glyph glyph-name="upsilondieresis" unicode="&#x3cb;" horiz-adv-x="377" 
d="M104 558c-13.333 0 -24.168 4.33105 -32.501 12.998s-12.5 19.334 -12.5 32.001s4.33301 23.334 13 32.001s19.334 13 32.001 13c12 0 22 -4.16699 30 -12.5s12 -19.166 12 -32.499c0 -12.667 -4 -23.334 -12 -32.001s-18 -13 -30 -13zM257.998 557.998
c-12.667 0 -23.334 4.3291 -32.001 12.9961s-13 19.334 -13 32.001s4.33301 23.334 13 32.001s19.334 13 32.001 13s23 -4.16699 31 -12.5s12 -19.166 12 -32.499s-4 -24.166 -12 -32.499s-18.333 -12.5 -31 -12.5zM236.998 483.994l73 -0.000976562
c20.667 -50.667 31 -115 31 -193c0 -199.333 -53.667 -299 -161 -299c-40 0 -71.833 13 -95.5 39s-35.5 62.333 -35.5 109v183c0 84.667 -2.66699 138.334 -8 161.001h74c6.66699 -12 10 -44.667 10 -98v-237c0 -30 5.83301 -52.833 17.5 -68.5s26.167 -23.5 43.5 -23.5
c52.667 0 79 72.333 79 217c0 96 -9.33301 166 -28 210z" />
    <glyph glyph-name="omicrontonos" unicode="&#x3cc;" horiz-adv-x="383" 
d="M194 675h68l-55 -135h-45zM195 492c45.333 0 82.668 -21.499 112.001 -64.499s44 -104.833 44 -185.5c0 -86 -16 -149.167 -48 -189.5s-69.667 -60.5 -113 -60.5c-46 0 -83.667 21.167 -113 63.5s-44 104.166 -44 185.499c0 83.333 15.667 146 47 188
s69.666 63 114.999 63zM192.002 430.001c-16 0 -29.8369 -6.16602 -41.5039 -18.499s-20.167 -28.5 -25.5 -48.5s-9.16602 -39.833 -11.499 -59.5s-3.5 -40.167 -3.5 -61.5c0 -22.667 1.16699 -44 3.5 -64s6.33301 -40 12 -60s14.334 -35.833 26.001 -47.5
s25.834 -17.5 42.501 -17.5c15.333 0 28.666 6.16699 39.999 18.5s19.5 28.666 24.5 48.999s8.66699 40.333 11 60s3.5 40.167 3.5 61.5s-1.16699 41.833 -3.5 61.5s-6.16602 39.5 -11.499 59.5s-13.666 36.167 -24.999 48.5s-25 18.5 -41 18.5z" />
    <glyph glyph-name="upsilontonos" unicode="&#x3cd;" horiz-adv-x="377" 
d="M188 676h70l-55 -135h-48zM237 484l73 -0.000976562c20.667 -50.667 31 -115 31 -193c0 -199.333 -53.667 -299 -161 -299c-40 0 -71.833 13 -95.5 39s-35.5 62.333 -35.5 109v183c0 84.667 -2.66699 138.334 -8 161.001h74c6.66699 -12 10 -44.667 10 -98v-237
c0 -30 5.83301 -52.833 17.5 -68.5s26.167 -23.5 43.5 -23.5c52.667 0 79 72.333 79 217c0 96 -9.33301 166 -28 210z" />
    </font>
</defs>
</svg>
